<?xml version="1.0" encoding="iso-8859-1"?>
<!-- Generator: Adobe Illustrator 19.0.0, SVG Export Plug-In . SVG Version: 6.00 Build 0)  -->
<svg version="1.1" id="Layer_1" xmlns="http://www.w3.org/2000/svg" xmlns:xlink="http://www.w3.org/1999/xlink" x="0px" y="0px"
	 viewBox="0 0 512 512" style="enable-background:new 0 0 512 512;" xml:space="preserve">
<circle style="fill:#273B7A;" cx="256" cy="256" r="256"/>
<path style="fill:#121149;" d="M186.635,353.537l146.596,146.596c91.698-28.982,161.078-108.187,175.847-205.343L363.887,149.599
	L186.635,353.537z"/>
<path style="fill:#4486F4;" d="M256,400.013c102.938-47.509,106.803-108.115,107.887-155.396c0.545-23.749,0-95.02,0-95.02
	C293.612,134.751,256,111.987,256,111.987s-37.612,22.766-107.887,37.612c0,0-0.545,71.271,0,95.02
	C149.197,291.899,153.062,352.504,256,400.013z"/>
<circle style="fill:#426FC2;" cx="256" cy="247.622" r="71.266"/>
<g>
	<circle style="fill:#FFFFFF;" cx="256" cy="220.608" r="30.436"/>
	<path style="fill:#FFFFFF;" d="M256,262.559c-23.659,0-44.813,9.673-59.108,24.888c12.805,18.968,34.501,31.442,59.108,31.442
		c24.609,0,46.304-12.472,59.108-31.441C300.813,272.232,279.659,262.559,256,262.559z"/>
</g>
<g>
</g>
<g>
</g>
<g>
</g>
<g>
</g>
<g>
</g>
<g>
</g>
<g>
</g>
<g>
</g>
<g>
</g>
<g>
</g>
<g>
</g>
<g>
</g>
<g>
</g>
<g>
</g>
<g>
</g>
</svg>
