<?xml version="1.0" encoding="iso-8859-1"?>
<!-- Generator: Adobe Illustrator 21.1.0, SVG Export Plug-In . SVG Version: 6.00 Build 0)  -->
<svg xmlns="http://www.w3.org/2000/svg" xmlns:xlink="http://www.w3.org/1999/xlink" 
version="1.1" id="Layer_1" x="0px" y="0px" viewBox="6 6 38 38" style="enable-background:new 0 0 48 48;" xml:space="preserve" width="50px" height="50px">
<path style="fill:#5B9EDD;" d="M42,11v27c0,2.209-1.791,4-4,4H11c-2.761,0-5-2.239-5-5V11c0-2.761,2.239-5,5-5h26  C39.761,6,42,8.239,42,11z"/>
<path style="fill:#FFFFFF;" d="M29.91,27.17C32,23.641,33,19,33,19h-7v-2h9v-2h-9v-3.98L22,11v4h-9v2h9v2h-8v2  c0,0,13.125,0,14.5-0.01c-0.281,0.793-0.99,3.189-2.015,5.055C22.602,24.84,19.019,24,16.143,24c-6.898,0-8.428,3.481-8.102,6.664  c0.263,2.54,2.145,6.248,7.893,6.248c5.251,0,9.49-3.023,12.099-6.622C33.008,32.591,38.263,34.909,42,37v-6.038  C38.049,29.601,33.89,28.531,29.91,27.17z M15.098,34.762c-4.858,0-5.61-2.75-5.694-4.392c-0.079-1.436,0.886-4.132,6.371-4.132  c2.04,0,5.276,1.046,8.909,2.57C22.631,31.516,19.341,34.762,15.098,34.762z"/>
</svg>
