<?xml version="1.0" encoding="UTF-8"?>
<!DOCTYPE svg PUBLIC "-//W3C//DTD SVG 1.1//EN" "http://www.w3.org/Graphics/SVG/1.1/DTD/svg11.dtd">
<!-- Creator: CorelDRAW X6 -->
<svg xmlns="http://www.w3.org/2000/svg" xml:space="preserve" width="13.5694in" height="3.75in" version="1.1" style="shape-rendering:geometricPrecision; text-rendering:geometricPrecision; image-rendering:optimizeQuality; fill-rule:evenodd; clip-rule:evenodd"
viewBox="0 0 13569 3750"
 xmlns:xlink="http://www.w3.org/1999/xlink">
 <defs>
  <style type="text/css">
   <![CDATA[
    .fil1 {fill:#434344;fill-rule:nonzero}
    .fil0 {fill:#5B9ED5;fill-rule:nonzero}
    .fil2 {fill:#FEFEFE;fill-rule:nonzero}
   ]]>
  </style>
 </defs>
 <g id="Layer_x0020_1">
  <metadata id="CorelCorpID_0Corel-Layer"/>
  <path class="fil0" d="M8098 762c0,128 -116,231 -259,231 -143,0 -259,-103 -259,-231 0,-128 116,-231 259,-231 143,0 259,103 259,231z"/>
  <path class="fil1" d="M6705 784l0 1996 482 0 0 -2108 -370 0c-62,0 -112,50 -112,112z"/>
  <path class="fil1" d="M7598 1345l0 1435 482 0 0 -1547 -370 0c-62,0 -112,50 -112,112z"/>
  <path class="fil1" d="M9227 2647c-99,0 -204,-94 -284,-187l0 -829c75,-75 203,-181 313,-181 165,0 320,227 320,558 0,331 -151,640 -349,640zm158 -1450c-220,0 -374,114 -442,176l0 -140 -370 0c-62,0 -112,50 -112,112l0 2054 482 0 0 -681c73,55 172,95 306,95 450,0 795,-389 795,-878 0,-489 -356,-737 -658,-737z"/>
  <path class="fil1" d="M10932 2607c-201,0 -327,-119 -327,-338 0,-219 223,-356 399,-356 89,0 144,28 176,56l0 536c-57,49 -142,102 -248,102zm29 -1410c-425,0 -565,90 -565,90l50 108c0,0 158,-58 417,-58 288,0 317,155 317,345l0 89c-62,-18 -180,-46 -327,-46 -219,0 -608,86 -608,536 0,450 345,550 572,550 133,0 271,-69 363,-126l0 94 482 0 0 -1097c0,-324 -277,-486 -701,-486z"/>
  <path class="fil1" d="M13575 1197l-324 0 -434 988 -12 -23 -495 -965 -494 0 755 1472 18 35 -79 180c-122,242 -471,225 -471,225l0 202c0,0 150,13 259,0 104,-12 334,-81 447,-319l0 0 231 -499 0 0 599 -1297z"/>
  <path class="fil1" d="M5730 2284l-870 0 443 -921 427 921zm-216 -1611l-205 0 -166 346 -848 1762 326 0 168 -349 1010 0 162 349 532 0 -919 -1980 -60 -128z"/>
  <path class="fil0" d="M3763 577l0 2589c-3,323 -266,583 -589,584l-2586 0c-325,-1 -589,-265 -589,-590l0 -2583c0,-326 264,-590 590,-590l2583 0c326,0 590,264 590,590z"/>
  <path class="fil2" d="M986 2883c-502,0 -579,-283 -588,-452 -8,-148 92,-425 658,-425 211,0 545,107 920,264 -212,278 -552,612 -990,612zm1529 -780c193,-371 322,-763 322,-763l-746 0 0 -263 920 0 0 -160 -920 0 0 -423 -428 0 0 423 -920 0 0 160 920 0 0 263 -774 0 0 141 1495 0c0,0 -83,255 -222,507 -401,-124 -771,-210 -1068,-210 -712,0 -870,358 -837,685 27,261 221,642 815,642 542,0 980,-311 1249,-681 514,237 1056,528 1442,743l0 -621c-408,-140 -837,-303 -1248,-443z"/>
 </g>
</svg>
