<?xml version="1.0" encoding="utf-8"?>
<!-- Generator: Adobe Illustrator 17.0.0, SVG Export Plug-In . SVG Version: 6.00 Build 0)  -->
<!DOCTYPE svg PUBLIC "-//W3C//DTD SVG 1.1//EN" "http://www.w3.org/Graphics/SVG/1.1/DTD/svg11.dtd">
<svg version="1.1" id="图层_1" xmlns="http://www.w3.org/2000/svg" xmlns:xlink="http://www.w3.org/1999/xlink" x="0px" y="0px"
	 width="100px" height="40px" viewBox="0 0 100 40" enable-background="new 0 0 100 40" xml:space="preserve">
<path fill="#777777" d="M55.02,8.893c-8.89,0-15.616,6.906-15.616,15.462c0,9.019,7.009,15.462,15.616,15.462
	s15.59-6.442,15.59-15.462C70.61,15.8,63.91,8.893,55.02,8.893z M55.02,17.062c3.84-0.026,6.983,3.247,6.983,7.293
	c0,4.02-3.144,7.293-6.983,7.293s-6.983-3.273-6.983-7.293C48.036,20.309,51.18,17.062,55.02,17.062z"/>
<path fill="#777777" d="M99.505,34.404c0,2.989-2.422,5.412-5.412,5.412s-5.412-2.422-5.412-5.412c0-2.989,2.422-5.412,5.412-5.412
	S99.505,31.415,99.505,34.404z"/>
<path fill="#777777" d="M83.752,38.786h-8.504V0.39h8.504V38.786z"/>
<path fill="#777777" d="M23.968,0.39h-7.988L0.518,38.786h10.823l1.804-5.411h13.4l1.804,5.411h10.823L23.968,0.39z M15.979,25.386
	l3.994-12.885l3.994,12.885H15.979z"/>
</svg>
