



<svg viewBox="0 -100 1000 500">
    <g inkscape:label="Layer 1" inkscape:groupmode="layer" id="layer1" transform="translate(312,-795.66903)">
        <path style="fill:#008373;fill-opacity:1;stroke:none" d="m -311.5,796.16903 80.6273,28.36401 0,283.80836 113.56729,-65.5599 -55.67962,-26.1246 -35.12739,-87.43067 178.939297,62.86452 0,91.39515 -201.653597,116.3102 -80.67328,-44.875 z" id="path2998" inkscape:connector-curvature="0" sodipodi:nodetypes="ccccccccccc"/>
        <g transform="matrix(8.653063,0,0,8.653063,-2616.6875,-11921.907)" style="font-size:40px;font-style:normal;font-weight:normal;line-height:125%;letter-spacing:0px;word-spacing:0px;fill:#008373;fill-opacity:1;stroke:none;font-family:Sans" id="flowRoot3000">
        <path d="m 313.01562,1507.0953 0,-28.0078 7.96875,0 c 2.42187,10e-5 4.34244,0.5925 5.76172,1.7774 1.41926,1.1849 2.12889,2.7279 2.12891,4.6289 -2e-5,1.5885 -0.42971,2.9688 -1.28906,4.1406 -0.85939,1.1719 -2.04429,2.0052 -3.55469,2.5 l 0,0.078 c 1.888,0.2214 3.39842,0.9343 4.53125,2.1387 1.13279,1.2044 1.6992,2.7702 1.69922,4.6973 -2e-5,2.3958 -0.8594,4.3359 -2.57813,5.8203 -1.71876,1.4844 -3.88673,2.2265 -6.5039,2.2265 z m 3.28125,-25.039 0,9.043 3.35938,0 c 1.79686,0 3.20962,-0.433 4.23828,-1.2989 1.02863,-0.8658 1.54295,-2.0865 1.54297,-3.6621 -2e-5,-2.7213 -1.79038,-4.082 -5.37109,-4.082 z m 0,11.9922 0,10.0781 4.45313,0 c 1.92707,0 3.42121,-0.4557 4.48242,-1.3672 1.06118,-0.9114 1.59178,-2.1614 1.5918,-3.75 -2e-5,-3.3073 -2.25262,-4.9609 -6.75781,-4.9609 z" style="font-variant:normal;font-stretch:normal;fill:#008373;fill-opacity:1;stroke:none;font-family:Segoe UI;-inkscape-font-specification:Segoe UI" id="path3009" inkscape:connector-curvature="0"/>
        <path d="m 336.08002,1482.6479 c -0.57292,0 -1.0612,-0.1953 -1.46484,-0.5859 -0.40365,-0.3906 -0.60547,-0.8854 -0.60547,-1.4844 0,-0.5989 0.20182,-1.097 0.60547,-1.4941 0.40364,-0.3971 0.89192,-0.5957 1.46484,-0.5957 0.58593,0 1.08398,0.1986 1.49414,0.5957 0.41015,0.3971 0.61523,0.8952 0.61524,1.4941 -10e-6,0.573 -0.20509,1.0612 -0.61524,1.4649 -0.41016,0.4036 -0.90821,0.6054 -1.49414,0.6054 z m 1.5625,24.4474 -3.20312,0 0,-19.8474 3.20312,0 z" style="font-variant:normal;font-stretch:normal;fill:#008373;fill-opacity:1;stroke:none;font-family:Segoe UI;-inkscape-font-specification:Segoe UI" id="path3011" inkscape:connector-curvature="0" sodipodi:nodetypes="ssssssccsccccc"/>
        <path d="m 359.4053,1507.0953 -3.20313,0 0,-11.2601 c 0,-4.2448 -1.42999,-6.3672 -4.52893,-6.3672 -1.60158,0 -2.92644,0.6022 -3.97461,1.8066 -1.04819,1.2045 -1.57227,2.7247 -1.57227,4.5606 l 0,11.2601 -3.20312,0 0,-19.8473 3.20312,0 0,3.2522 0.0781,0 c 1.51041,-2.5261 3.6629,-3.7275 6.443,-3.7275 2.18748,0 3.86066,0.7064 5.01953,2.1191 1.15883,1.4128 1.73828,3.4538 1.73828,6.1231 z" style="font-variant:normal;font-stretch:normal;fill:#008373;fill-opacity:1;stroke:none;font-family:Segoe UI;-inkscape-font-specification:Segoe UI" id="path3013" inkscape:connector-curvature="0" sodipodi:nodetypes="ccsscsccccccscsc"/>
        <path d="m 381.85178,1505.4046 c 0,7.3437 -3.51564,11.0156 -10.54688,11.0156 -2.47396,0 -4.51337,-0.4405 -6.36232,-1.378 l 0.84027,-2.7464 c 0,0 2.17127,1.4431 5.48299,1.4431 4.92186,0 7.38281,-2.5703 7.38281,-7.8046 l 0,-2.1654 -0.0781,0 c -1.52345,2.5521 -3.66907,3.7952 -6.72895,3.7952 -2.48699,0 -4.48894,-0.7493 -6.00586,-2.5266 -1.51693,-1.7774 -2.27539,-4.1634 -2.27539,-7.1582 0,-3.3984 0.81705,-6.1003 2.45117,-8.1055 1.63411,-2.0052 3.87044,-3.0078 6.70899,-3.0078 2.6953,0 4.54794,1.0807 5.85004,3.2422 l 0.0781,0 0,-2.7602 3.20313,0 z m -3.20313,-7.3522 0,-2.7899 c 0,-1.5886 -0.53712,-2.9492 -1.61132,-4.0821 -1.07424,-1.1328 -2.31919,-1.6992 -3.92074,-1.6992 -1.97917,0 -3.52865,0.7194 -4.64843,2.1582 -1.1198,1.4388 -1.6797,3.4538 -1.67969,6.0449 -1e-5,2.2266 0.5371,3.8479 1.61133,5.1825 1.07421,1.3347 2.49673,2.002 4.26758,2.002 1.79686,0 3.16551,-0.638 4.29182,-1.9141 1.12629,-1.276 1.68945,-2.9101 1.68945,-4.9023 z" style="font-variant:normal;font-stretch:normal;fill:#008373;fill-opacity:1;stroke:none;font-family:Segoe UI;-inkscape-font-specification:Segoe UI" id="path3015" inkscape:connector-curvature="0" sodipodi:nodetypes="ssccssccscsssccccssscssscscs"/>
        </g>
    </g>
</svg>