<svg xmlns="http://www.w3.org/2000/svg" version="1.1" x="0" y="0" width="1440" height="934" viewBox="0 0 2880 1803.9" preserveAspectRatio="xMidYMid meet">
	<style type="text/css">
		.st0{fill:#F3B5DD;}
		.st1{fill:none;stroke:#F46D78;stroke-width:6;stroke-linecap:round;stroke-linejoin:round;stroke-miterlimit:10;}
		.st2{fill:#B4E4ED;}
		.st3{fill:url(#SVGID_1_);}
		.st4{fill:#FFFFFF;}
		.st5{opacity:0.52;}
		.st6{opacity:0.55;}
		.st7{fill:url(#SVGID_2_);}
		.st8{fill:url(#SVGID_3_);}
		.st9{fill:#295071;}
		.st10{fill:url(#SVGID_4_);}
		.st11{fill:#F5D1C4;}
		.st12{fill:url(#SVGID_5_);}
		.st13{fill:#A52A35;}
		.st14{fill:#DE9285;}
		.st15{fill:#112627;}
		.st16{fill:url(#SVGID_6_);}
		.st17{fill:#FD9F9B;}
		.st18{fill:none;stroke:#F46D78;stroke-width:6;stroke-linecap:round;stroke-miterlimit:10;}
		.st19{fill:none;stroke:#4182B5;stroke-width:4;stroke-linecap:round;stroke-miterlimit:10;}
		.st20{fill:none;}
		.st21{fill:#FAE69A;}
		.st22{fill:#689278;}
		.st23{fill:#FF5B45;}
		.st24{fill:#0B230D;}
		.st25{fill:#F46D78;}
		.st26{fill:#F1E993;}
		.st27{fill:#00838A;}
		.st28{fill:#014B6B;}
		.st29{opacity:0.5;}
		.st30{fill:#C7F0EF;}
		.st31{opacity:0.45;}
		.st32{fill:#5793C0;}
		.st33{fill:url(#SVGID_7_);}
		.st34{fill:url(#SVGID_8_);}
		.st35{fill:url(#SVGID_9_);}
		.st36{opacity:0.65;fill:#C7F0EF;}
		.st37{fill:url(#SVGID_10_);}
		.st38{fill:url(#SVGID_11_);}
		.st39{opacity:0.75;}
		.st40{fill:#FAE7F4;}
		.st41{opacity:0.12;fill:#F5D1C4;}
		.st42{opacity:0.15;fill:#F5D1C4;}
		.st43{opacity:8.000000e-02;fill:#F5D1C4;}
		.st44{opacity:0.15;fill:#FFF4F0;}
		.st45{fill:#152669;}
		.st46{opacity:0.85;}
		.st47{fill:none;stroke:#FFFFFF;stroke-width:2;stroke-linecap:round;stroke-miterlimit:10;}
		.st48{fill:url(#SVGID_12_);}
		.st49{opacity:0.12;}
		.st50{fill:#F880B8;}
		.st51{opacity:3.000000e-02;}
		.st52{opacity:0.2;}
		.st53{fill:url(#SVGID_13_);}
		.st54{fill:url(#SVGID_14_);}
		.st55{fill:#1E3796;}
		.st56{fill:url(#SVGID_15_);}
		.st57{fill:url(#SVGID_16_);}
		.st58{fill:#E4D5DF;}
		.st59{fill:url(#SVGID_17_);}
		.st60{fill:#2F3BFF;}
		.st61{fill:#73FADE;}
		.st62{fill:#5B2AB4;}
		.st63{fill:#B87098;}
		.st64{fill:#012E42;}
		.st65{opacity:0.4;}
		.st66{opacity:0.8;fill:url(#auroraGradient);}
		.st67{fill:url(#SVGID_19_);}
		.st68{fill:url(#SVGID_20_);}
		.st69{fill:url(#SVGID_21_);}
		.st70{fill:#46A9DE;}
		.st71{fill:url(#SVGID_22_);}
		.st72{fill:url(#SVGID_23_);}
		.st73{fill:#737BFF;}
		.st74{fill:#2E56CD;}
		.st75{opacity:0.1;}
		.st76{fill:#FA3924;}
		.st77{fill:#EC8930;stroke:#EAB67C;stroke-width:3;stroke-linecap:round;stroke-linejoin:round;stroke-miterlimit:10;}
		.st78{fill:url(#SVGID_24_);}
		.st79{fill:url(#SVGID_25_);}
		.st80{fill:url(#SVGID_26_);}
		.st81{fill:url(#SVGID_27_);}
		.st82{fill:url(#SVGID_28_);}
		.st83{fill:url(#SVGID_29_);}
		.st84{fill:url(#SVGID_30_);}
		.st85{fill:url(#SVGID_31_);}
		.st86{fill:url(#SVGID_32_);}
		.st87{fill:url(#SVGID_33_);}
		.st88{fill:url(#SVGID_34_);}
		.st89{fill:url(#SVGID_35_);}
		.st90{fill:url(#SVGID_36_);}
		.st91{fill:url(#SVGID_37_);}
		.st92{fill:url(#SVGID_38_);}
		.st93{fill:url(#SVGID_39_);}
		.st94{fill:url(#SVGID_40_);}
		.st95{opacity:0.8;fill:url(#SVGID_41_);}
		.st96{fill:url(#SVGID_42_);}
		.st97{fill:url(#SVGID_43_);}
		.st98{fill:url(#SVGID_44_);}
		.st99{fill:url(#SVGID_45_);}
		.st100{fill:url(#SVGID_46_);}
	</style>
	<defs>
	<filter id="liquid">
		<feGaussianBlur in="SourceGraphic" stdDeviation="7" result="blur"></feGaussianBlur>
		<feColorMatrix in="blur" mode="matrix" values="1 0 0 0 0  0 1 0 0 0  0 0 1 0 0  0 0 0 19 -9" result="goo"></feColorMatrix>
		<feComposite in="SourceGraphic" in2="liquid" operator="atop"></feComposite>
	</filter>
		<symbol id="RoundTree" viewBox="-51.5 -88.2 103 176.5">
			<circle class="st0" cx="0" cy="36.8" r="51.5"></circle>
			<g>
				<line class="st1" x1="0" y1="64.8" x2="0" y2="-85.2"></line>
				<line class="st1" x1="-32" y1="35.8" x2="0" y2="9.1"></line>
				<line class="st1" x1="0" y1="34.8" x2="21" y2="54.8"></line>
			</g>
		</symbol>
	</defs>
	
	<g id="DayGroup">
		<g>
		<g>
		<rect y="3.9" class="st2" width="2880" height="1800"></rect>
			<linearGradient id="SVGID_1_" gradientUnits="userSpaceOnUse" x1="1440" y1="1016.9138" x2="1440" y2="566.9138">
				<stop offset="8.862180e-02" style="stop-color:#FFECE6;stop-opacity:0.5"></stop>
				<stop offset="1" style="stop-color:#F5D1C4;stop-opacity:0"></stop>
			</linearGradient>
			<rect y="566.9" class="st3" width="2880" height="450"></rect>
		</g>
			
			<g class="backClouds">
				<g>
					<path class="st4" d="M2624.1,722c-19,33.7-42.7,64.6-70.6,91.4c-0.2,0.2-0.3,0.3-0.5,0.5c-14.9,14.3-29.7,27.7-44.2,40.1
						c-11.9,10.2-9.5,29.2,4.6,36.1c12.5,6.1,25.2,15.7,32.3,30.3c5.7,11.7,6.9,24.4,7.3,29.5c0.3,3.7,2.8,30.6-7,47
						c-13.9,23.2-69.6,25-75,25c-156.6-0.4-338.3-4.8-347-5c0-11.4,0.6-27.7,3-47c3.4-27,8.6-68.6,33-114c6-11.2,38.5-69.8,77.8-86.3
						c11.1-4.6,22.1-9.1,33.2-13.7c13.7,3.2,32,5.1,44-5c9.5-8,7.1-16.8,17-42c10.9-27.7,18.3-40,31-49c20.3-14.4,32.5-5.1,44-20
						c6.9-8.9,8.4-19.9,23-34.3c2.1-2.1,3.4-3.3,5.4-5c12.7-10.2,30.4-15.5,45.6-9.5c8.5,3.4,14.9,9.6,19.8,17.1
						c9.2,14.1,28.6,16.8,41.1,5.6c10.4-9.4,22.2-17.1,35.2-22.3c27.7-11.1,61.7-9.2,84.5,10.7c3.4,3,6.1,6.7,7.8,10.9
						c0.9,3.4,2.1,8.7,2.5,15.2C2673.4,654.7,2655.8,665.6,2624.1,722z"></path>
				</g>
				<g>
					<path class="st4" d="M479.4,856.6c0.7,61.5-29.6,122.6-78.9,159.3H0V916c20.6-10.2,43.2-15.8,65-14.4
						c18.2,1.2,34.7-11.1,38.5-28.9c3.2-14.7,10.1-28.4,21-38.8c9.5-9.1,22.2-15,35.2-17c28.2-4.3,51.8-23.6,61.8-50.2
						c14.6-39,33.4-76.4,56-111.4c24.9-38.7,63.1-78.2,108.8-72.3c5.9,0.8,11.9,2.3,17.8,1.1c6.3-1.3,11.5-5.7,16.6-9.5
						c16.4-12.3,40.8-27,62.7-30.4c8.9-1.4,25.7-4,37.6,5.9c9.8,8.2,11.5,21,12.2,26.4c6,46-87.1,152.2-94.8,161
						c-8.1,13.4-5.1,30.9,7.3,40.3C467.7,794.3,479.1,827.3,479.4,856.6z"></path>
				</g>
				<g>
					<path class="st4" d="M1430.1,1065.6c0-89.5,69.8-251,75.1-263.1c50.4-116.5,62.1-124.3,80.1-143.4
						c28.1-29.8,70.2-50.1,109.7-47.6c18.2,1.2,34.7-11.1,38.5-28.9c3.2-14.7,10.1-28.4,20.9-38.8c9.5-9.2,22.1-15,35.2-17
						c28.2-4.3,51.8-23.6,61.8-50.2c14.6-39,33.4-76.4,56-111.4c24.9-38.7,63.1-78.2,108.8-72.3c5.9,0.8,11.9,2.3,17.8,1.1
						c6.3-1.3,11.5-5.7,16.6-9.5c16.4-12.3,40.8-27,62.7-30.4c8.9-1.4,25.7-3.9,37.6,5.9c9.8,8.2,11.5,21,12.2,26.4
						c6,46-87.1,152.2-94.8,161c-8.1,13.4-5.1,30.9,7.3,40.3c22,16.6,33.4,49.6,33.7,78.9c0.7,62-30.1,123.5-80,160.2
						c-19.5,14.3-43.5,27.3-50,50.7c-2.6,9.4-2,19.4-1.6,29.2c4,104.5-30.1,210-94.6,292.3c-4.7,6-9.8,12.1-16.6,15.6
						c-5.4,2.8-11.5,3.8-17.4,4.8c-33.7,5.5-67.3,10.9-101,16.4c-38.8,6.3-77.9,12.6-117.2,12.3c-64.1-0.5-48.7-11.9-140.9-20.4
						c-12.5-1.1-32.3-2.7-45.9-17.3C1431.4,1096.7,1430.1,1078.1,1430.1,1065.6z"></path>
				</g>
				<g>
					<path class="st4" d="M1245.7,957c-22.1,25.1-43.1,45-64.6,60.9H659c-0.4-0.7-0.7-1.3-1-2c-10.3-21-8-46.8-5.7-74
						c4-46.4,20.1-80,29.1-94.1c36.1-56.4,87.1-104.7,149.2-130c42.1-17.2,89.5-22.9,134-14.8c33.8,6.1,67-13.1,79.5-45
						c16.2-41.4,44.6-90,91.8-108.9c16.1-6.5,47.2-18.9,77.7-4.7c8.2,3.9,14.9,9,20.3,14.3c10.7,10.6,26.9,13.4,40.6,6.9
						c12.4-5.9,27.9-11.4,46.1-14.4c19.6-3.2,57.6-9.4,76.4,5.2C1449.4,597.1,1371.4,814.3,1245.7,957z"></path>
				</g>
			</g>
			<g class="Reflection">
				<g class="st5">
					<g>
						<path class="st4" d="M2624.1,1311.9c-19-33.7-42.7-64.6-70.6-91.4c-0.2-0.2-0.3-0.3-0.5-0.5c-14.9-14.3-29.7-27.7-44.2-40.1
							c-11.9-10.2-9.5-29.2,4.6-36.1c12.5-6.1,25.2-15.7,32.3-30.3c5.7-11.7,6.9-24.4,7.3-29.5c0.3-3.7,2.8-30.6-7-47
							c-13.9-23.2-69.6-25-75-25c-156.6,0.4-338.3,4.8-347,5c0,11.4,0.6,27.7,3,47c3.4,27,8.6,68.6,33,114
							c6,11.2,38.5,69.8,77.8,86.3c11.1,4.6,22.1,9.1,33.2,13.7c13.7-3.2,32-5.1,44,5c9.5,8,7.1,16.8,17,42c10.9,27.7,18.3,40,31,49
							c20.3,14.4,32.5,5.1,44,20c6.9,8.9,8.4,19.9,23,34.3c2.1,2.1,3.4,3.3,5.4,5c12.7,10.2,30.4,15.5,45.6,9.5
							c8.5-3.4,14.9-9.6,19.8-17.1c9.2-14.1,28.6-16.8,41.1-5.6c10.4,9.4,22.2,17.1,35.2,22.3c27.7,11.1,61.7,9.2,84.5-10.7
							c3.4-3,6.1-6.7,7.8-10.9c0.9-3.4,2.1-8.7,2.5-15.2C2673.4,1379.2,2655.8,1368.3,2624.1,1311.9z"></path>
					</g>
					<g>
						<path class="st4" d="M479.4,1177.3c0.7-61.5-29.6-122.6-78.9-159.3H0v100c20.6,10.2,43.2,15.8,65,14.4
							c18.2-1.2,34.7,11.1,38.5,28.9c3.2,14.7,10.1,28.4,21,38.8c9.5,9.2,22.2,15,35.2,17c28.2,4.3,51.8,23.6,61.8,50.2
							c14.6,39,33.4,76.4,56,111.4c24.9,38.7,63.1,78.2,108.8,72.3c5.9-0.8,11.9-2.3,17.8-1.1c6.3,1.3,11.5,5.7,16.6,9.5
							c16.4,12.3,40.8,27,62.7,30.4c8.9,1.4,25.7,3.9,37.6-5.9c9.8-8.2,11.5-21,12.2-26.4c6-46-87.1-152.2-94.8-161
							c-8.1-13.3-5.1-30.9,7.3-40.3C467.7,1239.6,479.1,1206.6,479.4,1177.3z"></path>
					</g>
					<g>
						<path class="st4" d="M1430.1,968.3c0,89.5,69.8,251,75.1,263.1c50.4,116.5,62.1,124.3,80.1,143.4
							c28.1,29.8,70.2,50.1,109.7,47.6c18.2-1.2,34.7,11.1,38.5,28.9c3.2,14.7,10.1,28.4,20.9,38.8c9.5,9.2,22.1,15,35.2,17
							c28.2,4.3,51.8,23.6,61.8,50.2c14.6,39,33.4,76.4,56,111.4c24.9,38.7,63.1,78.2,108.8,72.3c5.9-0.8,11.9-2.3,17.8-1.1
							c6.3,1.3,11.5,5.7,16.6,9.5c16.4,12.3,40.8,27,62.7,30.4c8.9,1.4,25.7,3.9,37.6-5.9c9.8-8.2,11.5-21,12.2-26.4
							c6-46-87.1-152.2-94.8-161c-8.1-13.4-5.1-30.9,7.3-40.3c22-16.6,33.4-49.6,33.7-78.9c0.7-62-30.1-123.5-80-160.2
							c-19.5-14.3-43.5-27.3-50-50.7c-2.6-9.4-2-19.4-1.6-29.2c4-104.5-30.1-210-94.6-292.3c-4.7-6-9.8-12.1-16.6-15.6
							c-5.4-2.8-11.5-3.8-17.4-4.8c-33.7-5.5-67.3-10.9-101-16.4c-38.8-6.3-77.9-12.6-117.2-12.3c-64.1,0.5-48.7,11.9-140.9,20.4
							c-12.5,1.1-32.3,2.7-45.9,17.3C1431.4,937.2,1430.1,955.8,1430.1,968.3z"></path>
					</g>
					<g>
						<path class="st4" d="M1245.7,1076.9c-22.1-25.1-43.1-45-64.6-60.9H659c-0.4,0.7-0.7,1.3-1,2c-10.3,21-8,46.8-5.7,74
							c4,46.4,20.1,80,29.1,94.1c36.1,56.4,87.1,104.7,149.2,130c42.1,17.2,89.5,22.9,134,14.8c33.8-6.1,67,13.1,79.5,45
							c16.2,41.4,44.6,90,91.8,108.9c16.1,6.5,47.2,18.9,77.7,4.7c8.2-3.8,14.9-9,20.3-14.3c10.7-10.6,26.9-13.4,40.6-6.9
							c12.4,5.9,27.9,11.4,46.1,14.4c19.6,3.2,57.6,9.4,76.4-5.2C1449.4,1436.8,1371.4,1219.6,1245.7,1076.9z"></path>
					</g>
				</g>
				<g class="st6">
					<g>
						
							<linearGradient id="SVGID_2_" gradientUnits="userSpaceOnUse" x1="1056" y1="895.9138" x2="1056" y2="512.552" gradientTransform="matrix(1 0 0 -1 0 1933.901)">
							<stop offset="0" style="stop-color:#295071"></stop>
							<stop offset="1" style="stop-color:#41A0B5"></stop>
						</linearGradient>
						<path class="st7" d="M1240,1038c-30.3,116.9-49.4,205.9-62,270c-7,35.5-14.8,78.2-49.5,99.3c-33.5,20.4-84.8,18.9-112.6-6.7
							c-33.5-30.9-48.6-67-60.2-108.5c-16.3-58.3-42.1-141.1-83.7-245.1C994.7,1044,1117.3,1041,1240,1038z"></path>
					</g>
					<g>
						
							<linearGradient id="SVGID_3_" gradientUnits="userSpaceOnUse" x1="1864" y1="889.8724" x2="1864" y2="504.552" gradientTransform="matrix(1 0 0 -1 0 1933.901)">
							<stop offset="0" style="stop-color:#295071"></stop>
							<stop offset="1" style="stop-color:#41A0B5"></stop>
						</linearGradient>
						<path class="st8" d="M2048,1047c-30.3,116.9-49.4,204.9-62,269c-7,35.5-14.8,78.2-49.5,99.3c-33.5,20.4-84.8,18.9-112.6-6.7
							c-33.5-30.9-48.6-67-60.2-108.5c-16.3-58.3-42.1-151.1-83.7-255.1C1802.7,1042,1923,1047,2048,1047z"></path>
					</g>
					<polygon class="st9" points="2014.2,1048 1802,976 1540,892 1239,906 1105.8,966.2 1012,1008.6 924.8,1048 1212.6,1476.7 
						1288.2,1589.3 1294,1598 1360.6,1509.5 1367,1501 1381.7,1506.9 1398.1,1513.5 1449,1534 1539.4,1456.2 				"></polygon>
					<g>
						
							<linearGradient id="SVGID_4_" gradientUnits="userSpaceOnUse" x1="1513.085" y1="1041.9138" x2="1513.085" y2="335.9138" gradientTransform="matrix(1 0 0 -1 0 1933.901)">
							<stop offset="0" style="stop-color:#4182B5"></stop>
							<stop offset="1" style="stop-color:#41A0B5"></stop>
						</linearGradient>
						<path class="st10" d="M2014.2,1047L1802,976l-262-84l-301,14l-133.2,60.2l-93.9,42.4c66.2,79,187,79.3,277.6,128.8
							c16.2,8.9,33.3,22.5,33.3,41c-0.1,29.9-41.8,41.3-53.8,68.7c-11.6,26.4,9.6,57,35.6,69.4c26,12.4,55.9,13.2,83.6,21.2
							c27.7,7.9,56.1,27.6,58.5,56.3c2.5,29.7-23.9,54-51,66.5c-27,12.5-57.6,18.9-80.5,37.9c-25.9,21.6-34.7,58.5-27,91.1l5.8,8.7
							l66.6-88.5l6.4-8.5l82,33L2014.2,1047z"></path>
					</g>
					<polygon class="st11" points="1125.8,957.1 1239,904 1540,892 1944,1021 1861,1011 1573,964 1188,964 1066.6,983.9 				"></polygon>
					
						<linearGradient id="SVGID_5_" gradientUnits="userSpaceOnUse" x1="1240" y1="560.9138" x2="1240" y2="460.2458" gradientTransform="matrix(1 0 0 -1 0 1933.901)">
						<stop offset="0" style="stop-color:#295071"></stop>
						<stop offset="1" style="stop-color:#41A0B5"></stop>
					</linearGradient>
					<path class="st12" d="M1334.1,1374.6c-7.9,0-15.8-0.1-23.6-0.2c-2.3,0-4.7-0.1-7-0.1h-62c-0.4,1.4-0.7,2.8-1.1,4.1
						c-0.5-1.4-1.1-2.8-1.6-4.1c0-0.1-0.1-0.2-0.1-0.3c-31.4-0.1-61.8-1.5-92.7-0.8c10.8,27,17.5,51.1,21.7,66.2
						c3,10.8,6.9,20.1,15.6,28.2c7.2,6.7,20.5,7,29.2,1.7c9-5.5,11.1-16.6,12.9-25.8c0.8-4.2,1.8-8.8,2.8-13.8
						c1.5-6.9,7.5-11.8,14.6-11.8h0c6.6,0,12.5,4.4,14.3,10.8c1.2,4.2,2.3,8,3.2,11.3c3,10.8,6.9,20.1,15.6,28.2
						c7.2,6.7,20.5,7,29.2,1.7c9-5.5,11.1-16.6,12.9-25.8C1321.2,1427.6,1326.2,1405,1334.1,1374.6z"></path>
					<g>
						<path class="st13" d="M1515.3,1232.7l68.2,0c4.8,0,8.2,6.1,7,12.2c-3.7,17.6-8.6,37.2-15.2,58.1c-6.4,20.1-13.3,37.9-20.1,53.2
							c-2.8,6.4-9.7,6.4-12.5,0c-6.8-15.8-13.8-34.1-20.2-54.9c-6.2-20.3-10.8-39.4-14.1-56.6
							C1507.1,1238.6,1510.6,1232.7,1515.3,1232.7z"></path>
						<circle class="st14" cx="1550.1" cy="1288" r="5"></circle>
						<circle class="st14" cx="1552.7" cy="1265.4" r="5"></circle>
						<circle class="st14" cx="1566.5" cy="1275.4" r="5"></circle>
						<circle class="st14" cx="1566.5" cy="1251.5" r="5"></circle>
						<circle class="st14" cx="1528.8" cy="1269.1" r="5"></circle>
						<rect x="1538.8" y="1166" class="st15" width="18.9" height="66.7"></rect>
					</g>
					<g>
						
							<linearGradient id="SVGID_6_" gradientUnits="userSpaceOnUse" x1="1703.8744" y1="970.9138" x2="1703.8744" y2="732.3593" gradientTransform="matrix(1 0 0 -1 0 1933.901)">
							<stop offset="0" style="stop-color:#295071"></stop>
							<stop offset="1" style="stop-color:#41A0B5"></stop>
						</linearGradient>
						<path class="st16" d="M1487.9,963c-0.3,59.8-9,145.9,19.6,194.3c15.6,26.5,41.5,43.3,68.1,44.3s53.2-14.1,70-39.4
							c10.9-16.5,18.6-37.7,33.9-47.3c15.1-9.5,33.8-4.8,48.6,5.2s27.1,24.9,40.8,37.2c31.8,28.7,79,41.7,109.3,10.6
							c33.5-34.5,27.3-99.2,43.1-149.4"></path>
					</g>
					<g>
						<polygon class="st17 RCoralTriangle1" points="1167,1449 1149,1397 1193,1413 					" data-svg-origin="1171 1438.6" style="transform: matrix3d(0.997688, -0.0679668, 0, 0, 0.0679668, 0.997688, 0, 0, 0, 0, 1, 0, -95.0692, 82.9158, 0, 1); transform-origin: 0px 0px 0px;"></polygon>
						<polygon class="st17 RCoralTriangle2" points="1166,1403.2 1145,1364 1190,1364 					" data-svg-origin="1145 1364" style="transform: matrix3d(0.999122, 0.0418931, 0, 0, -0.0418931, 0.999122, 0, 0, 0, 0, 1, 0, 58.1474, -46.7701, 0, 1);"></polygon>
						<polygon class="st17 RCoralTriangle3" points="1167.5,1364 1138,1315 1196,1318 					" data-svg-origin="1167 1354.2" style="transform: matrix3d(0.997688, -0.0679668, 0, 0, 0.0679668, 0.997688, 0, 0, 0, 0, 1, 0, -89.3421, 82.4487, 0, 1); transform-origin: 0px 0px 0px;"></polygon>
						<g>
							<line class="st18" x1="1168" y1="1427" x2="1168" y2="1302"></line>
						</g>
					</g>
					
						<use class="treesPinkR" xmlns:xlink="http://www.w3.org/1999/xlink" xlink:href="#RoundTree" width="103" height="176.5" x="-51.5" y="-88.2" style="overflow: visible; transform: matrix3d(0.999722, 0.0235919, 0, 0, -0.0235919, 0.999722, 0, 0, 0, 0, 1, 0, 1064.49, 1135.72, 0, 1); transform-origin: 0px 0px 0px;" data-svg-origin="0 -85.19999694824219"></use>
					
						<use class="treesPinkR" xmlns:xlink="http://www.w3.org/1999/xlink" xlink:href="#RoundTree" width="103" height="176.5" x="-51.5" y="-88.2" style="overflow: visible; transform: matrix3d(1, 0.000765152, 0, 0, -0.000765152, 1, 0, 0, 0, 0, 1, 0, 1809.43, 1096.74, 0, 1); transform-origin: 0px 0px 0px;" data-svg-origin="0 -85.19999694824219"></use>
					<g>
						<polygon class="st17  RCoralTriangle1" points="1339,1666 1321,1614 1365,1630 					" data-svg-origin="1343 1655.6" style="transform: matrix3d(0.997688, -0.0679668, 0, 0, 0.0679668, 0.997688, 0, 0, 0, 0, 1, 0, -109.42, 95.1079, 0, 1); transform-origin: 0px 0px 0px;"></polygon>
						<polygon class="st17  RCoralTriangle2" points="1338,1620.2 1317,1581 1362,1581 					" data-svg-origin="1317 1581" style="transform: matrix3d(0.999122, 0.0418931, 0, 0, -0.0418931, 0.999122, 0, 0, 0, 0, 1, 0, 67.3892, -53.7852, 0, 1);"></polygon>
						<polygon class="st17 RCoralTriangle3" points="1339.5,1581 1310,1532 1368,1535 					" data-svg-origin="1339 1571.2" style="transform: matrix3d(0.997688, -0.0679668, 0, 0, 0.0679668, 0.997688, 0, 0, 0, 0, 1, 0, -103.693, 94.6408, 0, 1); transform-origin: 0px 0px 0px;"></polygon>
						<g>
							<line class="st18" x1="1340" y1="1644" x2="1340" y2="1468"></line>
						</g>
					</g>
					<g>
						<line class="st19" x1="1949" y1="1149.7" x2="1950.8" y2="1095.6"></line>
						<line class="st19" x1="1938.1" y1="1140.6" x2="1949" y2="1149.7"></line>
						<line class="st19" x1="1936.9" y1="1125.9" x2="1949.5" y2="1134.3"></line>
						<line class="st19" x1="1936" y1="1112.1" x2="1949.8" y2="1119.8"></line>
						<line class="st19" x1="1960.7" y1="1140.6" x2="1949.7" y2="1149.7"></line>
						<line class="st19" x1="1961.9" y1="1125.9" x2="1949.3" y2="1134.3"></line>
						<line class="st19" x1="1962.8" y1="1112.1" x2="1949" y2="1119.8"></line>
					</g>
					<g>
						<polygon class="st17 RCoralTriangle1" points="1646,1206 1628,1154 1672,1170 					" data-svg-origin="1650 1195.6" style="transform: matrix3d(0.997688, -0.0679668, 0, 0, 0.0679668, 0.997688, 0, 0, 0, 0, 1, 0, -77.4456, 114.91, 0, 1); transform-origin: 0px 0px 0px;"></polygon>
						<polygon class="st17 RCoralTriangle2" points="1645,1160.2 1624,1121 1669,1121 					" data-svg-origin="1624 1121" style="transform: matrix3d(0.999122, 0.0418931, 0, 0, -0.0418931, 0.999122, 0, 0, 0, 0, 1, 0, 48.3879, -67.0503, 0, 1);"></polygon>
						<polygon class="st17 RCoralTriangle3" points="1646.5,1121 1617,1072 1675,1075 					" data-svg-origin="1646 1111.2" style="transform: matrix3d(0.997688, -0.0679668, 0, 0, 0.0679668, 0.997688, 0, 0, 0, 0, 1, 0, -71.7185, 114.443, 0, 1); transform-origin: 0px 0px 0px;"></polygon>
						<g>
							<line class="st18" x1="1647" y1="1184" x2="1647" y2="1008"></line>
						</g>
					</g>
					
						<use class="treesPinkR" xmlns:xlink="http://www.w3.org/1999/xlink" xlink:href="#RoundTree" width="103" height="176.5" x="-51.5" y="-88.2" style="overflow: visible; transform: matrix3d(0.999674, -0.0255516, 0, 0, 0.0255516, 0.999674, 0, 0, 0, 0, 1, 0, 1484.68, 1376.71, 0, 1); transform-origin: 0px 0px 0px;" data-svg-origin="0 -85.19999694824219"></use>
					<g>
						<line class="st19" x1="1187" y1="1508.7" x2="1188.8" y2="1454.6"></line>
						<polyline class="st19" points="1176.1,1499.6 1187,1508.7 1198.1,1500.5 					"></polyline>
						<polyline class="st19" points="1174.9,1484.9 1187.5,1493.3 1201.8,1487.1 					"></polyline>
						<polyline class="st19" points="1174,1471.1 1188.8,1478.8 1202.5,1472.7 					"></polyline>
					</g>
					<g>
						<rect x="1229.1" y="1424" class="st17" width="10.4" height="76.5"></rect>
						<path class="st20" d="M1272.8,1511.2c-1.3-0.6-2.7-1-4.1-1.3L1272.8,1511.2z"></path>
						<path class="st20" d="M1283.6,1527.8c0-7.4-4.4-13.8-10.8-16.6h0l-4.1-1.3l-34.4-10.7l-36.4,10.6c-8.7,1.3-15.5,8.9-15.5,18
							c0,10,8.1,18.2,18.2,18.2c0.6,0,1.2,0,1.7-0.1c-0.3,1.3-0.4,2.6-0.4,4c0,10,8.1,18.2,18.2,18.2c5.4,0,10.3-2.4,13.6-6.2
							c3.3,3.8,8.2,6.2,13.6,6.2c10,0,18.2-8.1,18.2-18.2c0-1.3-0.1-2.6-0.4-3.9c0.1,0,0.3,0,0.4,0
							C1275.5,1545.9,1283.6,1537.8,1283.6,1527.8z"></path>
						<path class="st21" d="M1283.6,1527.8c0-7.4-4.4-13.8-10.8-16.6h0l-4.1-1.3l-34.4-10.7l-36.4,10.6c-8.7,1.3-15.5,8.9-15.5,18
							c0,10,8.1,18.2,18.2,18.2c0.6,0,1.2,0,1.7-0.1c-0.3,1.3-0.4,2.6-0.4,4c0,10,8.1,18.2,18.2,18.2c5.4,0,10.3-2.4,13.6-6.2
							c3.3,3.8,8.2,6.2,13.6,6.2c10,0,18.2-8.1,18.2-18.2c0-1.3-0.1-2.6-0.4-3.9c0.1,0,0.3,0,0.4,0
							C1275.5,1545.9,1283.6,1537.8,1283.6,1527.8z"></path>
						<path class="st22" d="M1266.4,1518.1c0-4.9-2.9-9.1-7.1-11h0l-2.7-0.8l-22.7-7.1l-24.1,7c-5.8,0.9-10.2,5.9-10.2,11.9
							c0,6.6,5.4,12,12,12c0.4,0,0.8,0,1.1-0.1c-0.2,0.8-0.3,1.7-0.3,2.6c0,6.6,5.4,12,12,12c3.6,0,6.8-1.6,9-4.1
							c2.2,2.5,5.4,4.1,9,4.1c6.6,0,12-5.4,12-12c0-0.9-0.1-1.7-0.3-2.6c0.1,0,0.2,0,0.3,0C1261,1530.1,1266.4,1524.7,1266.4,1518.1z
							"></path>
						<path class="st21" d="M1222,1514.1h24.6c-0.5-1.8-1.5-4.8-3.9-7.8c-3.3-4.1-7.2-5.8-9.1-6.5c-2.1,1.3-5,3.4-7.8,6.5
							C1223.3,1509.2,1223,1512,1222,1514.1z"></path>
					</g>
					<g>
						<path class="st13" d="M1410.3,1537.7l68.2,0c4.8,0,8.2,6.1,7,12.2c-3.7,17.6-8.6,37.2-15.2,58.1c-6.4,20.1-13.3,37.9-20.1,53.2
							c-2.8,6.4-9.7,6.4-12.5,0c-6.8-15.8-13.8-34.1-20.2-54.9c-6.2-20.3-10.8-39.4-14.1-56.6
							C1402.1,1543.6,1405.6,1537.7,1410.3,1537.7z"></path>
						<circle class="st14" cx="1445.1" cy="1593" r="5"></circle>
						<circle class="st14" cx="1447.7" cy="1570.4" r="5"></circle>
						<circle class="st14" cx="1461.5" cy="1580.4" r="5"></circle>
						<circle class="st14" cx="1461.5" cy="1556.5" r="5"></circle>
						<circle class="st14" cx="1423.8" cy="1574.1" r="5"></circle>
						<path class="st15" d="M1443.3,1471L1443.3,1471c-5.2,0-9.4,4.2-9.4,9.4v57.2h18.9v-57.2C1452.7,1475.2,1448.5,1471,1443.3,1471
							z"></path>
					</g>
					<g>
						<polygon class="st17 RCoralTriangle1" points="1369,1374 1351,1322 1395,1338 					" data-svg-origin="1373 1363.6" style="transform: matrix3d(0.997688, -0.0679668, 0, 0, 0.0679668, 0.997688, 0, 0, 0, 0, 1, 0, -89.5046, 96.4716, 0, 1); transform-origin: 0px 0px 0px;"></polygon>
						<polygon class="st17 RCoralTriangle2" points="1368,1328.2 1347,1289 1392,1289 					" data-svg-origin="1347 1289" style="transform: matrix3d(0.999122, 0.0418931, 0, 0, -0.0418931, 0.999122, 0, 0, 0, 0, 1, 0, 55.1827, -55.2984, 0, 1);"></polygon>
						<polygon class="st17 RCoralTriangle3" points="1369.5,1289 1340,1240 1398,1243 					" data-svg-origin="1369 1279.2" style="transform: matrix3d(0.997688, -0.0679668, 0, 0, 0.0679668, 0.997688, 0, 0, 0, 0, 1, 0, -83.7774, 96.0046, 0, 1); transform-origin: 0px 0px 0px;"></polygon>
						<g>
							<line class="st18" x1="1370" y1="1352" x2="1370" y2="1176"></line>
						</g>
					</g>
					<g class="treesOrangeR" data-svg-origin="1553.1500244140625 1419" style="transform: matrix3d(0.999939, -0.0110727, 0, 0, 0.0110727, 0.999939, 0, 0, 0, 0, 1, 0, -15.6169, 17.2846, 0, 1); transform-origin: 0px 0px 0px;">
						<path class="st23" d="M1553.2,1661.4c0-0.1-0.1-0.3-0.2-0.4"></path>
						<rect x="1550" y="1419" class="st24" width="6" height="55"></rect>
						<path class="st23" d="M1554.8,1569.5c5.5,5.5,8.8,6.2,10.8,5.5c2.4-0.8,2.6-3.3,6.4-5c1.2-0.5,4.4-2,7.7-0.5
							c3.3,1.6,4.2,5.2,4.2,5.5c0.8,4.2-2.2,7.6-2.8,8.3c-2.9,3.2-7.4,4.1-11.2,5.5c-1.3,0.5-5.5,2.2-9.6,5.9
							c-2.5,2.2-4.7,4.3-4.9,7.2c-0.1,2.1,0.9,19,0,19.8c-0.6,0.5-1.6,0.3-2.4,0.1c0-12.4,0-39.8,0-52.1H1554.8z"></path>
						<path class="st23" d="M1553,1574v-34c-0.1,1.2,0.1,2.1,1.3,2s2.3-0.9,3.4-1.6c3.7-2.3,8.6-3.6,12.2-1.3c1.2,0.8,1.2,1.3,2.8,2
							c0.5,0.2,2.8,1.3,5.3,0.8c2.7-0.5,2.6-2.3,6-4c1.4-0.7,4.3-2.2,7-1c2,0.9,2.9,2.8,3,3c1.9,4.3-2.5,9.4-3.2,10.2
							c-2.3,2.6-4.3,3.2-9.8,5.8c-3.4,1.6-10.1,4.7-15,8c-2.9,1.9-6.9,5.1-11,10.3L1553,1574z"></path>
						<path class="st23" d="M1555.3,1498.5c5.5,5.6,8.8,6.1,10.8,5.5c2.5-0.8,2.9-3.3,6.9-5c1.4-0.6,4.3-1.8,7.2-0.5
							c3.3,1.5,4.1,5.2,4.2,5.5c0.8,4.2-2.2,7.6-2.8,8.3c-1.8,2-3.3,2.4-11.2,5.5c-4.2,1.6-7.7,2.4-10.3,5.2c-3.1,3.4-3.8,7.8-4,9
							c-0.6,4.5-0.1,7.8-0.1,7.8c0.3,2.1,0.9,4,0,4.8c-0.6,0.5-1.6,0.3-2.4,0.1c0-12.4,0-33.8,0-46.1H1555.3z"></path>
						<path class="st23" d="M1575,1642C1575,1642,1575,1642,1575,1642c-0.4-1.6-1.5-3.2-3-4c-2.2-1.1-4.5-0.2-5,0
							c-2.9,1.2-3.1,3.6-5,4c-0.2,0-1.1,0.1-2-0.3c-1.6-0.8-1.5-2.5-3-3.7c-0.6-0.4-1.5-0.9-3-1l0,0c-2-0.1-3.2,0.5-4,1
							c-1.9,1.3-2,3.5-4,4c-0.8,0.2-1.5,0.1-1.7,0c-2.2-0.5-2.1-2.9-4.3-4c-0.3-0.1-3-1.4-5.7,0c-0.2,0.1-2.5,1.4-3,4
							c-0.6,3,1.6,5.5,2,6c1.7,1.9,2.9,1.6,8,4c3.9,1.8,6,3.3,7,4c3,2.2,4.2,3.9,4.7,5c0.1,0.1,0.1,0.3,0.2,0.4
							c0-0.1,0.1-0.3,0.2-0.4c0.5-1.2,1.6-2.8,4.7-5c1-0.7,3.1-2.2,7-4c5.1-2.4,6.3-2.1,8-4C1573.4,1647.5,1575.6,1645,1575,1642z"></path>
						<path class="st23" d="M1553.3,1661c-0.1,0.1-0.1,0.3-0.2,0.4"></path>
						<path class="st23" d="M1551.5,1569.5c-5.5,5.5-8.8,6.1-10.8,5.5c-2.5-0.8-2.8-3.3-6.7-5c-1.3-0.6-4.3-1.9-7.4-0.5
							c-3.3,1.5-4.2,5.2-4.2,5.5c-0.8,4.2,2.2,7.6,2.8,8.3c2.9,3.2,7.4,4.1,11.2,5.5c1.3,0.5,5.5,2.2,9.6,5.9
							c2.5,2.2,4.7,4.3,4.9,7.2c0.1,2.1-0.9,19,0,19.8c0.6,0.5,1.6,0.3,2.4,0.1c0-12.4,0-39.8,0-52.1H1551.5z"></path>
						<path class="st23" d="M1553.3,1574v-34c0.1,1.2-0.1,2.1-1.3,2s-2.3-0.9-3.4-1.6c-3.7-2.3-8.6-3.6-12.2-1.3
							c-1.2,0.8-1.2,1.3-2.8,2c-0.5,0.2-2.8,1.3-5.3,0.8c-2.7-0.5-2.6-2.3-6-4c-1.4-0.7-4.3-2.2-7-1c-2,0.9-2.9,2.8-3,3
							c-1.9,4.3,2.5,9.4,3.2,10.2c2.3,2.6,4.3,3.2,9.8,5.8c3.4,1.6,10.1,4.7,15,8c2.9,1.9,6.9,5.1,11,10.3L1553.3,1574z"></path>
						<path class="st23" d="M1551,1498.5c-5.5,5.5-8.8,6.2-10.8,5.5c-2.4-0.8-2.5-3.3-6.2-5c-1-0.5-4.5-2.1-7.9-0.5
							c-3.3,1.6-4.1,5.2-4.2,5.5c-0.8,4.2,2.2,7.6,2.8,8.3c1.6,1.8,2.9,2.3,11.2,5.5c3.8,1.5,7.2,2.3,10,5.2c0.8,0.9,3,3.3,4,7
							c0.4,1.4,1.1,5.2,0.4,9.8c-0.3,2.1-0.9,4,0,4.8c0.6,0.5,1.6,0.3,2.4,0.1c0-12.4,0-33.8,0-46.1H1551z"></path>
						<rect x="1551" y="1471" class="st23" width="4" height="177"></rect>
						<path class="st23" d="M1550.8,1611.5c-0.7,0.9-1.9,2.3-3.9,3.3c-1.5,0.8-3.3,1.7-5.1,1.3c-2.9-0.7-2.4-3.9-5.7-5.1
							c-3-1.1-5.9,0.4-6,0.5c-0.4,0.2-2.9,1.7-3.5,4.6c-0.7,3.5,1.8,6.4,2.4,6.9c2.4,2.7,6.2,3.4,9.4,4.6c1.1,0.4,4.6,1.8,8,4.9
							c2.1,1.9,4,3.6,4.1,6c0.1,1.8-0.8,3.3,0,4c0.5,0.4,1.3,0.3,2,0.1c0-10.4,0-20.7,0-31.1H1550.8z"></path>
						<path class="st23" d="M1555.5,1611.5c0.8,1,2.2,2.4,4.5,3.5c1.6,0.7,3,1.4,4.6,1.1c2.4-0.5,2.4-2.7,5.4-4.1
							c1.1-0.5,3.7-1.7,6.3-0.5c2.8,1.3,3.5,4.4,3.5,4.6c0.7,3.5-1.8,6.4-2.4,6.9c-2.4,2.7-6.2,3.4-9.4,4.6c-1.1,0.4-4.6,1.8-8,4.9
							c-2.1,1.9-4,3.6-4.1,6c-0.1,1.8,0.8,3.3,0,4c-0.5,0.4-1.3,0.3-2,0.1c0-10.4,0-20.7,0-31.1H1555.5z"></path>
						<path class="st23" d="M1550.8,1471.5c-0.7,0.9-1.9,2.3-3.9,3.3c-1.5,0.8-3.3,1.7-5.1,1.3c-2.9-0.7-2.4-3.9-5.7-5.1
							c-3-1.1-5.9,0.4-6,0.5c-0.4,0.2-2.9,1.7-3.5,4.6c-0.7,3.5,1.8,6.4,2.4,6.9c2.4,2.7,6.2,3.4,9.4,4.6c1.1,0.4,4.6,1.8,8,4.9
							c2.1,1.9,4,3.6,4.1,6c0.1,1.8-0.8,3.3,0,4c0.5,0.4,1.3,0.3,2,0.1c0-10.4,0-20.7,0-31.1H1550.8z"></path>
						<path class="st23" d="M1555.5,1471.5c0.8,1,2.2,2.4,4.5,3.5c1.6,0.7,3,1.4,4.6,1.1c2.4-0.5,2.4-2.7,5.4-4.1
							c1.1-0.5,3.7-1.7,6.3-0.5c2.8,1.3,3.5,4.4,3.5,4.6c0.7,3.5-1.8,6.4-2.4,6.9c-2.4,2.7-6.2,3.4-9.4,4.6c-1.1,0.4-4.6,1.8-8,4.9
							c-2.1,1.9-4,3.6-4.1,6c-0.1,1.8,0.8,3.3,0,4c-0.5,0.4-1.3,0.3-2,0.1c0-10.4,0-20.7,0-31.1H1555.5z"></path>
					</g>
					<g class="treesOrangeR" data-svg-origin="1044.1500549316406 1279" style="transform: matrix3d(0.999939, -0.0110727, 0, 0, 0.0110727, 0.999939, 0, 0, 0, 0, 1, 0, -14.098, 11.64, 0, 1); transform-origin: 0px 0px 0px;">
						<path class="st23" d="M1044.2,1521.4c0-0.1-0.1-0.3-0.2-0.4"></path>
						<rect x="1041" y="1279" class="st24" width="6" height="55"></rect>
						<path class="st23" d="M1045.8,1429.5c5.5,5.5,8.8,6.2,10.8,5.5c2.4-0.8,2.6-3.3,6.4-5c1.2-0.5,4.4-2,7.7-0.5
							c3.3,1.6,4.2,5.2,4.2,5.5c0.8,4.2-2.2,7.6-2.8,8.3c-2.9,3.2-7.4,4.1-11.2,5.5c-1.3,0.5-5.5,2.2-9.6,5.9
							c-2.5,2.2-4.7,4.3-4.9,7.2c-0.1,2.1,0.9,19,0,19.8c-0.6,0.5-1.6,0.3-2.4,0.1c0-12.4,0-39.8,0-52.1H1045.8z"></path>
						<path class="st23" d="M1044,1434v-34c-0.1,1.2,0.1,2.1,1.3,2s2.3-0.9,3.4-1.6c3.7-2.3,8.6-3.6,12.2-1.3c1.2,0.8,1.2,1.3,2.8,2
							c0.5,0.2,2.8,1.3,5.3,0.8c2.7-0.5,2.6-2.3,6-4c1.4-0.7,4.3-2.2,7-1c2,0.9,2.9,2.8,3,3c1.9,4.3-2.5,9.4-3.2,10.2
							c-2.3,2.6-4.3,3.2-9.8,5.8c-3.4,1.6-10.1,4.7-15,8c-2.9,1.9-6.9,5.1-11,10.3L1044,1434z"></path>
						<path class="st23" d="M1046.3,1358.5c5.5,5.6,8.8,6.1,10.8,5.5c2.5-0.8,2.9-3.3,6.9-5c1.4-0.6,4.3-1.8,7.2-0.5
							c3.3,1.5,4.1,5.2,4.2,5.5c0.8,4.2-2.2,7.6-2.8,8.3c-1.8,2-3.3,2.4-11.2,5.5c-4.2,1.6-7.7,2.4-10.3,5.2c-3.1,3.4-3.8,7.8-4,9
							c-0.6,4.5-0.1,7.8-0.1,7.8c0.3,2.1,0.9,4,0,4.8c-0.6,0.5-1.6,0.3-2.4,0.1c0-12.4,0-33.8,0-46.1H1046.3z"></path>
						<path class="st23" d="M1066,1502C1066,1502,1066,1502,1066,1502c-0.4-1.6-1.5-3.2-3-4c-2.2-1.1-4.5-0.2-5,0
							c-2.9,1.2-3.1,3.6-5,4c-0.2,0-1.1,0.1-2-0.3c-1.6-0.8-1.5-2.5-3-3.7c-0.6-0.4-1.5-0.9-3-1l0,0c-2-0.1-3.2,0.5-4,1
							c-1.9,1.3-2,3.5-4,4c-0.8,0.2-1.5,0.1-1.7,0c-2.2-0.5-2.1-2.9-4.3-4c-0.3-0.1-3-1.4-5.7,0c-0.2,0.1-2.5,1.4-3,4
							c-0.6,3,1.6,5.5,2,6c1.7,1.9,2.9,1.6,8,4c3.9,1.8,6,3.3,7,4c3,2.2,4.2,3.9,4.7,5c0.1,0.1,0.1,0.3,0.2,0.4
							c0-0.1,0.1-0.3,0.2-0.4c0.5-1.2,1.6-2.8,4.7-5c1-0.7,3.1-2.2,7-4c5.1-2.4,6.3-2.1,8-4C1064.4,1507.5,1066.6,1505,1066,1502z"></path>
						<path class="st23" d="M1044.3,1521c-0.1,0.1-0.1,0.3-0.2,0.4"></path>
						<path class="st23" d="M1042.5,1429.5c-5.5,5.5-8.8,6.1-10.8,5.5c-2.5-0.8-2.8-3.3-6.7-5c-1.3-0.6-4.3-1.9-7.4-0.5
							c-3.3,1.5-4.2,5.2-4.2,5.5c-0.8,4.2,2.2,7.6,2.8,8.3c2.9,3.2,7.4,4.1,11.2,5.5c1.3,0.5,5.5,2.2,9.6,5.9
							c2.5,2.2,4.7,4.3,4.9,7.2c0.1,2.1-0.9,19,0,19.8c0.6,0.5,1.6,0.3,2.4,0.1c0-12.4,0-39.8,0-52.1H1042.5z"></path>
						<path class="st23" d="M1044.3,1434v-34c0.1,1.2-0.1,2.1-1.3,2s-2.3-0.9-3.4-1.6c-3.7-2.3-8.6-3.6-12.2-1.3
							c-1.2,0.8-1.2,1.3-2.8,2c-0.5,0.2-2.8,1.3-5.3,0.8c-2.7-0.5-2.6-2.3-6-4c-1.4-0.7-4.3-2.2-7-1c-2,0.9-2.9,2.8-3,3
							c-1.9,4.3,2.5,9.4,3.2,10.2c2.3,2.6,4.3,3.2,9.8,5.8c3.4,1.6,10.1,4.7,15,8c2.9,1.9,6.9,5.1,11,10.3L1044.3,1434z"></path>
						<path class="st23" d="M1042,1358.5c-5.5,5.5-8.8,6.2-10.8,5.5c-2.4-0.8-2.5-3.3-6.2-5c-1-0.5-4.5-2.1-7.9-0.5
							c-3.3,1.6-4.1,5.2-4.2,5.5c-0.8,4.2,2.2,7.6,2.8,8.3c1.6,1.8,2.9,2.3,11.2,5.5c3.8,1.5,7.2,2.3,10,5.2c0.8,0.9,3,3.3,4,7
							c0.4,1.4,1.1,5.2,0.4,9.8c-0.3,2.1-0.9,4,0,4.8c0.6,0.5,1.6,0.3,2.4,0.1c0-12.4,0-33.8,0-46.1H1042z"></path>
						<rect x="1042" y="1331" class="st23" width="4" height="177"></rect>
						<path class="st23" d="M1041.8,1471.5c-0.7,0.9-1.9,2.3-3.9,3.3c-1.5,0.8-3.3,1.7-5.1,1.3c-2.9-0.7-2.4-3.9-5.7-5.1
							c-3-1.1-5.9,0.4-6,0.5c-0.4,0.2-2.9,1.7-3.5,4.6c-0.7,3.5,1.8,6.4,2.4,6.9c2.4,2.7,6.2,3.4,9.4,4.6c1.1,0.4,4.6,1.8,8,4.9
							c2.1,1.9,4,3.6,4.1,6c0.1,1.8-0.8,3.3,0,4c0.5,0.4,1.3,0.3,2,0.1c0-10.4,0-20.7,0-31.1H1041.8z"></path>
						<path class="st23" d="M1046.5,1471.5c0.8,1,2.2,2.4,4.5,3.5c1.6,0.7,3,1.4,4.6,1.1c2.4-0.5,2.4-2.7,5.4-4.1
							c1.1-0.5,3.7-1.7,6.3-0.5c2.8,1.3,3.5,4.4,3.5,4.6c0.7,3.5-1.8,6.4-2.4,6.9c-2.4,2.7-6.2,3.4-9.4,4.6c-1.1,0.4-4.6,1.8-8,4.9
							c-2.1,1.9-4,3.6-4.1,6c-0.1,1.8,0.8,3.3,0,4c-0.5,0.4-1.3,0.3-2,0.1c0-10.4,0-20.7,0-31.1H1046.5z"></path>
						<path class="st23" d="M1041.8,1331.5c-0.7,0.9-1.9,2.3-3.9,3.3c-1.5,0.8-3.3,1.7-5.1,1.3c-2.9-0.7-2.4-3.9-5.7-5.1
							c-3-1.1-5.9,0.4-6,0.5c-0.4,0.2-2.9,1.7-3.5,4.6c-0.7,3.5,1.8,6.4,2.4,6.9c2.4,2.7,6.2,3.4,9.4,4.6c1.1,0.4,4.6,1.8,8,4.9
							c2.1,1.9,4,3.6,4.1,6c0.1,1.8-0.8,3.3,0,4c0.5,0.4,1.3,0.3,2,0.1c0-10.4,0-20.7,0-31.1H1041.8z"></path>
						<path class="st23" d="M1046.5,1331.5c0.8,1,2.2,2.4,4.5,3.5c1.6,0.7,3,1.4,4.6,1.1c2.4-0.5,2.4-2.7,5.4-4.1
							c1.1-0.5,3.7-1.7,6.3-0.5c2.8,1.3,3.5,4.4,3.5,4.6c0.7,3.5-1.8,6.4-2.4,6.9c-2.4,2.7-6.2,3.4-9.4,4.6c-1.1,0.4-4.6,1.8-8,4.9
							c-2.1,1.9-4,3.6-4.1,6c-0.1,1.8,0.8,3.3,0,4c-0.5,0.4-1.3,0.3-2,0.1c0-10.4,0-20.7,0-31.1H1046.5z"></path>
					</g>
					<g class="treesOrangeR" data-svg-origin="1234.1500244140625 1008" style="transform: matrix3d(0.999939, -0.0110727, 0, 0, 0.0110727, 0.999939, 0, 0, 0, 0, 1, 0, -11.0856, 13.7272, 0, 1); transform-origin: 0px 0px 0px;">
						<path class="st23" d="M1234.2,1250.4c0-0.1-0.1-0.3-0.2-0.4"></path>
						<rect x="1231" y="1008" class="st24" width="6" height="55"></rect>
						<path class="st23" d="M1235.8,1158.5c5.5,5.5,8.8,6.2,10.8,5.5c2.4-0.8,2.6-3.3,6.4-5c1.2-0.5,4.4-2,7.7-0.5
							c3.3,1.6,4.2,5.2,4.2,5.5c0.8,4.2-2.2,7.6-2.8,8.3c-2.9,3.2-7.4,4.1-11.2,5.5c-1.3,0.5-5.5,2.2-9.6,5.9
							c-2.5,2.2-4.7,4.3-4.9,7.2c-0.1,2.1,0.9,19,0,19.8c-0.6,0.5-1.6,0.3-2.4,0.1c0-12.4,0-39.8,0-52.1H1235.8z"></path>
						<path class="st23" d="M1234,1163v-34c-0.1,1.2,0.1,2.1,1.3,2s2.3-0.9,3.4-1.6c3.7-2.3,8.6-3.6,12.2-1.3c1.2,0.8,1.2,1.3,2.8,2
							c0.5,0.2,2.8,1.3,5.3,0.8c2.7-0.5,2.6-2.3,6-4c1.4-0.7,4.3-2.2,7-1c2,0.9,2.9,2.8,3,3c1.9,4.3-2.5,9.4-3.2,10.2
							c-2.3,2.6-4.3,3.2-9.8,5.8c-3.4,1.6-10.1,4.7-15,8c-2.9,1.9-6.9,5.1-11,10.3L1234,1163z"></path>
						<path class="st23" d="M1236.3,1087.5c5.5,5.6,8.8,6.1,10.8,5.5c2.5-0.8,2.9-3.3,6.9-5c1.4-0.6,4.3-1.8,7.2-0.5
							c3.3,1.5,4.1,5.2,4.2,5.5c0.8,4.2-2.2,7.6-2.8,8.3c-1.8,2-3.3,2.4-11.2,5.5c-4.2,1.6-7.7,2.4-10.3,5.2c-3.1,3.4-3.8,7.8-4,9
							c-0.6,4.5-0.1,7.8-0.1,7.8c0.3,2.1,0.9,4,0,4.8c-0.6,0.5-1.6,0.3-2.4,0.1c0-12.4,0-33.8,0-46.1H1236.3z"></path>
						<path class="st23" d="M1256,1231C1256,1231,1256,1231,1256,1231c-0.4-1.6-1.5-3.2-3-4c-2.2-1.1-4.5-0.2-5,0
							c-2.9,1.2-3.1,3.6-5,4c-0.2,0-1.1,0.1-2-0.3c-1.6-0.8-1.5-2.5-3-3.7c-0.6-0.4-1.5-0.9-3-1l0,0c-2-0.1-3.2,0.5-4,1
							c-1.9,1.3-2,3.5-4,4c-0.8,0.2-1.5,0.1-1.7,0c-2.2-0.5-2.1-2.9-4.3-4c-0.3-0.1-3-1.4-5.7,0c-0.2,0.1-2.5,1.4-3,4
							c-0.6,3,1.6,5.5,2,6c1.7,1.9,2.9,1.6,8,4c3.9,1.8,6,3.3,7,4c3,2.2,4.2,3.9,4.7,5c0.1,0.1,0.1,0.3,0.2,0.4
							c0-0.1,0.1-0.3,0.2-0.4c0.5-1.2,1.6-2.8,4.7-5c1-0.7,3.1-2.2,7-4c5.1-2.4,6.3-2.1,8-4C1254.4,1236.5,1256.6,1234,1256,1231z"></path>
						<path class="st23" d="M1234.3,1250c-0.1,0.1-0.1,0.3-0.2,0.4"></path>
						<path class="st23" d="M1232.5,1158.5c-5.5,5.5-8.8,6.1-10.8,5.5c-2.5-0.8-2.8-3.3-6.7-5c-1.3-0.6-4.3-1.9-7.4-0.5
							c-3.3,1.5-4.2,5.2-4.2,5.5c-0.8,4.2,2.2,7.6,2.8,8.3c2.9,3.2,7.4,4.1,11.2,5.5c1.3,0.5,5.5,2.2,9.6,5.9
							c2.5,2.2,4.7,4.3,4.9,7.2c0.1,2.1-0.9,19,0,19.8c0.6,0.5,1.6,0.3,2.4,0.1c0-12.4,0-39.8,0-52.1H1232.5z"></path>
						<path class="st23" d="M1234.3,1163v-34c0.1,1.2-0.1,2.1-1.3,2s-2.3-0.9-3.4-1.6c-3.7-2.3-8.6-3.6-12.2-1.3
							c-1.2,0.8-1.2,1.3-2.8,2c-0.5,0.2-2.8,1.3-5.3,0.8c-2.7-0.5-2.6-2.3-6-4c-1.4-0.7-4.3-2.2-7-1c-2,0.9-2.9,2.8-3,3
							c-1.9,4.3,2.5,9.4,3.2,10.2c2.3,2.6,4.3,3.2,9.8,5.8c3.4,1.6,10.1,4.7,15,8c2.9,1.9,6.9,5.1,11,10.3L1234.3,1163z"></path>
						<path class="st23" d="M1232,1087.5c-5.5,5.5-8.8,6.2-10.8,5.5c-2.4-0.8-2.5-3.3-6.2-5c-1-0.5-4.5-2.1-7.9-0.5
							c-3.3,1.6-4.1,5.2-4.2,5.5c-0.8,4.2,2.2,7.6,2.8,8.3c1.6,1.8,2.9,2.3,11.2,5.5c3.8,1.5,7.2,2.3,10,5.2c0.8,0.9,3,3.3,4,7
							c0.4,1.4,1.1,5.2,0.4,9.8c-0.3,2.1-0.9,4,0,4.8c0.6,0.5,1.6,0.3,2.4,0.1c0-12.4,0-33.8,0-46.1H1232z"></path>
						<rect x="1232" y="1060" class="st23" width="4" height="177"></rect>
						<path class="st23" d="M1231.8,1200.5c-0.7,0.9-1.9,2.3-3.9,3.3c-1.5,0.8-3.3,1.7-5.1,1.3c-2.9-0.7-2.4-3.9-5.7-5.1
							c-3-1.1-5.9,0.4-6,0.5c-0.4,0.2-2.9,1.7-3.5,4.6c-0.7,3.5,1.8,6.4,2.4,6.9c2.4,2.7,6.2,3.4,9.4,4.6c1.1,0.4,4.6,1.8,8,4.9
							c2.1,1.9,4,3.6,4.1,6c0.1,1.8-0.8,3.3,0,4c0.5,0.4,1.3,0.3,2,0.1c0-10.4,0-20.7,0-31.1H1231.8z"></path>
						<path class="st23" d="M1236.5,1200.5c0.8,1,2.2,2.4,4.5,3.5c1.6,0.7,3,1.4,4.6,1.1c2.4-0.5,2.4-2.7,5.4-4.1
							c1.1-0.5,3.7-1.7,6.3-0.5c2.8,1.3,3.5,4.4,3.5,4.6c0.7,3.5-1.8,6.4-2.4,6.9c-2.4,2.7-6.2,3.4-9.4,4.6c-1.1,0.4-4.6,1.8-8,4.9
							c-2.1,1.9-4,3.6-4.1,6c-0.1,1.8,0.8,3.3,0,4c-0.5,0.4-1.3,0.3-2,0.1c0-10.4,0-20.7,0-31.1H1236.5z"></path>
						<path class="st23" d="M1231.8,1060.5c-0.7,0.9-1.9,2.3-3.9,3.3c-1.5,0.8-3.3,1.7-5.1,1.3c-2.9-0.7-2.4-3.9-5.7-5.1
							c-3-1.1-5.9,0.4-6,0.5c-0.4,0.2-2.9,1.7-3.5,4.6c-0.7,3.5,1.8,6.4,2.4,6.9c2.4,2.7,6.2,3.4,9.4,4.6c1.1,0.4,4.6,1.8,8,4.9
							c2.1,1.9,4,3.6,4.1,6c0.1,1.8-0.8,3.3,0,4c0.5,0.4,1.3,0.3,2,0.1c0-10.4,0-20.7,0-31.1H1231.8z"></path>
						<path class="st23" d="M1236.5,1060.5c0.8,1,2.2,2.4,4.5,3.5c1.6,0.7,3,1.4,4.6,1.1c2.4-0.5,2.4-2.7,5.4-4.1
							c1.1-0.5,3.7-1.7,6.3-0.5c2.8,1.3,3.5,4.4,3.5,4.6c0.7,3.5-1.8,6.4-2.4,6.9c-2.4,2.7-6.2,3.4-9.4,4.6c-1.1,0.4-4.6,1.8-8,4.9
							c-2.1,1.9-4,3.6-4.1,6c-0.1,1.8,0.8,3.3,0,4c-0.5,0.4-1.3,0.3-2,0.1c0-10.4,0-20.7,0-31.1H1236.5z"></path>
					</g>
					<g>
						<line class="st19" x1="1920" y1="1451.7" x2="1921.8" y2="1397.6"></line>
						<polyline class="st19" points="1909.1,1442.6 1920,1451.7 1931.1,1443.5 					"></polyline>
						<polyline class="st19" points="1907.9,1427.9 1920.5,1436.3 1934.8,1430.1 					"></polyline>
						<polyline class="st19" points="1907,1414.1 1921.8,1421.8 1935.5,1415.7 					"></polyline>
					</g>
					<g>
						<rect x="1470.1" y="998" class="st25" width="10.4" height="76.5"></rect>
						<path class="st20" d="M1513.8,1085.2c-1.3-0.6-2.7-1-4.1-1.3L1513.8,1085.2z"></path>
						<path class="st20" d="M1524.6,1101.8c0-7.4-4.4-13.8-10.8-16.6h0l-4.1-1.3l-34.4-10.7l-36.4,10.6c-8.7,1.3-15.5,8.9-15.5,18
							c0,10,8.1,18.2,18.2,18.2c0.6,0,1.2,0,1.7-0.1c-0.3,1.3-0.4,2.6-0.4,4c0,10,8.1,18.2,18.2,18.2c5.4,0,10.3-2.4,13.6-6.2
							c3.3,3.8,8.2,6.2,13.6,6.2c10,0,18.2-8.1,18.2-18.2c0-1.3-0.1-2.6-0.4-3.9c0.1,0,0.3,0,0.4,0
							C1516.5,1119.9,1524.6,1111.8,1524.6,1101.8z"></path>
						<path class="st26" d="M1524.6,1101.8c0-7.4-4.4-13.8-10.8-16.6h0l-4.1-1.3l-34.4-10.7l-36.4,10.6c-8.7,1.3-15.5,8.9-15.5,18
							c0,10,8.1,18.2,18.2,18.2c0.6,0,1.2,0,1.7-0.1c-0.3,1.3-0.4,2.6-0.4,4c0,10,8.1,18.2,18.2,18.2c5.4,0,10.3-2.4,13.6-6.2
							c3.3,3.8,8.2,6.2,13.6,6.2c10,0,18.2-8.1,18.2-18.2c0-1.3-0.1-2.6-0.4-3.9c0.1,0,0.3,0,0.4,0
							C1516.5,1119.9,1524.6,1111.8,1524.6,1101.8z"></path>
						<path class="st22" d="M1507.4,1092.1c0-4.9-2.9-9.1-7.1-11h0l-2.7-0.8l-22.7-7.1l-24.1,7c-5.8,0.9-10.2,5.9-10.2,11.9
							c0,6.6,5.4,12,12,12c0.4,0,0.8,0,1.1-0.1c-0.2,0.8-0.3,1.7-0.3,2.6c0,6.6,5.4,12,12,12c3.6,0,6.8-1.6,9-4.1
							c2.2,2.5,5.4,4.1,9,4.1c6.6,0,12-5.4,12-12c0-0.9-0.1-1.7-0.3-2.6c0.1,0,0.2,0,0.3,0C1502,1104.1,1507.4,1098.7,1507.4,1092.1z
							"></path>
						<path class="st26" d="M1463,1088.1h24.6c-0.5-1.8-1.5-4.8-3.9-7.8c-3.3-4.1-7.2-5.8-9.1-6.5c-2.1,1.3-5,3.4-7.8,6.5
							C1464.3,1083.2,1464,1086,1463,1088.1z"></path>
					</g>
					<g>
						<rect x="1691.1" y="1227" class="st17" width="10.4" height="76.5"></rect>
						<path class="st20" d="M1734.8,1314.2c-1.3-0.6-2.7-1-4.1-1.3L1734.8,1314.2z"></path>
						<path class="st20" d="M1745.6,1330.8c0-7.4-4.4-13.8-10.8-16.6h0l-4.1-1.3l-34.4-10.7l-36.4,10.6c-8.7,1.3-15.5,8.9-15.5,18
							c0,10,8.1,18.2,18.2,18.2c0.6,0,1.2,0,1.7-0.1c-0.3,1.3-0.4,2.6-0.4,4c0,10,8.1,18.2,18.2,18.2c5.4,0,10.3-2.4,13.6-6.2
							c3.3,3.8,8.2,6.2,13.6,6.2c10,0,18.2-8.1,18.2-18.2c0-1.3-0.1-2.6-0.4-3.9c0.1,0,0.3,0,0.4,0
							C1737.5,1348.9,1745.6,1340.8,1745.6,1330.8z"></path>
						<path class="st21" d="M1745.6,1330.8c0-7.4-4.4-13.8-10.8-16.6h0l-4.1-1.3l-34.4-10.7l-36.4,10.6c-8.7,1.3-15.5,8.9-15.5,18
							c0,10,8.1,18.2,18.2,18.2c0.6,0,1.2,0,1.7-0.1c-0.3,1.3-0.4,2.6-0.4,4c0,10,8.1,18.2,18.2,18.2c5.4,0,10.3-2.4,13.6-6.2
							c3.3,3.8,8.2,6.2,13.6,6.2c10,0,18.2-8.1,18.2-18.2c0-1.3-0.1-2.6-0.4-3.9c0.1,0,0.3,0,0.4,0
							C1737.5,1348.9,1745.6,1340.8,1745.6,1330.8z"></path>
						<path class="st22" d="M1728.4,1321.1c0-4.9-2.9-9.1-7.1-11h0l-2.7-0.8l-22.7-7.1l-24.1,7c-5.8,0.9-10.2,5.9-10.2,11.9
							c0,6.6,5.4,12,12,12c0.4,0,0.8,0,1.1-0.1c-0.2,0.8-0.3,1.7-0.3,2.6c0,6.6,5.4,12,12,12c3.6,0,6.8-1.6,9-4.1
							c2.2,2.5,5.4,4.1,9,4.1c6.6,0,12-5.4,12-12c0-0.9-0.1-1.7-0.3-2.6c0.1,0,0.2,0,0.3,0C1723,1333.1,1728.4,1327.7,1728.4,1321.1z
							"></path>
						<path class="st21" d="M1684,1317.1h24.6c-0.5-1.8-1.5-4.8-3.9-7.8c-3.3-4.1-7.2-5.8-9.1-6.5c-2.1,1.3-5,3.4-7.8,6.5
							C1685.3,1312.2,1685,1315,1684,1317.1z"></path>
					</g>
					<g>
						<path class="st27" d="M1136.5,993.1c-4.4,38.6-5,104.6-2,143.4c0.6,7.8,11.3,9.3,14.1,2c12.4-33.5,24.9-67,37.3-100.5
							c2.3-6.1,10.8-6.4,13.5-0.4c0.7,1.7,1.6,3.3,2.9,4.4c7,6.7,17.6-4.1,19.3-13.7c0.6-3.4,1.2-7.2,2.1-10.8
							c1.9-7.2,12.1-7.3,14.1-0.1l7.7,28.8c1.9,7,11.7,7.2,13.9,0.4l7.7-23.7c2.5-7.6,13.5-6.2,14.2,1.7l4.9,63.4
							c0.6,8,11.9,9.2,14.2,1.6c8.5-28,18.1-55.7,30.7-81.9c3-6.2,12.1-5.2,13.6,1.6l3.6,16.1c1.6,7,11.1,7.7,13.8,1.1
							c2.7-6.7,5.8-13.2,9.3-19.5c3.3-6,12.3-4.6,13.5,2.2c3.1,17.9,5.4,36,6.9,54.1c0.6,7.9,11.5,9.3,14.1,1.8
							c5.3-15.3,11.6-30.3,19-44.7c3.4-6.7,13.5-4.4,13.7,3.1l1.5,44.3c0.3,8,11.4,9.7,14.1,2.2l17.9-50.8c2.6-7.3,13.2-6,14.1,1.6
							c1.1,9.4,1.7,18.8,1.9,28.2c0.2,7.6,10.5,9.9,13.8,3.1c1.7-3.4,3.4-6.8,5.3-10.1c3.3-5.9,12.2-4.6,13.5,2.1
							c2.2,11.4,3.7,23,4.2,34.7c0.4,8.3,12.2,9.5,14.3,1.5c4-15.4,7.2-31,9.6-46.8c0-0.1,0-0.3,0.1-0.4l3.2-33.1
							c0.4-4.2-2.8-7.8-7-8l-213.6-6.6c-0.4,0-0.9,0-1.3,0.1l-186.4,1.2c-1,0-2.1,0.2-3,0.6C1138.4,988.4,1136.8,990.5,1136.5,993.1z
							"></path>
					</g>
					<g class="treesOrangeR" data-svg-origin="1725.7000732421875 1210.7999267578125" style="transform: matrix3d(0.999939, -0.0110727, 0, 0, 0.0110727, 0.999939, 0, 0, 0, 0, 1, 0, -13.301, 19.1824, 0, 1); transform-origin: 0px 0px 0px;">
						<path class="st28" d="M1630.8,1225.1c-2.1-7.3,3.8-14.3,11.4-13.6c55.4,5.5,110.7,11,166.1,16.5c3.1,0.3,5.6,2.6,6.1,5.7
							c5.9,36,8.3,72.6,7.2,109.1c-0.2,7.3-10.2,9.3-13.1,2.5c-13.2-30.9-26.4-61.7-39.6-92.6c-2.4-5.6-10.5-5.5-12.7,0.3
							c-0.6,1.6-1.4,3.1-2.5,4.3c-6.3,6.6-16.7-3.1-18.8-11.9c-0.7-3.2-1.5-6.8-2.5-10.1c-2.1-6.7-11.7-6.2-13.2,0.7l-5.9,27.4
							c-1.4,6.6-10.6,7.3-13.1,1l-8.3-21.9c-2.7-7-13-5.2-13.2,2.2l-1.7,59.7c-0.2,7.5-10.7,9.2-13.2,2.1
							c-5.6-15.6-18.5-38.2-29-68.7c-0.5-1.4-2.1-6-3.9-12.4C1630.9,1225.2,1630.8,1225.1,1630.8,1225.1z"></path>
					</g>
					<g>
						<path class="st23" d="M1816.2,1437.4c0-0.1-0.1-0.3-0.2-0.4"></path>
						<rect x="1813" y="1195" class="st24" width="6" height="55"></rect>
						<path class="st23" d="M1817.8,1345.5c5.5,5.5,8.8,6.2,10.8,5.5c2.4-0.8,2.6-3.3,6.4-5c1.2-0.5,4.4-2,7.7-0.5
							c3.3,1.6,4.2,5.2,4.2,5.5c0.8,4.2-2.2,7.6-2.8,8.3c-2.9,3.2-7.4,4.1-11.2,5.5c-1.3,0.5-5.5,2.2-9.6,5.9
							c-2.5,2.2-4.7,4.3-4.9,7.2c-0.1,2.1,0.9,19,0,19.8c-0.6,0.5-1.6,0.3-2.4,0.1c0-12.4,0-39.8,0-52.1H1817.8z"></path>
						<path class="st23" d="M1816,1350v-34c-0.1,1.2,0.1,2.1,1.3,2s2.3-0.9,3.4-1.6c3.7-2.3,8.6-3.6,12.2-1.3c1.2,0.8,1.2,1.3,2.8,2
							c0.5,0.2,2.8,1.3,5.3,0.8c2.7-0.5,2.6-2.3,6-4c1.4-0.7,4.3-2.2,7-1c2,0.9,2.9,2.8,3,3c1.9,4.3-2.5,9.4-3.2,10.2
							c-2.3,2.6-4.3,3.2-9.8,5.8c-3.4,1.6-10.1,4.7-15,8c-2.9,1.9-6.9,5.1-11,10.3L1816,1350z"></path>
						<path class="st23" d="M1818.3,1274.5c5.5,5.6,8.8,6.1,10.8,5.5c2.5-0.8,2.9-3.3,6.9-5c1.4-0.6,4.3-1.8,7.2-0.5
							c3.3,1.5,4.1,5.2,4.2,5.5c0.8,4.2-2.2,7.6-2.8,8.3c-1.8,2-3.3,2.4-11.2,5.5c-4.2,1.6-7.7,2.4-10.3,5.2c-3.1,3.4-3.8,7.8-4,9
							c-0.6,4.5-0.1,7.8-0.1,7.8c0.3,2.1,0.9,4,0,4.8c-0.6,0.5-1.6,0.3-2.4,0.1c0-12.4,0-33.8,0-46.1H1818.3z"></path>
						<path class="st23" d="M1838,1418C1838,1418,1838,1418,1838,1418c-0.4-1.6-1.5-3.2-3-4c-2.2-1.1-4.5-0.2-5,0
							c-2.9,1.2-3.1,3.6-5,4c-0.2,0-1.1,0.1-2-0.3c-1.6-0.8-1.5-2.5-3-3.7c-0.6-0.4-1.5-0.9-3-1l0,0c-2-0.1-3.2,0.5-4,1
							c-1.9,1.3-2,3.5-4,4c-0.8,0.2-1.5,0.1-1.7,0c-2.2-0.5-2.1-2.9-4.3-4c-0.3-0.1-3-1.4-5.7,0c-0.2,0.1-2.5,1.4-3,4
							c-0.6,3,1.6,5.5,2,6c1.7,1.9,2.9,1.6,8,4c3.9,1.8,6,3.3,7,4c3,2.2,4.2,3.9,4.7,5c0.1,0.1,0.1,0.3,0.2,0.4
							c0-0.1,0.1-0.3,0.2-0.4c0.5-1.2,1.6-2.8,4.7-5c1-0.7,3.1-2.2,7-4c5.1-2.4,6.3-2.1,8-4C1836.4,1423.5,1838.6,1421,1838,1418z"></path>
						<path class="st23" d="M1816.3,1437c-0.1,0.1-0.1,0.3-0.2,0.4"></path>
						<path class="st23" d="M1814.5,1345.5c-5.5,5.5-8.8,6.1-10.8,5.5c-2.5-0.8-2.8-3.3-6.7-5c-1.3-0.6-4.3-1.9-7.4-0.5
							c-3.3,1.5-4.2,5.2-4.2,5.5c-0.8,4.2,2.2,7.6,2.8,8.3c2.9,3.2,7.4,4.1,11.2,5.5c1.3,0.5,5.5,2.2,9.6,5.9
							c2.5,2.2,4.7,4.3,4.9,7.2c0.1,2.1-0.9,19,0,19.8c0.6,0.5,1.6,0.3,2.4,0.1c0-12.4,0-39.8,0-52.1H1814.5z"></path>
						<path class="st23" d="M1816.3,1350v-34c0.1,1.2-0.1,2.1-1.3,2s-2.3-0.9-3.4-1.6c-3.7-2.3-8.6-3.6-12.2-1.3
							c-1.2,0.8-1.2,1.3-2.8,2c-0.5,0.2-2.8,1.3-5.3,0.8c-2.7-0.5-2.6-2.3-6-4c-1.4-0.7-4.3-2.2-7-1c-2,0.9-2.9,2.8-3,3
							c-1.9,4.3,2.5,9.4,3.2,10.2c2.3,2.6,4.3,3.2,9.8,5.8c3.4,1.6,10.1,4.7,15,8c2.9,1.9,6.9,5.1,11,10.3L1816.3,1350z"></path>
						<path class="st23" d="M1814,1274.5c-5.5,5.5-8.8,6.2-10.8,5.5c-2.4-0.8-2.5-3.3-6.2-5c-1-0.5-4.5-2.1-7.9-0.5
							c-3.3,1.6-4.1,5.2-4.2,5.5c-0.8,4.2,2.2,7.6,2.8,8.3c1.6,1.8,2.9,2.3,11.2,5.5c3.8,1.5,7.2,2.3,10,5.2c0.8,0.9,3,3.3,4,7
							c0.4,1.4,1.1,5.2,0.4,9.8c-0.3,2.1-0.9,4,0,4.8c0.6,0.5,1.6,0.3,2.4,0.1c0-12.4,0-33.8,0-46.1H1814z"></path>
						<rect x="1814" y="1247" class="st23" width="4" height="177"></rect>
						<path class="st23" d="M1813.8,1387.5c-0.7,0.9-1.9,2.3-3.9,3.3c-1.5,0.8-3.3,1.7-5.1,1.3c-2.9-0.7-2.4-3.9-5.7-5.1
							c-3-1.1-5.9,0.4-6,0.5c-0.4,0.2-2.9,1.7-3.5,4.6c-0.7,3.5,1.8,6.4,2.4,6.9c2.4,2.7,6.2,3.4,9.4,4.6c1.1,0.4,4.6,1.8,8,4.9
							c2.1,1.9,4,3.6,4.1,6c0.1,1.8-0.8,3.3,0,4c0.5,0.4,1.3,0.3,2,0.1c0-10.4,0-20.7,0-31.1H1813.8z"></path>
						<path class="st23" d="M1818.5,1387.5c0.8,1,2.2,2.4,4.5,3.5c1.6,0.7,3,1.4,4.6,1.1c2.4-0.5,2.4-2.7,5.4-4.1
							c1.1-0.5,3.7-1.7,6.3-0.5c2.8,1.3,3.5,4.4,3.5,4.6c0.7,3.5-1.8,6.4-2.4,6.9c-2.4,2.7-6.2,3.4-9.4,4.6c-1.1,0.4-4.6,1.8-8,4.9
							c-2.1,1.9-4,3.6-4.1,6c-0.1,1.8,0.8,3.3,0,4c-0.5,0.4-1.3,0.3-2,0.1c0-10.4,0-20.7,0-31.1H1818.5z"></path>
						<path class="st23" d="M1813.8,1247.5c-0.7,0.9-1.9,2.3-3.9,3.3c-1.5,0.8-3.3,1.7-5.1,1.3c-2.9-0.7-2.4-3.9-5.7-5.1
							c-3-1.1-5.9,0.4-6,0.5c-0.4,0.2-2.9,1.7-3.5,4.6c-0.7,3.5,1.8,6.4,2.4,6.9c2.4,2.7,6.2,3.4,9.4,4.6c1.1,0.4,4.6,1.8,8,4.9
							c2.1,1.9,4,3.6,4.1,6c0.1,1.8-0.8,3.3,0,4c0.5,0.4,1.3,0.3,2,0.1c0-10.4,0-20.7,0-31.1H1813.8z"></path>
						<path class="st23" d="M1818.5,1247.5c0.8,1,2.2,2.4,4.5,3.5c1.6,0.7,3,1.4,4.6,1.1c2.4-0.5,2.4-2.7,5.4-4.1
							c1.1-0.5,3.7-1.7,6.3-0.5c2.8,1.3,3.5,4.4,3.5,4.6c0.7,3.5-1.8,6.4-2.4,6.9c-2.4,2.7-6.2,3.4-9.4,4.6c-1.1,0.4-4.6,1.8-8,4.9
							c-2.1,1.9-4,3.6-4.1,6c-0.1,1.8,0.8,3.3,0,4c-0.5,0.4-1.3,0.3-2,0.1c0-10.4,0-20.7,0-31.1H1818.5z"></path>
					</g>
					<g>
						<path class="st27" d="M1233.5,1270.7c-0.3,0-0.7,0-1,0l-142.2,14.4c-2.5,0.2-4.5,2.1-4.9,4.5c-4.7,28.9-6.7,58.3-5.8,87.6
							c0.2,5.9,8.2,7.4,10.5,2c10.6-24.8,21.2-49.6,31.8-74.3c1.9-4.5,8.4-4.4,10.2,0.2c0.5,1.3,1.1,2.5,2,3.4
							c5,5.3,13.4-2.5,15.1-9.6c0.6-2.6,1.2-5.4,2-8.1c1.7-5.3,9.4-4.9,10.6,0.5l4.7,22c1.2,5.3,8.5,5.9,10.5,0.8l6.7-17.6
							c2.1-5.6,10.4-4.2,10.6,1.8l1.4,47.9c0.2,6.1,8.6,7.4,10.6,1.7c7.4-20.8,15.7-41.3,26.1-60.6c2.5-4.6,9.3-3.4,10.2,1.7"></path>
					</g>
					<g class="st29">
						<path class="st30" d="M1083,948.8c49.7,4.9,100.2,0.8,148.5-12.2c65.1-17.5,128-51,195.3-47.4c30.5,1.7,60.1,11,89.9,17.6
							c78.6,17.4,161.1,16.2,237.9,40.4L1810,933l-281-78l-287-20L1083,948.8z"></path>
					</g>
				</g>
				<g class="st31">
					<g>
						<g>
							<path class="st32" d="M968.5,1295.1c-2.2-2-5.8-2.1-7-2c-6.9,0.4-33.8,0.6-73.5,0.7c-15.1,0-32.1,0-50.5,0.1
								c-4.5,0-7.2,5.1-4.6,8.8c8,11.3,20.7,19.3,34.5,21.1c3.3,0.4,6.8,0.6,9.9,1.9c2.8,1.2,5,3.2,7.3,5.2c5.5,4.7,12,8.8,18.8,11.6
								c5.2,2.2,10.7,3.5,16,3.6c4.5,0.1,9-0.6,13.3-2.5c8.9-3.8,15.4-11.6,21.4-19.2c3.9-4.8,7.8-9.7,11.7-14.5
								C969.2,1305.5,972.6,1298.8,968.5,1295.1z"></path>
						</g>
						<g>
							<path class="st9" d="M919.3,1346c-11.8-16.6-22.3-34.1-31.4-52.3c-15.1,0-32.1,0-50.5,0.1c-4.5,0-7.2,5.1-4.6,8.8
								c8,11.3,20.7,19.3,34.5,21.1c3.3,0.4,6.8,0.6,9.9,1.9c2.8,1.2,5,3.2,7.3,5.2c5.5,4.7,12,8.8,18.8,11.6
								C908.5,1344.5,913.9,1345.9,919.3,1346z"></path>
						</g>
					</g>
					<g>
						<g>
							<path class="st32" d="M1894.6,1141.8c-1.9-1.8-5-1.8-6.1-1.8c-6,0.3-29.4,0.5-63.9,0.6c-13.1,0-27.9,0-43.9,0.1
								c-3.9,0-6.3,4.4-4,7.6c6.9,9.8,18,16.8,29.9,18.4c2.9,0.4,5.9,0.5,8.6,1.6c2.4,1,4.4,2.8,6.4,4.5c4.8,4,10.4,7.7,16.3,10.1
								c4.5,1.9,9.3,3.1,13.9,3.2c3.9,0.1,7.8-0.6,11.5-2.1c7.7-3.3,13.3-10.1,18.6-16.7c3.4-4.2,6.8-8.4,10.2-12.6
								C1895.3,1150.8,1898.2,1145,1894.6,1141.8z"></path>
						</g>
						<g>
							<path class="st9" d="M1851.9,1186c-10.2-14.4-19.4-29.6-27.3-45.4c-13.1,0-27.9,0-43.9,0.1c-3.9,0-6.3,4.4-4,7.6
								c6.9,9.8,18,16.8,29.9,18.4c2.9,0.4,5.9,0.5,8.6,1.6c2.4,1,4.4,2.8,6.4,4.5c4.8,4,10.4,7.7,16.3,10.1
								C1842.5,1184.7,1847.2,1185.9,1851.9,1186z"></path>
						</g>
					</g>
					<path class="st32" d="M1397,1207h-55v0.5c0,15.2,12.3,27.5,27.5,27.5l0,0c15.2,0,27.5-12.3,27.5-27.5V1207z"></path>
					<g>
						<g>
							<path class="st9" d="M1389.1,1204.3c1.4-1.3,3.6-1.3,4.4-1.3c4.3,0.2,21.1,0.4,45.7,0.4c9.4,0,20,0,31.4,0
								c2.8,0,4.5,3.2,2.9,5.5c-5,7-12.9,12-21.4,13.1c-2.1,0.3-4.2,0.4-6.2,1.2c-1.7,0.7-3.1,2-4.6,3.2c-3.4,2.9-7.5,5.5-11.7,7.2
								c-3.3,1.3-6.6,2.2-10,2.3c-2.8,0.1-5.6-0.4-8.3-1.5c-5.5-2.4-9.6-7.2-13.3-11.9c-2.4-3-4.9-6-7.3-9
								C1388.7,1210.8,1386.6,1206.6,1389.1,1204.3z"></path>
						</g>
						<g>
							<path class="st32" d="M1419.7,1236c7.3-10.3,13.9-21.2,19.5-32.5c9.4,0,20,0,31.4,0c2.8,0,4.5,3.2,2.9,5.5
								c-5,7-12.9,12-21.4,13.1c-2.1,0.3-4.2,0.4-6.2,1.2c-1.7,0.7-3.1,2-4.6,3.2c-3.4,2.9-7.5,5.5-11.7,7.2
								C1426.4,1235.1,1423.1,1235.9,1419.7,1236z"></path>
						</g>
					</g>
					<g>
						<path class="st9" d="M1139.8,1132.7v-0.7h-78.6v0.7c0,21.7,17.6,39.3,39.3,39.3c2.1,0,4.1-0.2,6.1-0.5
							c8.4-1.3,15.9-5.3,21.6-11C1135.4,1153.4,1139.8,1143.5,1139.8,1132.7z"></path>
					</g>
				</g>
			</g>
			<g class="islandBody">
				<g>
					<linearGradient id="SVGID_7_" gradientUnits="userSpaceOnUse" x1="1056" y1="1055.9138" x2="1056" y2="672.552">
						<stop offset="0" style="stop-color:#295071"></stop>
						<stop offset="1" style="stop-color:#41A0B5"></stop>
					</linearGradient>
					<path class="st33" d="M1240,1055.9c-30.3-116.9-49.4-205.9-62-270c-7-35.5-14.8-78.2-49.5-99.3c-33.5-20.4-84.8-18.9-112.6,6.7
						c-33.5,30.9-48.6,67-60.2,108.5c-16.3,58.3-42.1,141.1-83.7,245.1C994.7,1049.9,1117.3,1052.9,1240,1055.9z"></path>
				</g>
				<g>
					<linearGradient id="SVGID_8_" gradientUnits="userSpaceOnUse" x1="1864" y1="1049.8723" x2="1864" y2="664.552">
						<stop offset="0" style="stop-color:#295071"></stop>
						<stop offset="1" style="stop-color:#41A0B5"></stop>
					</linearGradient>
					<path class="st34" d="M2048,1046.9c-30.3-116.9-49.4-204.9-62-269c-7-35.5-14.8-78.2-49.5-99.3c-33.5-20.4-84.8-18.9-112.6,6.7
						c-33.5,30.9-48.6,67-60.2,108.5c-16.3,58.3-42.1,151.1-83.7,255.1C1802.7,1051.9,1923,1046.9,2048,1046.9z"></path>
				</g>
				<polygon class="st9" points="2014.2,1045.9 1802,1117.9 1540,1201.9 1239,1187.9 1105.8,1127.7 1012,1085.3 924.8,1045.9 
					1212.6,617.2 1288.2,504.6 1294,495.9 1360.6,584.4 1367,592.9 1381.7,587 1398.1,580.4 1449,559.9 1539.4,637.7 			"></polygon>
				<g>
					<linearGradient id="SVGID_9_" gradientUnits="userSpaceOnUse" x1="1513.085" y1="1201.9138" x2="1513.085" y2="495.9138">
						<stop offset="0" style="stop-color:#4182B5"></stop>
						<stop offset="1" style="stop-color:#41A0B5"></stop>
					</linearGradient>
					<path class="st35" d="M2014.2,1046.9l-212.2,71l-262,84l-301-14l-133.2-60.2l-93.9-42.4c66.2-79,187-79.3,277.6-128.8
						c16.2-8.9,33.3-22.5,33.3-41c-0.1-29.9-41.8-41.3-53.8-68.7c-11.6-26.4,9.6-57,35.6-69.4c26-12.4,55.9-13.2,83.6-21.1
						c27.7-8,56.1-27.6,58.5-56.3c2.5-29.7-23.9-54-51-66.5c-27-12.5-57.6-18.9-80.5-37.9c-25.9-21.6-34.7-58.5-27-91.1l5.8-8.7
						l66.6,88.5l6.4,8.5l82-33L2014.2,1046.9z"></path>
				</g>
				<polygon class="st11" points="1125.8,1136.8 1239,1189.9 1540,1201.9 1944,1072.9 1861,1082.9 1573,1129.9 1188,1129.9 
					1066.6,1110 			"></polygon>
			</g>
			<g class="waves liquid">
				<path class="st36 waveRight" d="M2471.5,1622.9h-288c-13.5,0-24.5-11-24.5-24.5l0,0c0-13.5,11-24.5,24.5-24.5h288c13.5,0,24.5,11,24.5,24.5
					l0,0C2496,1611.9,2485,1622.9,2471.5,1622.9z" data-svg-origin="2159 1573.9000244140625" style="transform: matrix3d(1, 0, 0, 0, 0, 1, 0, 0, 0, 0, 1, 0, -5.27287, 0, 0, 1);"></path>
				<path class="st36 waveLeft" d="M648.5,1745.9h-288c-13.5,0-24.5-11-24.5-24.5l0,0c0-13.5,11-24.5,24.5-24.5h288c13.5,0,24.5,11,24.5,24.5
					l0,0C673,1734.9,662,1745.9,648.5,1745.9z" data-svg-origin="336 1696.9000244140625" style="transform: matrix3d(1, 0, 0, 0, 0, 1, 0, 0, 0, 0, 1, 0, 5.27287, 0, 0, 1);"></path>
				<path class="st36 waveRight" d="M2261.5,1264.9h-288c-13.5,0-24.5-11-24.5-24.5l0,0c0-13.5,11-24.5,24.5-24.5h288c13.5,0,24.5,11,24.5,24.5
					l0,0C2286,1253.9,2275,1264.9,2261.5,1264.9z" data-svg-origin="1949 1215.9000244140625" style="transform: matrix3d(1, 0, 0, 0, 0, 1, 0, 0, 0, 0, 1, 0, -5.27287, 0, 0, 1);"></path>
				<path class="st36 waveLeft" d="M734.5,1165.9h-288c-13.5,0-24.5-11-24.5-24.5l0,0c0-13.5,11-24.5,24.5-24.5h288c13.5,0,24.5,11,24.5,24.5
					l0,0C759,1154.9,748,1165.9,734.5,1165.9z" data-svg-origin="422 1116.9000244140625" style="transform: matrix3d(1, 0, 0, 0, 0, 1, 0, 0, 0, 0, 1, 0, 5.27287, 0, 0, 1);"></path>
				<path class="st36 waveLeft" d="M1567.5,1404.9h-288c-13.5,0-24.5-11-24.5-24.5l0,0c0-13.5,11-24.5,24.5-24.5h288c13.5,0,24.5,11,24.5,24.5
					l0,0C1592,1393.9,1581,1404.9,1567.5,1404.9z" data-svg-origin="1255 1355.9000244140625" style="transform: matrix3d(1, 0, 0, 0, 0, 1, 0, 0, 0, 0, 1, 0, 5.27287, 0, 0, 1);"></path>
				<path class="st36 waveRight" d="M1030.5,1316.9h-288c-13.5,0-24.5-11-24.5-24.5l0,0c0-13.5,11-24.5,24.5-24.5h288c13.5,0,24.5,11,24.5,24.5
					l0,0C1055,1305.9,1044,1316.9,1030.5,1316.9z" data-svg-origin="718 1267.9000244140625" style="transform: matrix3d(1, 0, 0, 0, 0, 1, 0, 0, 0, 0, 1, 0, -5.27287, 0, 0, 1);"></path>
				<path class="st36 waveLeft" d="M941.5,1366.9h-288c-13.5,0-24.5-11-24.5-24.5l0,0c0-13.5,11-24.5,24.5-24.5h288c13.5,0,24.5,11,24.5,24.5
					l0,0C966,1355.9,955,1366.9,941.5,1366.9z" data-svg-origin="629 1317.9000244140625" style="transform: matrix3d(1, 0, 0, 0, 0, 1, 0, 0, 0, 0, 1, 0, 5.27287, 0, 0, 1);"></path>
				<path class="st36 waveRight" d="M1597.5,1453.9h-288c-13.5,0-24.5-11-24.5-24.5l0,0c0-13.5,11-24.5,24.5-24.5h288c13.5,0,24.5,11,24.5,24.5
					l0,0C1622,1442.9,1611,1453.9,1597.5,1453.9z" data-svg-origin="1285 1404.9000244140625" style="transform: matrix3d(1, 0, 0, 0, 0, 1, 0, 0, 0, 0, 1, 0, -5.27287, 0, 0, 1);"></path>
			</g>
		
		<g class="trees">
		<g>
				<path class="st13" d="M1515.3,861.2h68.2c4.8,0,8.2-6.1,7-12.2c-3.7-17.6-8.6-37.2-15.2-58.1c-6.4-20.1-13.3-37.9-20.1-53.2
					c-2.8-6.4-9.7-6.4-12.5,0c-6.8,15.8-13.8,34.1-20.2,54.9c-6.2,20.3-10.8,39.4-14.1,56.6C1507.1,855.3,1510.6,861.2,1515.3,861.2z
					"></path>
				<circle class="st14" cx="1550.1" cy="805.9" r="5"></circle>
				<circle class="st14" cx="1552.7" cy="828.5" r="5"></circle>
				<circle class="st14" cx="1566.5" cy="818.5" r="5"></circle>
				<circle class="st14" cx="1566.5" cy="842.4" r="5"></circle>
				<circle class="st14" cx="1528.8" cy="824.8" r="5"></circle>
				<rect x="1538.8" y="861.2" class="st15" width="18.9" height="66.7"></rect>
			</g>
		<g>
			<linearGradient id="SVGID_10_" gradientUnits="userSpaceOnUse" x1="1242" y1="714.9138" x2="1242" y2="614.2458">
				<stop offset="0" style="stop-color:#295071"></stop>
				<stop offset="1" style="stop-color:#41A0B5"></stop>
			</linearGradient>
			<path class="st37" d="M1336.1,713.3c-7.9,0-15.8,0.1-23.6,0.2c-2.3,0-4.7,0.1-7,0.1h-62c-0.4-1.4-0.7-2.8-1.1-4.1
				c-0.5,1.4-1.1,2.8-1.6,4.1c0,0.1-0.1,0.2-0.1,0.3c-31.4,0.1-61.8,1.5-92.7,0.8c10.8-27,17.5-51.1,21.7-66.2
				c3-10.8,6.9-20.1,15.6-28.2c7.2-6.7,20.5-7,29.2-1.7c9,5.5,11.1,16.6,12.9,25.8c0.8,4.2,1.8,8.8,2.8,13.8
				c1.5,6.9,7.5,11.8,14.6,11.8h0c6.6,0,12.5-4.4,14.3-10.8c1.2-4.2,2.3-8,3.2-11.3c3-10.8,6.9-20.1,15.6-28.2
				c7.2-6.7,20.5-7,29.2-1.7c9,5.5,11.1,16.6,12.9,25.8C1323.2,660.3,1328.2,682.9,1336.1,713.3z"></path></g>
		<g>
			<linearGradient id="SVGID_11_" gradientUnits="userSpaceOnUse" x1="1703.8744" y1="1130.9138" x2="1703.8744" y2="892.3593">
			<stop offset="0" style="stop-color:#295071"></stop>
			<stop offset="1" style="stop-color:#41A0B5"></stop>
			</linearGradient>
			<path class="st38" d="M1487.9,1130.9c-0.3-59.8-9-145.9,19.6-194.3c15.6-26.5,41.5-43.3,68.1-44.3s53.2,14.1,70,39.4
			c10.9,16.5,18.6,37.7,33.9,47.3c15.1,9.5,33.8,4.8,48.6-5.2c14.8-10.1,27.1-24.9,40.8-37.2c31.8-28.7,79-41.7,109.3-10.6
			c33.5,34.5,27.3,99.2,43.1,149.4"></path>
		</g>
		<g>
			<line class="st19" x1="1949" y1="944.2" x2="1950.8" y2="998.3"></line>
			<line class="st19" x1="1938.1" y1="953.3" x2="1949" y2="944.2"></line>
			<line class="st19" x1="1936.9" y1="968" x2="1949.5" y2="959.6"></line>
			<line class="st19" x1="1936" y1="981.8" x2="1949.8" y2="974.1"></line>
			<line class="st19" x1="1960.7" y1="953.3" x2="1949.7" y2="944.2"></line>
			<line class="st19" x1="1961.9" y1="968" x2="1949.3" y2="959.6"></line>
			<line class="st19" x1="1962.8" y1="981.8" x2="1949" y2="974.1"></line>
		</g>
		<g class="treesPinkGroup">

			<use class="treesPink" xmlns:xlink="http://www.w3.org/1999/xlink" xlink:href="#RoundTree" width="103" height="176.5" x="-51.5" y="-88.2" style="overflow: visible; transform: matrix3d(0.999722, -0.0235919, 0, 0, -0.0235919, -0.999722, 0, 0, 0, 0, 1, 0, 1064.49, 958.188, 0, 1); transform-origin: 0px 0px 0px;" data-svg-origin="0 -85.19999694824219"></use>

			<use class="treesPink" xmlns:xlink="http://www.w3.org/1999/xlink" xlink:href="#RoundTree" width="103" height="176.5" x="-51.5" y="-88.2" style="overflow: visible; transform: matrix3d(1, -0.000765152, 0, 0, -0.000765152, -1, 0, 0, 0, 0, 1, 0, 1809.43, 997.164, 0, 1); transform-origin: 0px 0px 0px;" data-svg-origin="0 -85.19999694824219"></use>

			<use class="treesPink" xmlns:xlink="http://www.w3.org/1999/xlink" xlink:href="#RoundTree" width="103" height="176.5" x="-51.5" y="-88.2" style="overflow: visible; transform: matrix3d(0.999674, 0.0255516, 0, 0, 0.0255516, -0.999674, 0, 0, 0, 0, 1, 0, 1484.68, 717.192, 0, 1); transform-origin: 0px 0px 0px;" data-svg-origin="0 -85.19999694824219"></use>
		</g>
		<g>
			<line class="st19" x1="1187" y1="585.2" x2="1188.8" y2="639.3"></line>
			<polyline class="st19" points="1176.1,594.3 1187,585.2 1198.1,593.4 			"></polyline>
			<polyline class="st19" points="1174.9,609 1187.5,600.6 1201.8,606.8 			"></polyline>
			<polyline class="st19" points="1174,622.8 1188.8,615.1 1202.5,621.2 			"></polyline>
		</g>
		<g class="treeRed">
			<path class="st13" d="M1410.3,556.2h68.2c4.8,0,8.2-6.1,7-12.2c-3.7-17.6-8.6-37.2-15.2-58.1c-6.4-20.1-13.3-37.9-20.1-53.2
			c-2.8-6.4-9.7-6.4-12.5,0c-6.8,15.8-13.8,34.1-20.2,54.9c-6.2,20.3-10.8,39.4-14.1,56.6C1402.1,550.3,1405.6,556.2,1410.3,556.2z
			"></path>
			<circle class="st14" cx="1445.1" cy="500.9" r="5"></circle>
			<circle class="st14" cx="1447.7" cy="523.5" r="5"></circle>
			<circle class="st14" cx="1461.5" cy="513.5" r="5"></circle>
			<circle class="st14" cx="1461.5" cy="537.4" r="5"></circle>
			<circle class="st14" cx="1423.8" cy="519.8" r="5"></circle>
			<path class="st15" d="M1443.3,622.9L1443.3,622.9c-5.2,0-9.4-4.2-9.4-9.4v-57.2h18.9v57.2
			C1452.7,618.7,1448.5,622.9,1443.3,622.9z"></path>
		</g>
		<g class="treesCoral">
			<g>
			<polygon class="st17 CoralTriangle1" points="1167,644.9 1149,696.9 1193,680.9 				" data-svg-origin="1171 655.3000244140625" style="transform: matrix3d(0.997688, 0.0679668, 0, 0, -0.0679668, 0.997688, 0, 0, 0, 0, 1, 0, 47.2465, -78.0738, 0, 1); transform-origin: 0px 0px 0px;"></polygon>
			<polygon class="st17 CoralTriangle2" points="1166,690.7 1145,729.9 1190,729.9 				" data-svg-origin="1167.5 722.0600219726563" style="transform: matrix3d(0.999122, -0.0418931, 0, 0, 0.0418931, 0.999122, 0, 0, 0, 0, 1, 0, -29.2244, 49.5441, 0, 1); transform-origin: 0px 0px 0px;"></polygon>
			<polygon class="st17 CoralTriangle3" points="1167.5,729.9 1138,778.9 1196,775.9 				" data-svg-origin="1167 739.7000244140625" style="transform: matrix3d(0.997688, 0.0679668, 0, 0, -0.0679668, 0.997688, 0, 0, 0, 0, 1, 0, 52.9736, -77.6068, 0, 1); transform-origin: 0px 0px 0px;"></polygon>
			<g>
				<line class="st18" x1="1168" y1="666.9" x2="1168" y2="791.9"></line>
			</g>
			</g>
			<g>
			<polygon class="st17 CoralTriangle1" points="1339,427.9 1321,479.9 1365,463.9 				" data-svg-origin="1343 438.29999389648435" style="transform: matrix3d(0.997688, 0.0679668, 0, 0, -0.0679668, 0.997688, 0, 0, 0, 0, 1, 0, 32.8954, -90.2659, 0, 1); transform-origin: 0px 0px 0px;"></polygon>
			<polygon class="st17 CoralTriangle2" points="1338,473.7 1317,512.9 1362,512.9 				" data-svg-origin="1339.5 505.0600219726563" style="transform: matrix3d(0.999122, -0.0418931, 0, 0, 0.0418931, 0.999122, 0, 0, 0, 0, 1, 0, -19.9826, 56.5592, 0, 1); transform-origin: 0px 0px 0px;"></polygon>
			<polygon class="st17 CoralTriangle3" points="1339.5,512.9 1310,561.9 1368,558.9 				" data-svg-origin="1339 522.7000244140625" style="transform: matrix3d(0.997688, 0.0679668, 0, 0, -0.0679668, 0.997688, 0, 0, 0, 0, 1, 0, 38.6226, -89.7989, 0, 1); transform-origin: 0px 0px 0px;"></polygon>
			<g>
				<line class="st18" x1="1340" y1="449.9" x2="1340" y2="625.9"></line>
			</g>
			</g>
			<g>
			<polygon class="st17 CoralTriangle1" points="1646,887.9 1628,939.9 1672,923.9 				" data-svg-origin="1650 898.3000244140625" style="transform: matrix3d(0.997688, 0.0679668, 0, 0, -0.0679668, 0.997688, 0, 0, 0, 0, 1, 0, 64.8701, -110.068, 0, 1); transform-origin: 0px 0px 0px;"></polygon>
			<polygon class="st17 CoralTriangle2" points="1645,933.7 1624,972.9 1669,972.9 				" data-svg-origin="1646.5 965.0600219726563" style="transform: matrix3d(0.999122, -0.0418931, 0, 0, 0.0418931, 0.999122, 0, 0, 0, 0, 1, 0, -38.9839, 69.8242, 0, 1); transform-origin: 0px 0px 0px;"></polygon>
			<polygon class="st17 CoralTriangle3" points="1646.5,972.9 1617,1021.9 1675,1018.9 				" data-svg-origin="1646 982.7000244140625" style="transform: matrix3d(0.997688, 0.0679668, 0, 0, -0.0679668, 0.997688, 0, 0, 0, 0, 1, 0, 70.5972, -109.601, 0, 1); transform-origin: 0px 0px 0px;"></polygon>
			<g>
				<line class="st18" x1="1647" y1="909.9" x2="1647" y2="1085.9"></line>
			</g>
			</g>
			<g>
			<polygon class="st17 CoralTriangle1" points="1369,719.9 1351,771.9 1395,755.9 				" data-svg-origin="1373 730.3000244140625" style="transform: matrix3d(0.997688, 0.0679668, 0, 0, -0.0679668, 0.997688, 0, 0, 0, 0, 1, 0, 52.8111, -91.6297, 0, 1); transform-origin: 0px 0px 0px;"></polygon>
			<polygon class="st17 CoralTriangle2" points="1368,765.7 1347,804.9 1392,804.9 				" data-svg-origin="1369.5 797.0600219726563" style="transform: matrix3d(0.999122, -0.0418931, 0, 0, 0.0418931, 0.999122, 0, 0, 0, 0, 1, 0, -32.189, 58.0723, 0, 1); transform-origin: 0px 0px 0px;"></polygon>
			<polygon class="st17 CoralTriangle3" points="1369.5,804.9 1340,853.9 1398,850.9 				" data-svg-origin="1369 814.7000244140625" style="transform: matrix3d(0.997688, 0.0679668, 0, 0, -0.0679668, 0.997688, 0, 0, 0, 0, 1, 0, 58.5383, -91.1626, 0, 1); transform-origin: 0px 0px 0px;"></polygon>
			<g>
				<line class="st18" x1="1370" y1="741.9" x2="1370" y2="917.9"></line>
			</g>
			</g>
		</g>
		<g>
			<line class="st19" x1="1920" y1="642.2" x2="1921.8" y2="696.3"></line>
			<polyline class="st19" points="1909.1,651.3 1920,642.2 1931.1,650.4 			"></polyline>
			<polyline class="st19" points="1907.9,666 1920.5,657.6 1934.8,663.8 			"></polyline>
			<polyline class="st19" points="1907,679.8 1921.8,672.1 1935.5,678.2 			"></polyline>
		</g>
		<g class="treesFloral">
			<g>
			<rect x="1229.1" y="593.4" class="st17" width="10.4" height="76.5"></rect>
			<path class="st20" d="M1272.8,582.7c-1.3,0.6-2.7,1-4.1,1.3L1272.8,582.7z"></path>
			<path class="st20" d="M1283.6,566.1c0,7.4-4.4,13.8-10.8,16.6h0l-4.1,1.3l-34.4,10.7l-36.4-10.6c-8.7-1.3-15.5-8.9-15.5-18
				c0-10,8.1-18.2,18.2-18.2c0.6,0,1.2,0,1.7,0.1c-0.3-1.3-0.4-2.6-0.4-4c0-10,8.1-18.2,18.2-18.2c5.4,0,10.3,2.4,13.6,6.2
				c3.3-3.8,8.2-6.2,13.6-6.2c10,0,18.2,8.1,18.2,18.2c0,1.3-0.1,2.6-0.4,3.9c0.1,0,0.3,0,0.4,0
				C1275.5,548,1283.6,556.1,1283.6,566.1z"></path>
			<path class="st21" d="M1283.6,566.1c0,7.4-4.4,13.8-10.8,16.6h0l-4.1,1.3l-34.4,10.7l-36.4-10.6c-8.7-1.3-15.5-8.9-15.5-18
				c0-10,8.1-18.2,18.2-18.2c0.6,0,1.2,0,1.7,0.1c-0.3-1.3-0.4-2.6-0.4-4c0-10,8.1-18.2,18.2-18.2c5.4,0,10.3,2.4,13.6,6.2
				c3.3-3.8,8.2-6.2,13.6-6.2c10,0,18.2,8.1,18.2,18.2c0,1.3-0.1,2.6-0.4,3.9c0.1,0,0.3,0,0.4,0
				C1275.5,548,1283.6,556.1,1283.6,566.1z"></path>
			<path class="st22" d="M1266.4,575.8c0,4.9-2.9,9.1-7.1,11h0l-2.7,0.8l-22.7,7.1l-24.1-7c-5.8-0.9-10.2-5.9-10.2-11.9
				c0-6.6,5.4-12,12-12c0.4,0,0.8,0,1.1,0.1c-0.2-0.8-0.3-1.7-0.3-2.6c0-6.6,5.4-12,12-12c3.6,0,6.8,1.6,9,4.1
				c2.2-2.5,5.4-4.1,9-4.1c6.6,0,12,5.4,12,12c0,0.9-0.1,1.7-0.3,2.6c0.1,0,0.2,0,0.3,0C1261,563.8,1266.4,569.2,1266.4,575.8z"></path>
			<path class="st21" d="M1222,579.8h24.6c-0.5,1.8-1.5,4.8-3.9,7.8c-3.3,4.1-7.2,5.8-9.1,6.5c-2.1-1.3-5-3.4-7.8-6.5
				C1223.3,584.7,1223,581.9,1222,579.8z"></path>
			</g>
			<g>
			<rect x="1470.1" y="1019.4" class="st25" width="10.4" height="76.5"></rect>
			<path class="st20" d="M1513.8,1008.7c-1.3,0.6-2.7,1-4.1,1.3L1513.8,1008.7z"></path>
			<path class="st20" d="M1524.6,992.1c0,7.4-4.4,13.8-10.8,16.6h0l-4.1,1.3l-34.4,10.7l-36.4-10.6c-8.7-1.3-15.5-8.9-15.5-18
				c0-10,8.1-18.2,18.2-18.2c0.6,0,1.2,0,1.7,0.1c-0.3-1.3-0.4-2.6-0.4-4c0-10,8.1-18.2,18.2-18.2c5.4,0,10.3,2.4,13.6,6.2
				c3.3-3.8,8.2-6.2,13.6-6.2c10,0,18.2,8.1,18.2,18.2c0,1.3-0.1,2.6-0.4,3.9c0.1,0,0.3,0,0.4,0
				C1516.5,974,1524.6,982.1,1524.6,992.1z"></path>
			<path class="st26" d="M1524.6,992.1c0,7.4-4.4,13.8-10.8,16.6h0l-4.1,1.3l-34.4,10.7l-36.4-10.6c-8.7-1.3-15.5-8.9-15.5-18
				c0-10,8.1-18.2,18.2-18.2c0.6,0,1.2,0,1.7,0.1c-0.3-1.3-0.4-2.6-0.4-4c0-10,8.1-18.2,18.2-18.2c5.4,0,10.3,2.4,13.6,6.2
				c3.3-3.8,8.2-6.2,13.6-6.2c10,0,18.2,8.1,18.2,18.2c0,1.3-0.1,2.6-0.4,3.9c0.1,0,0.3,0,0.4,0
				C1516.5,974,1524.6,982.1,1524.6,992.1z"></path>
			<path class="st22" d="M1507.4,1001.8c0,4.9-2.9,9.1-7.1,11h0l-2.7,0.8l-22.7,7.1l-24.1-7c-5.8-0.9-10.2-5.9-10.2-11.9
				c0-6.6,5.4-12,12-12c0.4,0,0.8,0,1.1,0.1c-0.2-0.8-0.3-1.7-0.3-2.6c0-6.6,5.4-12,12-12c3.6,0,6.8,1.6,9,4.1
				c2.2-2.5,5.4-4.1,9-4.1c6.6,0,12,5.4,12,12c0,0.9-0.1,1.7-0.3,2.6c0.1,0,0.2,0,0.3,0C1502,989.8,1507.4,995.2,1507.4,1001.8z"></path>
			<path class="st26" d="M1463,1005.8h24.6c-0.5,1.8-1.5,4.8-3.9,7.8c-3.3,4.1-7.2,5.8-9.1,6.5c-2.1-1.3-5-3.4-7.8-6.5
				C1464.3,1010.7,1464,1007.9,1463,1005.8z"></path>
			</g>
			<g>
			<rect x="1691.1" y="790.4" class="st17" width="10.4" height="76.5"></rect>
			<path class="st20" d="M1734.8,779.7c-1.3,0.6-2.7,1-4.1,1.3L1734.8,779.7z"></path>
			<path class="st20" d="M1745.6,763.1c0,7.4-4.4,13.8-10.8,16.6h0l-4.1,1.3l-34.4,10.7l-36.4-10.6c-8.7-1.3-15.5-8.9-15.5-18
				c0-10,8.1-18.2,18.2-18.2c0.6,0,1.2,0,1.7,0.1c-0.3-1.3-0.4-2.6-0.4-4c0-10,8.1-18.2,18.2-18.2c5.4,0,10.3,2.4,13.6,6.2
				c3.3-3.8,8.2-6.2,13.6-6.2c10,0,18.2,8.1,18.2,18.2c0,1.3-0.1,2.6-0.4,3.9c0.1,0,0.3,0,0.4,0
				C1737.5,745,1745.6,753.1,1745.6,763.1z"></path>
			<path class="st21" d="M1745.6,763.1c0,7.4-4.4,13.8-10.8,16.6h0l-4.1,1.3l-34.4,10.7l-36.4-10.6c-8.7-1.3-15.5-8.9-15.5-18
				c0-10,8.1-18.2,18.2-18.2c0.6,0,1.2,0,1.7,0.1c-0.3-1.3-0.4-2.6-0.4-4c0-10,8.1-18.2,18.2-18.2c5.4,0,10.3,2.4,13.6,6.2
				c3.3-3.8,8.2-6.2,13.6-6.2c10,0,18.2,8.1,18.2,18.2c0,1.3-0.1,2.6-0.4,3.9c0.1,0,0.3,0,0.4,0
				C1737.5,745,1745.6,753.1,1745.6,763.1z"></path>
			<path class="st22" d="M1728.4,772.8c0,4.9-2.9,9.1-7.1,11h0l-2.7,0.8l-22.7,7.1l-24.1-7c-5.8-0.9-10.2-5.9-10.2-11.9
				c0-6.6,5.4-12,12-12c0.4,0,0.8,0,1.1,0.1c-0.2-0.8-0.3-1.7-0.3-2.6c0-6.6,5.4-12,12-12c3.6,0,6.8,1.6,9,4.1
				c2.2-2.5,5.4-4.1,9-4.1c6.6,0,12,5.4,12,12c0,0.9-0.1,1.7-0.3,2.6c0.1,0,0.2,0,0.3,0C1723,760.8,1728.4,766.2,1728.4,772.8z"></path>
			<path class="st21" d="M1684,776.8h24.6c-0.5,1.8-1.5,4.8-3.9,7.8c-3.3,4.1-7.2,5.8-9.1,6.5c-2.1-1.3-5-3.4-7.8-6.5
				C1685.3,781.7,1685,778.9,1684,776.8z"></path>
			</g>
		</g>
		<g>
			<path class="st27" d="M1136.5,1100.8c-4.4-38.6-5-104.6-2-143.4c0.6-7.8,11.3-9.3,14.1-2c12.4,33.5,24.9,67,37.3,100.5
			c2.3,6.1,10.8,6.4,13.5,0.4c0.7-1.7,1.6-3.3,2.9-4.4c7-6.7,17.6,4.1,19.3,13.7c0.6,3.4,1.2,7.2,2.1,10.8
			c1.9,7.2,12.1,7.3,14.1,0.1l7.7-28.8c1.9-7,11.7-7.2,13.9-0.4l7.7,23.7c2.5,7.6,13.5,6.2,14.2-1.7l4.9-63.4
			c0.6-8,11.9-9.2,14.2-1.6c8.5,28,18.1,55.7,30.7,81.9c3,6.2,12.1,5.2,13.6-1.6l3.6-16.1c1.6-7,11.1-7.7,13.8-1.1
			c2.7,6.7,5.8,13.2,9.3,19.5c3.3,6,12.3,4.6,13.5-2.2c3.1-17.9,5.4-36,6.9-54.1c0.6-7.9,11.5-9.3,14.1-1.8
			c5.3,15.3,11.6,30.3,19,44.7c3.4,6.7,13.5,4.4,13.7-3.1l1.5-44.3c0.3-8,11.4-9.7,14.1-2.2l17.9,50.8c2.6,7.3,13.2,6,14.1-1.6
			c1.1-9.4,1.7-18.8,1.9-28.2c0.2-7.6,10.5-9.9,13.8-3.1c1.7,3.4,3.4,6.8,5.3,10.1c3.3,5.9,12.2,4.6,13.5-2.1
			c2.2-11.4,3.7-23,4.2-34.7c0.4-8.3,12.2-9.5,14.3-1.5c4,15.4,7.2,31,9.6,46.8c0,0.1,0,0.3,0.1,0.4l3.2,33.1c0.4,4.2-2.8,7.8-7,8
			l-213.6,6.6c-0.4,0-0.9,0-1.3-0.1l-186.4-1.2c-1,0-2.1-0.2-3-0.6C1138.4,1105.5,1136.8,1103.4,1136.5,1100.8z"></path>
		</g>
		<g>
			<path class="st28" d="M1754.2,1094c2.8-36.4,2.2-73.1-2-109.4c-0.8-7.3-11-8.3-13.3-1.3c-10.6,31.9-21.2,63.7-31.7,95.6
			c-1.9,5.8-10,6.3-12.6,0.8c-0.8-1.6-1.6-3-2.8-4.1c-6.8-6.1-16.4,4.4-17.7,13.5c-0.5,3.3-0.9,6.9-1.7,10.3
			c-1.5,6.8-11.1,7.1-13.2,0.4l-8.2-26.8c-2-6.5-11.2-6.4-13.1,0.1l-6.5,22.5c-2.1,7.2-12.5,6.3-13.3-1.1l-6.7-59.4
			c-0.8-7.5-11.4-8.3-13.4-1c-7.1,26.6-15.1,52.9-26.1,77.9c-2.6,5.9-11.2,5.3-12.9-1l-3.9-15c-1.7-6.5-10.7-6.9-13-0.6
			c-2.3,6.3-5,12.5-8.1,18.5c-2.9,5.8-11.5,4.7-12.8-1.6c-3.5-16.7-6.3-33.6-8.2-50.6c-0.8-7.3-11.1-8.3-13.3-1.2
			c-4.4,14.5-9.9,28.7-16.3,42.5c-3,6.4-12.5,4.7-13-2.4l-2.9-41.5c-0.5-7.5-11.1-8.8-13.3-1.6l-15.2,48.3
			c-2.2,6.9-12.2,6.1-13.3-1.1c-1.3-8.8-2.2-17.6-2.7-26.5c-0.4-7.2-10.1-8.9-13.1-2.4c-1.4,3.3-3,6.5-4.6,9.6
			c-2.9,5.7-11.3,4.7-12.7-1.5c-2.5-10.7-4.2-21.5-5.1-32.4c-0.7-7.8-11.8-8.5-13.5-0.9c-3.2,14.6-5.7,29.4-7.4,44.2
			c0,0.1,0,0.3,0,0.4l-1.9,31.2c-0.2,3.9,2.9,7.3,6.8,7.2l200.8-0.8c0.4,0,0.8,0,1.2-0.1l175-32.7
			C1751.7,1099.6,1753.9,1097.1,1754.2,1094z"></path>
		</g>
		<g>
			<path class="st28" d="M1630.8,868.8c-2.1,7.3,3.8,14.3,11.4,13.6c55.4-5.5,110.7-11,166.1-16.5c3.1-0.3,5.6-2.6,6.1-5.7
			c5.9-36,8.3-72.6,7.2-109.1c-0.2-7.3-10.2-9.3-13.1-2.5c-13.2,30.9-26.4,61.7-39.6,92.6c-2.4,5.6-10.5,5.5-12.7-0.3
			c-0.6-1.6-1.4-3.1-2.5-4.3c-6.3-6.6-16.7,3.1-18.8,11.9c-0.7,3.2-1.5,6.8-2.5,10.1c-2.1,6.7-11.7,6.2-13.2-0.7l-5.9-27.4
			c-1.4-6.6-10.6-7.3-13.1-1l-8.3,21.9c-2.7,7-13,5.2-13.2-2.2l-1.7-59.7c-0.2-7.5-10.7-9.2-13.2-2.1c-5.6,15.6-18.5,38.2-29,68.7
			c-0.5,1.4-2.1,6-3.9,12.4C1630.9,868.7,1630.8,868.8,1630.8,868.8z"></path>
		</g>
		<g class="treesOrangeGroup">
			<g class="treesOrange" data-svg-origin="1553.1500244140625 674.9000244140625" style="transform: matrix3d(0.999939, 0.0110727, 0, 0, -0.0110727, 0.999939, 0, 0, 0, 0, 1, 0, 7.56818, -17.1562, 0, 1); transform-origin: 0px 0px 0px;">
			<path class="st23" d="M1553.2,432.5c0,0.1-0.1,0.3-0.2,0.4"></path>
			<rect x="1550" y="619.9" class="st24" width="6" height="55"></rect>
			<path class="st23" d="M1554.8,524.4c5.5-5.5,8.8-6.2,10.8-5.5c2.4,0.8,2.6,3.3,6.4,5c1.2,0.5,4.4,2,7.7,0.5
				c3.3-1.6,4.2-5.2,4.2-5.5c0.8-4.2-2.2-7.6-2.8-8.3c-2.9-3.2-7.4-4.1-11.2-5.5c-1.3-0.5-5.5-2.2-9.6-5.9
				c-2.5-2.2-4.7-4.3-4.9-7.2c-0.1-2.1,0.9-19,0-19.8c-0.6-0.5-1.6-0.3-2.4-0.1c0,12.4,0,39.8,0,52.1H1554.8z"></path>
			<path class="st23" d="M1553,519.9v34c-0.1-1.2,0.1-2.1,1.3-2s2.3,0.9,3.4,1.6c3.7,2.3,8.6,3.6,12.2,1.3c1.2-0.8,1.2-1.3,2.8-2
				c0.5-0.2,2.8-1.3,5.3-0.8c2.7,0.5,2.6,2.3,6,4c1.4,0.7,4.3,2.2,7,1c2-0.9,2.9-2.8,3-3c1.9-4.3-2.5-9.4-3.2-10.2
				c-2.3-2.6-4.3-3.2-9.8-5.8c-3.4-1.6-10.1-4.7-15-8c-2.9-1.9-6.9-5.1-11-10.3L1553,519.9z"></path>
			<path class="st23" d="M1555.3,595.4c5.5-5.6,8.8-6.1,10.8-5.5c2.5,0.8,2.9,3.3,6.9,5c1.4,0.6,4.3,1.8,7.2,0.5
				c3.3-1.5,4.1-5.2,4.2-5.5c0.8-4.2-2.2-7.6-2.8-8.3c-1.8-2-3.3-2.4-11.2-5.5c-4.2-1.6-7.7-2.4-10.3-5.2c-3.1-3.4-3.8-7.8-4-9
				c-0.6-4.5-0.1-7.8-0.1-7.8c0.3-2.1,0.9-4,0-4.8c-0.6-0.5-1.6-0.3-2.4-0.1c0,12.4,0,33.8,0,46.1H1555.3z"></path>
			<path class="st23" d="M1575,451.9C1575,451.9,1575,451.9,1575,451.9c-0.4,1.6-1.5,3.2-3,4c-2.2,1.1-4.5,0.2-5,0
				c-2.9-1.2-3.1-3.6-5-4c-0.2,0-1.1-0.1-2,0.3c-1.6,0.8-1.5,2.5-3,3.7c-0.6,0.4-1.5,0.9-3,1l0,0c-2,0.1-3.2-0.5-4-1
				c-1.9-1.3-2-3.5-4-4c-0.8-0.2-1.5-0.1-1.7,0c-2.2,0.5-2.1,2.9-4.3,4c-0.3,0.1-3,1.4-5.7,0c-0.2-0.1-2.5-1.4-3-4
				c-0.6-3,1.6-5.5,2-6c1.7-1.9,2.9-1.6,8-4c3.9-1.8,6-3.3,7-4c3-2.2,4.2-3.9,4.7-5c0.1-0.1,0.1-0.3,0.2-0.4c0,0.1,0.1,0.3,0.2,0.4
				c0.5,1.2,1.6,2.8,4.7,5c1,0.7,3.1,2.2,7,4c5.1,2.4,6.3,2.1,8,4C1573.4,446.4,1575.6,448.9,1575,451.9z"></path>
			<path class="st23" d="M1553.3,432.9c-0.1-0.1-0.1-0.3-0.2-0.4"></path>
			<path class="st23" d="M1551.5,524.4c-5.5-5.5-8.8-6.1-10.8-5.5c-2.5,0.8-2.8,3.3-6.7,5c-1.3,0.6-4.3,1.9-7.4,0.5
				c-3.3-1.5-4.2-5.2-4.2-5.5c-0.8-4.2,2.2-7.6,2.8-8.3c2.9-3.2,7.4-4.1,11.2-5.5c1.3-0.5,5.5-2.2,9.6-5.9c2.5-2.2,4.7-4.3,4.9-7.2
				c0.1-2.1-0.9-19,0-19.8c0.6-0.5,1.6-0.3,2.4-0.1c0,12.4,0,39.8,0,52.1H1551.5z"></path>
			<path class="st23" d="M1553.3,519.9v34c0.1-1.2-0.1-2.1-1.3-2s-2.3,0.9-3.4,1.6c-3.7,2.3-8.6,3.6-12.2,1.3
				c-1.2-0.8-1.2-1.3-2.8-2c-0.5-0.2-2.8-1.3-5.3-0.8c-2.7,0.5-2.6,2.3-6,4c-1.4,0.7-4.3,2.2-7,1c-2-0.9-2.9-2.8-3-3
				c-1.9-4.3,2.5-9.4,3.2-10.2c2.3-2.6,4.3-3.2,9.8-5.8c3.4-1.6,10.1-4.7,15-8c2.9-1.9,6.9-5.1,11-10.3L1553.3,519.9z"></path>
			<path class="st23" d="M1551,595.4c-5.5-5.5-8.8-6.2-10.8-5.5c-2.4,0.8-2.5,3.3-6.2,5c-1,0.5-4.5,2.1-7.9,0.5
				c-3.3-1.6-4.1-5.2-4.2-5.5c-0.8-4.2,2.2-7.6,2.8-8.3c1.6-1.8,2.9-2.3,11.2-5.5c3.8-1.5,7.2-2.3,10-5.2c0.8-0.9,3-3.3,4-7
				c0.4-1.4,1.1-5.2,0.4-9.8c-0.3-2.1-0.9-4,0-4.8c0.6-0.5,1.6-0.3,2.4-0.1c0,12.4,0,33.8,0,46.1H1551z"></path>
			<rect x="1551" y="445.9" class="st23" width="4" height="177"></rect>
			<path class="st23" d="M1550.8,482.4c-0.7-0.9-1.9-2.3-3.9-3.3c-1.5-0.8-3.3-1.7-5.1-1.3c-2.9,0.7-2.4,3.9-5.7,5.1
				c-3,1.1-5.9-0.4-6-0.5c-0.4-0.2-2.9-1.7-3.5-4.6c-0.7-3.5,1.8-6.4,2.4-6.9c2.4-2.7,6.2-3.4,9.4-4.6c1.1-0.4,4.6-1.8,8-4.9
				c2.1-1.9,4-3.6,4.1-6c0.1-1.8-0.8-3.3,0-4c0.5-0.4,1.3-0.3,2-0.1c0,10.4,0,20.7,0,31.1H1550.8z"></path>
			<path class="st23" d="M1555.5,482.4c0.8-1,2.2-2.4,4.5-3.5c1.6-0.7,3-1.4,4.6-1.1c2.4,0.5,2.4,2.7,5.4,4.1
				c1.1,0.5,3.7,1.7,6.3,0.5c2.8-1.3,3.5-4.4,3.5-4.6c0.7-3.5-1.8-6.4-2.4-6.9c-2.4-2.7-6.2-3.4-9.4-4.6c-1.1-0.4-4.6-1.8-8-4.9
				c-2.1-1.9-4-3.6-4.1-6c-0.1-1.8,0.8-3.3,0-4c-0.5-0.4-1.3-0.3-2-0.1c0,10.4,0,20.7,0,31.1H1555.5z"></path>
			<path class="st23" d="M1550.8,622.4c-0.7-0.9-1.9-2.3-3.9-3.3c-1.5-0.8-3.3-1.7-5.1-1.3c-2.9,0.7-2.4,3.9-5.7,5.1
				c-3,1.1-5.9-0.4-6-0.5c-0.4-0.2-2.9-1.7-3.5-4.6c-0.7-3.5,1.8-6.4,2.4-6.9c2.4-2.7,6.2-3.4,9.4-4.6c1.1-0.4,4.6-1.8,8-4.9
				c2.1-1.9,4-3.6,4.1-6c0.1-1.8-0.8-3.3,0-4c0.5-0.4,1.3-0.3,2-0.1c0,10.4,0,20.7,0,31.1H1550.8z"></path>
			<path class="st23" d="M1555.5,622.4c0.8-1,2.2-2.4,4.5-3.5c1.6-0.7,3-1.4,4.6-1.1c2.4,0.5,2.4,2.7,5.4,4.1
				c1.1,0.5,3.7,1.7,6.3,0.5c2.8-1.3,3.5-4.4,3.5-4.6c0.7-3.5-1.8-6.4-2.4-6.9c-2.4-2.7-6.2-3.4-9.4-4.6c-1.1-0.4-4.6-1.8-8-4.9
				c-2.1-1.9-4-3.6-4.1-6c-0.1-1.8,0.8-3.3,0-4c-0.5-0.4-1.3-0.3-2-0.1c0,10.4,0,20.7,0,31.1H1555.5z"></path>
			</g>
			<g class="treesOrange" data-svg-origin="1044.1500549316406 814.9000244140625" style="transform: matrix3d(0.999939, 0.0110727, 0, 0, -0.0110727, 0.999939, 0, 0, 0, 0, 1, 0, 9.08716, -11.5116, 0, 1); transform-origin: 0px 0px 0px;">
			<path class="st23" d="M1044.2,572.5c0,0.1-0.1,0.3-0.2,0.4"></path>
			<rect x="1041" y="759.9" class="st24" width="6" height="55"></rect>
			<path class="st23" d="M1045.8,664.4c5.5-5.5,8.8-6.2,10.8-5.5c2.4,0.8,2.6,3.3,6.4,5c1.2,0.5,4.4,2,7.7,0.5
				c3.3-1.6,4.2-5.2,4.2-5.5c0.8-4.2-2.2-7.6-2.8-8.3c-2.9-3.2-7.4-4.1-11.2-5.5c-1.3-0.5-5.5-2.2-9.6-5.9
				c-2.5-2.2-4.7-4.3-4.9-7.2c-0.1-2.1,0.9-19,0-19.8c-0.6-0.5-1.6-0.3-2.4-0.1c0,12.4,0,39.8,0,52.1H1045.8z"></path>
			<path class="st23" d="M1044,659.9v34c-0.1-1.2,0.1-2.1,1.3-2s2.3,0.9,3.4,1.6c3.7,2.3,8.6,3.6,12.2,1.3c1.2-0.8,1.2-1.3,2.8-2
				c0.5-0.2,2.8-1.3,5.3-0.8c2.7,0.5,2.6,2.3,6,4c1.4,0.7,4.3,2.2,7,1c2-0.9,2.9-2.8,3-3c1.9-4.3-2.5-9.4-3.2-10.2
				c-2.3-2.6-4.3-3.2-9.8-5.8c-3.4-1.6-10.1-4.7-15-8c-2.9-1.9-6.9-5.1-11-10.3L1044,659.9z"></path>
			<path class="st23" d="M1046.3,735.4c5.5-5.6,8.8-6.1,10.8-5.5c2.5,0.8,2.9,3.3,6.9,5c1.4,0.6,4.3,1.8,7.2,0.5
				c3.3-1.5,4.1-5.2,4.2-5.5c0.8-4.2-2.2-7.6-2.8-8.3c-1.8-2-3.3-2.4-11.2-5.5c-4.2-1.6-7.7-2.4-10.3-5.2c-3.1-3.4-3.8-7.8-4-9
				c-0.6-4.5-0.1-7.8-0.1-7.8c0.3-2.1,0.9-4,0-4.8c-0.6-0.5-1.6-0.3-2.4-0.1c0,12.4,0,33.8,0,46.1H1046.3z"></path>
			<path class="st23" d="M1066,591.9C1066,591.9,1066,591.9,1066,591.9c-0.4,1.6-1.5,3.2-3,4c-2.2,1.1-4.5,0.2-5,0
				c-2.9-1.2-3.1-3.6-5-4c-0.2,0-1.1-0.1-2,0.3c-1.6,0.8-1.5,2.5-3,3.7c-0.6,0.4-1.5,0.9-3,1l0,0c-2,0.1-3.2-0.5-4-1
				c-1.9-1.3-2-3.5-4-4c-0.8-0.2-1.5-0.1-1.7,0c-2.2,0.5-2.1,2.9-4.3,4c-0.3,0.1-3,1.4-5.7,0c-0.2-0.1-2.5-1.4-3-4
				c-0.6-3,1.6-5.5,2-6c1.7-1.9,2.9-1.6,8-4c3.9-1.8,6-3.3,7-4c3-2.2,4.2-3.9,4.7-5c0.1-0.1,0.1-0.3,0.2-0.4c0,0.1,0.1,0.3,0.2,0.4
				c0.5,1.2,1.6,2.8,4.7,5c1,0.7,3.1,2.2,7,4c5.1,2.4,6.3,2.1,8,4C1064.4,586.4,1066.6,588.9,1066,591.9z"></path>
			<path class="st23" d="M1044.3,572.9c-0.1-0.1-0.1-0.3-0.2-0.4"></path>
			<path class="st23" d="M1042.5,664.4c-5.5-5.5-8.8-6.1-10.8-5.5c-2.5,0.8-2.8,3.3-6.7,5c-1.3,0.6-4.3,1.9-7.4,0.5
				c-3.3-1.5-4.2-5.2-4.2-5.5c-0.8-4.2,2.2-7.6,2.8-8.3c2.9-3.2,7.4-4.1,11.2-5.5c1.3-0.5,5.5-2.2,9.6-5.9c2.5-2.2,4.7-4.3,4.9-7.2
				c0.1-2.1-0.9-19,0-19.8c0.6-0.5,1.6-0.3,2.4-0.1c0,12.4,0,39.8,0,52.1H1042.5z"></path>
			<path class="st23" d="M1044.3,659.9v34c0.1-1.2-0.1-2.1-1.3-2s-2.3,0.9-3.4,1.6c-3.7,2.3-8.6,3.6-12.2,1.3
				c-1.2-0.8-1.2-1.3-2.8-2c-0.5-0.2-2.8-1.3-5.3-0.8c-2.7,0.5-2.6,2.3-6,4c-1.4,0.7-4.3,2.2-7,1c-2-0.9-2.9-2.8-3-3
				c-1.9-4.3,2.5-9.4,3.2-10.2c2.3-2.6,4.3-3.2,9.8-5.8c3.4-1.6,10.1-4.7,15-8c2.9-1.9,6.9-5.1,11-10.3L1044.3,659.9z"></path>
			<path class="st23" d="M1042,735.4c-5.5-5.5-8.8-6.2-10.8-5.5c-2.4,0.8-2.5,3.3-6.2,5c-1,0.5-4.5,2.1-7.9,0.5
				c-3.3-1.6-4.1-5.2-4.2-5.5c-0.8-4.2,2.2-7.6,2.8-8.3c1.6-1.8,2.9-2.3,11.2-5.5c3.8-1.5,7.2-2.3,10-5.2c0.8-0.9,3-3.3,4-7
				c0.4-1.4,1.1-5.2,0.4-9.8c-0.3-2.1-0.9-4,0-4.8c0.6-0.5,1.6-0.3,2.4-0.1c0,12.4,0,33.8,0,46.1H1042z"></path>
			<rect x="1042" y="585.9" class="st23" width="4" height="177"></rect>
			<path class="st23" d="M1041.8,622.4c-0.7-0.9-1.9-2.3-3.9-3.3c-1.5-0.8-3.3-1.7-5.1-1.3c-2.9,0.7-2.4,3.9-5.7,5.1
				c-3,1.1-5.9-0.4-6-0.5c-0.4-0.2-2.9-1.7-3.5-4.6c-0.7-3.5,1.8-6.4,2.4-6.9c2.4-2.7,6.2-3.4,9.4-4.6c1.1-0.4,4.6-1.8,8-4.9
				c2.1-1.9,4-3.6,4.1-6c0.1-1.8-0.8-3.3,0-4c0.5-0.4,1.3-0.3,2-0.1c0,10.4,0,20.7,0,31.1H1041.8z"></path>
			<path class="st23" d="M1046.5,622.4c0.8-1,2.2-2.4,4.5-3.5c1.6-0.7,3-1.4,4.6-1.1c2.4,0.5,2.4,2.7,5.4,4.1
				c1.1,0.5,3.7,1.7,6.3,0.5c2.8-1.3,3.5-4.4,3.5-4.6c0.7-3.5-1.8-6.4-2.4-6.9c-2.4-2.7-6.2-3.4-9.4-4.6c-1.1-0.4-4.6-1.8-8-4.9
				c-2.1-1.9-4-3.6-4.1-6c-0.1-1.8,0.8-3.3,0-4c-0.5-0.4-1.3-0.3-2-0.1c0,10.4,0,20.7,0,31.1H1046.5z"></path>
			<path class="st23" d="M1041.8,762.4c-0.7-0.9-1.9-2.3-3.9-3.3c-1.5-0.8-3.3-1.7-5.1-1.3c-2.9,0.7-2.4,3.9-5.7,5.1
				c-3,1.1-5.9-0.4-6-0.5c-0.4-0.2-2.9-1.7-3.5-4.6c-0.7-3.5,1.8-6.4,2.4-6.9c2.4-2.7,6.2-3.4,9.4-4.6c1.1-0.4,4.6-1.8,8-4.9
				c2.1-1.9,4-3.6,4.1-6c0.1-1.8-0.8-3.3,0-4c0.5-0.4,1.3-0.3,2-0.1c0,10.4,0,20.7,0,31.1H1041.8z"></path>
			<path class="st23" d="M1046.5,762.4c0.8-1,2.2-2.4,4.5-3.5c1.6-0.7,3-1.4,4.6-1.1c2.4,0.5,2.4,2.7,5.4,4.1
				c1.1,0.5,3.7,1.7,6.3,0.5c2.8-1.3,3.5-4.4,3.5-4.6c0.7-3.5-1.8-6.4-2.4-6.9c-2.4-2.7-6.2-3.4-9.4-4.6c-1.1-0.4-4.6-1.8-8-4.9
				c-2.1-1.9-4-3.6-4.1-6c-0.1-1.8,0.8-3.3,0-4c-0.5-0.4-1.3-0.3-2-0.1c0,10.4,0,20.7,0,31.1H1046.5z"></path>
			</g>
			<g class="treesOrange" data-svg-origin="1234.1500244140625 1085.9000244140625" style="transform: matrix3d(0.999939, 0.0110727, 0, 0, -0.0110727, 0.999939, 0, 0, 0, 0, 1, 0, 12.0995, -13.5988, 0, 1); transform-origin: 0px 0px 0px;">
			<path class="st23" d="M1234.2,843.5c0,0.1-0.1,0.3-0.2,0.4"></path>
			<rect x="1231" y="1030.9" class="st24" width="6" height="55"></rect>
			<path class="st23" d="M1235.8,935.4c5.5-5.5,8.8-6.2,10.8-5.5c2.4,0.8,2.6,3.3,6.4,5c1.2,0.5,4.4,2,7.7,0.5
				c3.3-1.6,4.2-5.2,4.2-5.5c0.8-4.2-2.2-7.6-2.8-8.3c-2.9-3.2-7.4-4.1-11.2-5.5c-1.3-0.5-5.5-2.2-9.6-5.9
				c-2.5-2.2-4.7-4.3-4.9-7.2c-0.1-2.1,0.9-19,0-19.8c-0.6-0.5-1.6-0.3-2.4-0.1c0,12.4,0,39.8,0,52.1H1235.8z"></path>
			<path class="st23" d="M1234,930.9v34c-0.1-1.2,0.1-2.1,1.3-2s2.3,0.9,3.4,1.6c3.7,2.3,8.6,3.6,12.2,1.3c1.2-0.8,1.2-1.3,2.8-2
				c0.5-0.2,2.8-1.3,5.3-0.8c2.7,0.5,2.6,2.3,6,4c1.4,0.7,4.3,2.2,7,1c2-0.9,2.9-2.8,3-3c1.9-4.3-2.5-9.4-3.2-10.2
				c-2.3-2.6-4.3-3.2-9.8-5.8c-3.4-1.6-10.1-4.7-15-8c-2.9-1.9-6.9-5.1-11-10.3L1234,930.9z"></path>
			<path class="st23" d="M1236.3,1006.4c5.5-5.6,8.8-6.1,10.8-5.5c2.5,0.8,2.9,3.3,6.9,5c1.4,0.6,4.3,1.8,7.2,0.5
				c3.3-1.5,4.1-5.2,4.2-5.5c0.8-4.2-2.2-7.6-2.8-8.3c-1.8-2-3.3-2.4-11.2-5.5c-4.2-1.6-7.7-2.4-10.3-5.2c-3.1-3.4-3.8-7.8-4-9
				c-0.6-4.5-0.1-7.8-0.1-7.8c0.3-2.1,0.9-4,0-4.8c-0.6-0.5-1.6-0.3-2.4-0.1c0,12.4,0,33.8,0,46.1H1236.3z"></path>
			<path class="st23" d="M1256,862.9C1256,862.9,1256,862.9,1256,862.9c-0.4,1.6-1.5,3.2-3,4c-2.2,1.1-4.5,0.2-5,0
				c-2.9-1.2-3.1-3.6-5-4c-0.2,0-1.1-0.1-2,0.3c-1.6,0.8-1.5,2.5-3,3.7c-0.6,0.4-1.5,0.9-3,1l0,0c-2,0.1-3.2-0.5-4-1
				c-1.9-1.3-2-3.5-4-4c-0.8-0.2-1.5-0.1-1.7,0c-2.2,0.5-2.1,2.9-4.3,4c-0.3,0.1-3,1.4-5.7,0c-0.2-0.1-2.5-1.4-3-4
				c-0.6-3,1.6-5.5,2-6c1.7-1.9,2.9-1.6,8-4c3.9-1.8,6-3.3,7-4c3-2.2,4.2-3.9,4.7-5c0.1-0.1,0.1-0.3,0.2-0.4c0,0.1,0.1,0.3,0.2,0.4
				c0.5,1.2,1.6,2.8,4.7,5c1,0.7,3.1,2.2,7,4c5.1,2.4,6.3,2.1,8,4C1254.4,857.4,1256.6,859.9,1256,862.9z"></path>
			<path class="st23" d="M1234.3,843.9c-0.1-0.1-0.1-0.3-0.2-0.4"></path>
			<path class="st23" d="M1232.5,935.4c-5.5-5.5-8.8-6.1-10.8-5.5c-2.5,0.8-2.8,3.3-6.7,5c-1.3,0.6-4.3,1.9-7.4,0.5
				c-3.3-1.5-4.2-5.2-4.2-5.5c-0.8-4.2,2.2-7.6,2.8-8.3c2.9-3.2,7.4-4.1,11.2-5.5c1.3-0.5,5.5-2.2,9.6-5.9c2.5-2.2,4.7-4.3,4.9-7.2
				c0.1-2.1-0.9-19,0-19.8c0.6-0.5,1.6-0.3,2.4-0.1c0,12.4,0,39.8,0,52.1H1232.5z"></path>
			<path class="st23" d="M1234.3,930.9v34c0.1-1.2-0.1-2.1-1.3-2s-2.3,0.9-3.4,1.6c-3.7,2.3-8.6,3.6-12.2,1.3
				c-1.2-0.8-1.2-1.3-2.8-2c-0.5-0.2-2.8-1.3-5.3-0.8c-2.7,0.5-2.6,2.3-6,4c-1.4,0.7-4.3,2.2-7,1c-2-0.9-2.9-2.8-3-3
				c-1.9-4.3,2.5-9.4,3.2-10.2c2.3-2.6,4.3-3.2,9.8-5.8c3.4-1.6,10.1-4.7,15-8c2.9-1.9,6.9-5.1,11-10.3L1234.3,930.9z"></path>
			<path class="st23" d="M1232,1006.4c-5.5-5.5-8.8-6.2-10.8-5.5c-2.4,0.8-2.5,3.3-6.2,5c-1,0.5-4.5,2.1-7.9,0.5
				c-3.3-1.6-4.1-5.2-4.2-5.5c-0.8-4.2,2.2-7.6,2.8-8.3c1.6-1.8,2.9-2.3,11.2-5.5c3.8-1.5,7.2-2.3,10-5.2c0.8-0.9,3-3.3,4-7
				c0.4-1.4,1.1-5.2,0.4-9.8c-0.3-2.1-0.9-4,0-4.8c0.6-0.5,1.6-0.3,2.4-0.1c0,12.4,0,33.8,0,46.1H1232z"></path>
			<rect x="1232" y="856.9" class="st23" width="4" height="177"></rect>
			<path class="st23" d="M1231.8,893.4c-0.7-0.9-1.9-2.3-3.9-3.3c-1.5-0.8-3.3-1.7-5.1-1.3c-2.9,0.7-2.4,3.9-5.7,5.1
				c-3,1.1-5.9-0.4-6-0.5c-0.4-0.2-2.9-1.7-3.5-4.6c-0.7-3.5,1.8-6.4,2.4-6.9c2.4-2.7,6.2-3.4,9.4-4.6c1.1-0.4,4.6-1.8,8-4.9
				c2.1-1.9,4-3.6,4.1-6c0.1-1.8-0.8-3.3,0-4c0.5-0.4,1.3-0.3,2-0.1c0,10.4,0,20.7,0,31.1H1231.8z"></path>
			<path class="st23" d="M1236.5,893.4c0.8-1,2.2-2.4,4.5-3.5c1.6-0.7,3-1.4,4.6-1.1c2.4,0.5,2.4,2.7,5.4,4.1
				c1.1,0.5,3.7,1.7,6.3,0.5c2.8-1.3,3.5-4.4,3.5-4.6c0.7-3.5-1.8-6.4-2.4-6.9c-2.4-2.7-6.2-3.4-9.4-4.6c-1.1-0.4-4.6-1.8-8-4.9
				c-2.1-1.9-4-3.6-4.1-6c-0.1-1.8,0.8-3.3,0-4c-0.5-0.4-1.3-0.3-2-0.1c0,10.4,0,20.7,0,31.1H1236.5z"></path>
			<path class="st23" d="M1231.8,1033.4c-0.7-0.9-1.9-2.3-3.9-3.3c-1.5-0.8-3.3-1.7-5.1-1.3c-2.9,0.7-2.4,3.9-5.7,5.1
				c-3,1.1-5.9-0.4-6-0.5c-0.4-0.2-2.9-1.7-3.5-4.6c-0.7-3.5,1.8-6.4,2.4-6.9c2.4-2.7,6.2-3.4,9.4-4.6c1.1-0.4,4.6-1.8,8-4.9
				c2.1-1.9,4-3.6,4.1-6c0.1-1.8-0.8-3.3,0-4c0.5-0.4,1.3-0.3,2-0.1c0,10.4,0,20.7,0,31.1H1231.8z"></path>
			<path class="st23" d="M1236.5,1033.4c0.8-1,2.2-2.4,4.5-3.5c1.6-0.7,3-1.4,4.6-1.1c2.4,0.5,2.4,2.7,5.4,4.1
				c1.1,0.5,3.7,1.7,6.3,0.5c2.8-1.3,3.5-4.4,3.5-4.6c0.7-3.5-1.8-6.4-2.4-6.9c-2.4-2.7-6.2-3.4-9.4-4.6c-1.1-0.4-4.6-1.8-8-4.9
				c-2.1-1.9-4-3.6-4.1-6c-0.1-1.8,0.8-3.3,0-4c-0.5-0.4-1.3-0.3-2-0.1c0,10.4,0,20.7,0,31.1H1236.5z"></path>
			</g>
			<g class="treesOrange" data-svg-origin="1816.1500244140625 898.9000244140625" style="transform: matrix3d(0.999939, 0.0110727, 0, 0, -0.0110727, 0.999939, 0, 0, 0, 0, 1, 0, 10.0646, -20.0546, 0, 1); transform-origin: 0px 0px 0px;">
			<path class="st23" d="M1816.2,656.5c0,0.1-0.1,0.3-0.2,0.4"></path>
			<rect x="1813" y="843.9" class="st24" width="6" height="55"></rect>
			<path class="st23" d="M1817.8,748.4c5.5-5.5,8.8-6.2,10.8-5.5c2.4,0.8,2.6,3.3,6.4,5c1.2,0.5,4.4,2,7.7,0.5
				c3.3-1.6,4.2-5.2,4.2-5.5c0.8-4.2-2.2-7.6-2.8-8.3c-2.9-3.2-7.4-4.1-11.2-5.5c-1.3-0.5-5.5-2.2-9.6-5.9
				c-2.5-2.2-4.7-4.3-4.9-7.2c-0.1-2.1,0.9-19,0-19.8c-0.6-0.5-1.6-0.3-2.4-0.1c0,12.4,0,39.8,0,52.1H1817.8z"></path>
			<path class="st23" d="M1816,743.9v34c-0.1-1.2,0.1-2.1,1.3-2s2.3,0.9,3.4,1.6c3.7,2.3,8.6,3.6,12.2,1.3c1.2-0.8,1.2-1.3,2.8-2
				c0.5-0.2,2.8-1.3,5.3-0.8c2.7,0.5,2.6,2.3,6,4c1.4,0.7,4.3,2.2,7,1c2-0.9,2.9-2.8,3-3c1.9-4.3-2.5-9.4-3.2-10.2
				c-2.3-2.6-4.3-3.2-9.8-5.8c-3.4-1.6-10.1-4.7-15-8c-2.9-1.9-6.9-5.1-11-10.3L1816,743.9z"></path>
			<path class="st23" d="M1818.3,819.4c5.5-5.6,8.8-6.1,10.8-5.5c2.5,0.8,2.9,3.3,6.9,5c1.4,0.6,4.3,1.8,7.2,0.5
				c3.3-1.5,4.1-5.2,4.2-5.5c0.8-4.2-2.2-7.6-2.8-8.3c-1.8-2-3.3-2.4-11.2-5.5c-4.2-1.6-7.7-2.4-10.3-5.2c-3.1-3.4-3.8-7.8-4-9
				c-0.6-4.5-0.1-7.8-0.1-7.8c0.3-2.1,0.9-4,0-4.8c-0.6-0.5-1.6-0.3-2.4-0.1c0,12.4,0,33.8,0,46.1H1818.3z"></path>
			<path class="st23" d="M1838,675.9C1838,675.9,1838,675.9,1838,675.9c-0.4,1.6-1.5,3.2-3,4c-2.2,1.1-4.5,0.2-5,0
				c-2.9-1.2-3.1-3.6-5-4c-0.2,0-1.1-0.1-2,0.3c-1.6,0.8-1.5,2.5-3,3.7c-0.6,0.4-1.5,0.9-3,1l0,0c-2,0.1-3.2-0.5-4-1
				c-1.9-1.3-2-3.5-4-4c-0.8-0.2-1.5-0.1-1.7,0c-2.2,0.5-2.1,2.9-4.3,4c-0.3,0.1-3,1.4-5.7,0c-0.2-0.1-2.5-1.4-3-4
				c-0.6-3,1.6-5.5,2-6c1.7-1.9,2.9-1.6,8-4c3.9-1.8,6-3.3,7-4c3-2.2,4.2-3.9,4.7-5c0.1-0.1,0.1-0.3,0.2-0.4c0,0.1,0.1,0.3,0.2,0.4
				c0.5,1.2,1.6,2.8,4.7,5c1,0.7,3.1,2.2,7,4c5.1,2.4,6.3,2.1,8,4C1836.4,670.4,1838.6,672.9,1838,675.9z"></path>
			<path class="st23" d="M1816.3,656.9c-0.1-0.1-0.1-0.3-0.2-0.4"></path>
			<path class="st23" d="M1814.5,748.4c-5.5-5.5-8.8-6.1-10.8-5.5c-2.5,0.8-2.8,3.3-6.7,5c-1.3,0.6-4.3,1.9-7.4,0.5
				c-3.3-1.5-4.2-5.2-4.2-5.5c-0.8-4.2,2.2-7.6,2.8-8.3c2.9-3.2,7.4-4.1,11.2-5.5c1.3-0.5,5.5-2.2,9.6-5.9c2.5-2.2,4.7-4.3,4.9-7.2
				c0.1-2.1-0.9-19,0-19.8c0.6-0.5,1.6-0.3,2.4-0.1c0,12.4,0,39.8,0,52.1H1814.5z"></path>
			<path class="st23" d="M1816.3,743.9v34c0.1-1.2-0.1-2.1-1.3-2s-2.3,0.9-3.4,1.6c-3.7,2.3-8.6,3.6-12.2,1.3
				c-1.2-0.8-1.2-1.3-2.8-2c-0.5-0.2-2.8-1.3-5.3-0.8c-2.7,0.5-2.6,2.3-6,4c-1.4,0.7-4.3,2.2-7,1c-2-0.9-2.9-2.8-3-3
				c-1.9-4.3,2.5-9.4,3.2-10.2c2.3-2.6,4.3-3.2,9.8-5.8c3.4-1.6,10.1-4.7,15-8c2.9-1.9,6.9-5.1,11-10.3L1816.3,743.9z"></path>
			<path class="st23" d="M1814,819.4c-5.5-5.5-8.8-6.2-10.8-5.5c-2.4,0.8-2.5,3.3-6.2,5c-1,0.5-4.5,2.1-7.9,0.5
				c-3.3-1.6-4.1-5.2-4.2-5.5c-0.8-4.2,2.2-7.6,2.8-8.3c1.6-1.8,2.9-2.3,11.2-5.5c3.8-1.5,7.2-2.3,10-5.2c0.8-0.9,3-3.3,4-7
				c0.4-1.4,1.1-5.2,0.4-9.8c-0.3-2.1-0.9-4,0-4.8c0.6-0.5,1.6-0.3,2.4-0.1c0,12.4,0,33.8,0,46.1H1814z"></path>
			<rect x="1814" y="669.9" class="st23" width="4" height="177"></rect>
			<path class="st23" d="M1813.8,706.4c-0.7-0.9-1.9-2.3-3.9-3.3c-1.5-0.8-3.3-1.7-5.1-1.3c-2.9,0.7-2.4,3.9-5.7,5.1
				c-3,1.1-5.9-0.4-6-0.5c-0.4-0.2-2.9-1.7-3.5-4.6c-0.7-3.5,1.8-6.4,2.4-6.9c2.4-2.7,6.2-3.4,9.4-4.6c1.1-0.4,4.6-1.8,8-4.9
				c2.1-1.9,4-3.6,4.1-6c0.1-1.8-0.8-3.3,0-4c0.5-0.4,1.3-0.3,2-0.1c0,10.4,0,20.7,0,31.1H1813.8z"></path>
			<path class="st23" d="M1818.5,706.4c0.8-1,2.2-2.4,4.5-3.5c1.6-0.7,3-1.4,4.6-1.1c2.4,0.5,2.4,2.7,5.4,4.1
				c1.1,0.5,3.7,1.7,6.3,0.5c2.8-1.3,3.5-4.4,3.5-4.6c0.7-3.5-1.8-6.4-2.4-6.9c-2.4-2.7-6.2-3.4-9.4-4.6c-1.1-0.4-4.6-1.8-8-4.9
				c-2.1-1.9-4-3.6-4.1-6c-0.1-1.8,0.8-3.3,0-4c-0.5-0.4-1.3-0.3-2-0.1c0,10.4,0,20.7,0,31.1H1818.5z"></path>
			<path class="st23" d="M1813.8,846.4c-0.7-0.9-1.9-2.3-3.9-3.3c-1.5-0.8-3.3-1.7-5.1-1.3c-2.9,0.7-2.4,3.9-5.7,5.1
				c-3,1.1-5.9-0.4-6-0.5c-0.4-0.2-2.9-1.7-3.5-4.6c-0.7-3.5,1.8-6.4,2.4-6.9c2.4-2.7,6.2-3.4,9.4-4.6c1.1-0.4,4.6-1.8,8-4.9
				c2.1-1.9,4-3.6,4.1-6c0.1-1.8-0.8-3.3,0-4c0.5-0.4,1.3-0.3,2-0.1c0,10.4,0,20.7,0,31.1H1813.8z"></path>
			<path class="st23" d="M1818.5,846.4c0.8-1,2.2-2.4,4.5-3.5c1.6-0.7,3-1.4,4.6-1.1c2.4,0.5,2.4,2.7,5.4,4.1
				c1.1,0.5,3.7,1.7,6.3,0.5c2.8-1.3,3.5-4.4,3.5-4.6c0.7-3.5-1.8-6.4-2.4-6.9c-2.4-2.7-6.2-3.4-9.4-4.6c-1.1-0.4-4.6-1.8-8-4.9
				c-2.1-1.9-4-3.6-4.1-6c-0.1-1.8,0.8-3.3,0-4c-0.5-0.4-1.3-0.3-2-0.1c0,10.4,0,20.7,0,31.1H1818.5z"></path>
			</g>
		</g>
		<g>
			<path class="st27" d="M1233.5,823.2c-0.3,0-0.7,0-1,0l-142.2-14.4c-2.5-0.2-4.5-2.1-4.9-4.5c-4.7-28.9-6.7-58.3-5.8-87.6
			c0.2-5.9,8.2-7.4,10.5-2c10.6,24.8,21.2,49.6,31.8,74.3c1.9,4.5,8.4,4.4,10.2-0.2c0.5-1.3,1.1-2.5,2-3.4c5-5.3,13.4,2.5,15.1,9.6
			c0.6,2.6,1.2,5.4,2,8.1c1.7,5.3,9.4,4.9,10.6-0.5l4.7-22c1.2-5.3,8.5-5.9,10.5-0.8l6.7,17.6c2.1,5.6,10.4,4.2,10.6-1.8l1.4-47.9
			c0.2-6.1,8.6-7.4,10.6-1.7c7.4,20.8,15.7,41.3,26.1,60.6c2.5,4.6,9.3,3.4,10.2-1.7"></path>
		</g>
		</g>
			
		
		<g class="frontClouds">
		<g class="st39 blueCloudGroup">
			<g class="blueCloudRight" data-svg-origin="1477.800048828125 581.4000244140625" style="transform: matrix3d(1, 0, 0, 0, 0, 1, 0, 0, 0, 0, 1, 0, -11.08, 0, 0, 1);">
			<path class="st30" d="M1898.5,730.9c-114.5-13.7-230.3-15.9-345.2-6.7c-15.2,1.2-30.9,2.6-45.5-1.9
				c-14.6-4.5-28.1-16.4-29.4-31.7c-0.6-7.5,2.5-16,9.4-19.1c5.5-2.4,11.8-1,17.4,1.2c10.8,4.3,20.5,11.2,31.6,14.7
				c11.1,3.5,24.8,2.7,32.2-6.3c5.1-6.2,5.9-14.8,7.6-22.7c6.9-32.5,33.2-60,65.3-68.5s68.5,2.6,90.6,27.4
				c22.5,25.4,33.8,65.4,66.7,73.6c17,4.3,34.6-1.9,51.5-6.7c16.9-4.7,36.3-7.6,50.9,2.1c14.6,9.7,16.3,36.8-0.4,42.3"></path>
			</g>
			<g class="blueCloudLeft" data-svg-origin="871.300048828125 766.9999389648438" style="transform: matrix3d(1, 0, 0, 0, 0, 1, 0, 0, 0, 0, 1, 0, 16.08, 0, 0, 1);">
			<path class="st30" d="M1293,911.3c-114.8-11.1-230.6-10.8-345.3,1c-15.2,1.6-30.8,3.3-45.5-0.9c-14.7-4.2-28.4-15.8-30.1-31
				c-0.8-7.5,2.1-16.1,8.9-19.3c5.4-2.5,11.8-1.2,17.4,0.8c10.9,4,20.7,10.7,31.9,14s24.9,2.2,32-7c5-6.3,5.6-14.9,7.1-22.8
				c6.2-32.6,31.8-60.7,63.8-69.9s68.6,1,91.2,25.4c23.1,24.8,35.3,64.6,68.3,72.1c17.1,3.9,34.6-2.7,51.4-7.8
				c16.8-5.1,36.1-8.4,50.9,1s17.1,36.4,0.6,42.3"></path>
			</g>
			<g class="blueCloudLeft" data-svg-origin="1581.300048828125 827.7999877929688" style="transform: matrix3d(1, 0, 0, 0, 0, 1, 0, 0, 0, 0, 1, 0, 16.08, 0, 0, 1);">
			<path class="st30" d="M1600.9,987.6c113.7-19.1,229.3-26.9,344.5-23.2c15.3,0.5,31,1.1,45.4-4.1c14.4-5.2,27.3-17.7,27.8-33
				c0.3-7.6-3.2-15.9-10.3-18.6c-5.6-2.2-11.9-0.4-17.3,2.1c-10.6,4.8-19.9,12.2-30.8,16.2c-10.9,4.1-24.7,3.9-32.5-4.7
				c-5.4-6-6.6-14.5-8.7-22.3c-8.5-32.1-36-58.3-68.5-65.3c-32.5-6.9-68.3,5.8-89.1,31.7c-21.3,26.4-30.6,66.9-63.1,76.7
				c-16.8,5.1-34.7-0.3-51.8-4.2c-17.1-3.9-36.6-5.8-50.7,4.6c-14.1,10.4-14.5,37.5,2.4,42.2"></path>
			</g>
		</g>
			<g class="pinkCloudGroup">
				<g class="st39 pinkCloud" data-svg-origin="519.3999633789062 238.1000213623047" style="transform: matrix3d(1, 0, 0, 0, 0, 1, 0, 0, 0, 0, 1, 0, 299.723, 0, 0, 1);">
					<path class="st40" d="M587,428.9c55.8-1.5,195.2,2.2,531.6,20.2c1-49.5-49.2-87.6-98.5-92.2s-97.2,14.9-143.4,32.8
						c-10.7,4.1-21.9,8.2-33.2,6.7c-12.7-1.7-23.4-10.2-33-18.7c-33.4-29.4-63.3-62.6-89.1-98.9c-7.9-11.1-16-23.1-28.4-28.7
						c-26.3-12-56.9,11.4-66.8,38.6c-9.9,27.2-6.8,57.2-11.1,85.8c-0.9,5.6-2.2,11.6-6.4,15.5c-5.2,4.9-11.6,4.6-19.3,5.3
						c-16.7,1.5-28.5,6.5-47.5,14.6c-12.6,5.4-22.5,9.6-22,13C521.1,430.9,577,429.2,587,428.9z"></path>
				</g>
				<g class="st39 pinkCloud" data-svg-origin="1472.4000244140625 179.90000915527344" style="transform: matrix3d(1, 0, 0, 0, 0, 1, 0, 0, 0, 0, 1, 0, 296.667, 0, 0, 1);">
					<path class="st40" d="M2147.6,385.1c13.1-23.2,8.1-55-11.5-73c-19.6-18-51.7-20.4-73.7-5.4c-27,18.4-44.3,60.2-76.5,54.8
						c-11.5-1.9-20.9-10.1-29.5-17.9c-58.1-52.8-115.8-108.5-187.3-141c-30.8-14-69.1-22.7-96.8-3.2c-20.1,14.1-29.1,40.2-28.3,64.8
						c0.8,24.5,10.1,48,20.2,70.3c-50.3,8.9-101.8,11.1-152.6,6.6c-16.3-1.4-39.2,2-39.1,18.3c0.1,9.6,19.7,18.8,26.9,22
						C1555,406.1,1946.1,393.2,2147.6,385.1z"></path>
				</g>
			</g>
		</g>
			
			<g class="seaRocks">
				<g class="st29">
					<path class="st30" d="M1083,1145.1c49.7-4.9,100.2-0.8,148.5,12.2c65.1,17.5,128,51,195.3,47.4c30.5-1.7,60.1-11,89.9-17.6
						c78.6-17.4,161.1-16.2,237.9-40.4l55.5,14.3l-281,78l-287,20L1083,1145.1z"></path>
				</g>
				<g>
					<g>
						<path class="st32" d="M968.5,1292.8c-2.2,2-5.8,2.1-7,2c-6.9-0.4-33.8-0.6-73.5-0.7c-15.1,0-32.1,0-50.5-0.1
							c-4.5,0-7.2-5.1-4.6-8.8c8-11.3,20.7-19.3,34.5-21.1c3.3-0.4,6.8-0.6,9.9-1.9c2.8-1.2,5-3.2,7.3-5.2c5.5-4.7,12-8.8,18.8-11.6
							c5.2-2.2,10.7-3.5,16-3.6c4.5-0.1,9,0.6,13.3,2.5c8.9,3.8,15.4,11.6,21.4,19.2c3.9,4.8,7.8,9.7,11.7,14.5
							C969.2,1282.4,972.6,1289.1,968.5,1292.8z"></path>
					</g>
					<g>
						<path class="st9" d="M919.3,1241.9c-11.8,16.6-22.3,34.1-31.4,52.3c-15.1,0-32.1,0-50.5-0.1c-4.5,0-7.2-5.1-4.6-8.8
							c8-11.3,20.7-19.3,34.5-21.1c3.3-0.4,6.8-0.6,9.9-1.9c2.8-1.2,5-3.2,7.3-5.2c5.5-4.7,12-8.8,18.8-11.6
							C908.5,1243.4,913.9,1242,919.3,1241.9z"></path>
					</g>
				</g>
				<g>
					<g>
						<path class="st32" d="M1894.6,1140.1c-1.9,1.8-5,1.8-6.1,1.8c-6-0.3-29.4-0.5-63.9-0.6c-13.1,0-27.9,0-43.9-0.1
							c-3.9,0-6.3-4.4-4-7.6c6.9-9.8,18-16.8,29.9-18.4c2.9-0.4,5.9-0.5,8.6-1.6c2.4-1,4.4-2.8,6.4-4.5c4.8-4,10.4-7.7,16.3-10.1
							c4.5-1.9,9.3-3.1,13.9-3.2c3.9-0.1,7.8,0.6,11.5,2.1c7.7,3.3,13.3,10.1,18.6,16.7c3.4,4.2,6.8,8.4,10.2,12.6
							C1895.3,1131.1,1898.2,1136.9,1894.6,1140.1z"></path>
					</g>
					<g>
						<path class="st9" d="M1851.9,1095.9c-10.2,14.4-19.4,29.6-27.3,45.4c-13.1,0-27.9,0-43.9-0.1c-3.9,0-6.3-4.4-4-7.6
							c6.9-9.8,18-16.8,29.9-18.4c2.9-0.4,5.9-0.5,8.6-1.6c2.4-1,4.4-2.8,6.4-4.5c4.8-4,10.4-7.7,16.3-10.1
							C1842.5,1097.2,1847.2,1096,1851.9,1095.9z"></path>
					</g>
				</g>
				<path class="st32" d="M1397,1206.9h-55v-0.5c0-15.2,12.3-27.5,27.5-27.5l0,0c15.2,0,27.5,12.3,27.5,27.5V1206.9z"></path>
				<g>
					<g>
						<path class="st9" d="M1389.1,1209.6c1.4,1.3,3.6,1.3,4.4,1.3c4.3-0.2,21.1-0.4,45.7-0.4c9.4,0,20,0,31.4,0
							c2.8,0,4.5-3.2,2.9-5.5c-5-7-12.9-12-21.4-13.1c-2.1-0.3-4.2-0.4-6.2-1.2c-1.7-0.7-3.1-2-4.6-3.2c-3.4-2.9-7.5-5.5-11.7-7.2
							c-3.3-1.3-6.6-2.2-10-2.3c-2.8-0.1-5.6,0.4-8.3,1.5c-5.5,2.4-9.6,7.2-13.3,11.9c-2.4,3-4.9,6-7.3,9
							C1388.7,1203.1,1386.6,1207.3,1389.1,1209.6z"></path>
					</g>
					<g>
						<path class="st32" d="M1419.7,1177.9c7.3,10.3,13.9,21.2,19.5,32.5c9.4,0,20,0,31.4,0c2.8,0,4.5-3.2,2.9-5.5
							c-5-7-12.9-12-21.4-13.1c-2.1-0.3-4.2-0.4-6.2-1.2c-1.7-0.7-3.1-2-4.6-3.2c-3.4-2.9-7.5-5.5-11.7-7.2
							C1426.4,1178.8,1423.1,1178,1419.7,1177.9z"></path>
					</g>
				</g>
				<g>
					<path class="st9" d="M1139.8,1131.2v0.7h-78.6v-0.7c0-21.7,17.6-39.3,39.3-39.3c2.1,0,4.1,0.2,6.1,0.5c8.4,1.3,15.9,5.3,21.6,11
						C1135.4,1110.5,1139.8,1120.4,1139.8,1131.2z"></path>
				</g>
			</g>
			<g class="sunRays">
				<polygon class="st41 sunRayLeft" points="1557.8,4.9 862.9,1057.4 980.9,1079 1476.4,316.4 1485.2,302.5 1485.2,302.5 1673.8,4.9 			" data-svg-origin="862.9000244140625 4.900000095367432" style="transform: matrix(1, 0, 0, 1, 0, 0);"></polygon>
				<polygon class="st42  sunRayRight" points="1924.7,4.9 1203.7,1171.7 1085.8,1150.1 1809.7,4.9 			" data-svg-origin="1085.800048828125 4.900000095367432" style="transform: matrix3d(1, 0, 0, 0, 0, 1, 0, 0, 0, 0, 1, 0, -0.6, 0, 0, 1);"></polygon>
				<polygon class="st43  sunRayLeft" points="1289.4,1188.5 2042.8,0 2124,0 1374,1210.1 			" data-svg-origin="1289.4000244140625 0" style="transform: matrix(1, 0, 0, 1, 0, 0);"></polygon>
				<polygon class="st44  sunRayRight" points="1128.8,4.9 453,1071 340.1,1050.4 1018.9,4.9 			" data-svg-origin="340.1000061035156 4.900000095367432" style="transform: matrix3d(1, 0, 0, 0, 0, 1, 0, 0, 0, 0, 1, 0, -0.6, 0, 0, 1);"></polygon>
				<polygon class="st44 sunRayLeft" points="2879.8,8.9 2204,1075 2091.1,1054.4 2769.9,8.9 			" data-svg-origin="2091.10009765625 8.899999618530273" style="transform: matrix(1, 0, 0, 1, 0, 0);"></polygon>
			</g>
		</g>
	</g>

	<g>
		<g class="st65 canoeReflection" data-svg-origin="1331.800048828125 1377.699951171875" style="transform: matrix3d(1, 0, 0, 0, 0, 1, 0, 0, 0, 0, 1, 0, 0, -3.97926, 0, 1);">
			<path class="st76" d="M1334,1444c1.1,3.1,2.3,5.2,4,7c1.1,1.2,2.2,2.4,4,3c4.3,1.5,8.5-1.6,9-2c-1.1-0.9-7.2-6.2-7-14
				c0.2-7.7,6.7-12.6,10-15c9.8-7.3,20.6-7.8,36-8c20.2-0.3,35-0.1,43,0c5.1,0.1,27.3,0.3,50.5,0.5c0,0,18.5,0.1,40.5,6.5
				c3.2,0.9,8.1,2.5,12,7c6.1,7,5.3,16.3,5,19c1.9,1.1,5,2.5,9,3c2.2,0.3,3.5,0.4,5,0c5.9-1.8,7.6-11.5,8-14c1-5.9,0.1-10.5-1-16
				c-1-5-2.9-13.3-9-22c0,0-3.1-4.4-7-8c-14.4-13.3-68.3-7.1-109-7c0,0-74.2,0.1-89,12c-3.9,3.2-7,7-7,7c-3.7,4.6-5.5,8.8-6,10
				c-3.2,7.7-3.1,14.3-3,19C1332.1,1437.8,1333.2,1441.6,1334,1444z"></path>
			<path class="st77" d="M1535.5,1430.5c-1.7-2.3-4.6-5.3-11.5-8.5c-10.9-5.1-40.5-6.5-40.5-6.5l0,0c-23.2-0.1-45.4-0.4-50.5-0.5
				c-8-0.1-22.8-0.3-43,0c-15.4,0.2-26.2,0.7-36,8c-3.3,2.4-9.8,7.3-10,15c-0.2,5.8,3.2,10.2,5.4,12.5c0.6,0.6,1.5,0.3,1.8-0.5
				c0.4-1.3,0.8-2.8,1.4-4.5c0.7-2.1,2.9-8.1,6-12c4.4-5.5,11.3-7.1,16-8c27.4-5.4,46-5,46-5c22,0.5,45.5-0.6,92,1
				c3,0.1,10.3,0.4,17,5c4.2,2.8,6.4,6,7,7c3.5,5.3,3.9,10.6,4,13C1540.5,1443.2,1540,1436.5,1535.5,1430.5z"></path>
		</g>
		<g class="canoe" data-svg-origin="1331.800048828125 1327.4000244140625" style="transform: matrix3d(1, 0, 0, 0, 0, 1, 0, 0, 0, 0, 1, 0, 0, 3.97926, 0, 1);">
			<path class="st76" d="M1334,1338.9c1.1-3.1,2.3-5.2,4-7c1.1-1.2,2.2-2.4,4-3c4.3-1.5,8.5,1.6,9,2c-1.1,0.9-7.2,6.2-7,14
				c0.2,7.7,6.7,12.6,10,15c9.8,7.3,20.6,7.8,36,8c20.2,0.3,35,0.1,43,0c5.1-0.1,27.3-0.3,50.5-0.5c0,0,18.5-0.1,40.5-6.5
				c3.2-0.9,8.1-2.5,12-7c6.1-7,5.3-16.3,5-19c1.9-1.1,5-2.5,9-3c2.2-0.3,3.5-0.4,5,0c5.9,1.8,7.6,11.5,8,14c1,5.9,0.1,10.5-1,16
				c-1,5-2.9,13.3-9,22c0,0-3.1,4.4-7,8c-14.4,13.3-68.3,7.1-109,7c0,0-74.2-0.1-89-12c-3.9-3.2-7-7-7-7c-3.7-4.6-5.5-8.8-6-10
				c-3.2-7.7-3.1-14.3-3-19C1332.1,1345.1,1333.2,1341.3,1334,1338.9z"></path>
			<path class="st77" d="M1535.5,1352.4c-1.7,2.3-4.6,5.3-11.5,8.5c-10.9,5.1-40.5,6.5-40.5,6.5l0,0c-23.2,0.1-45.4,0.4-50.5,0.5
				c-8,0.1-22.8,0.3-43,0c-15.4-0.2-26.2-0.7-36-8c-3.3-2.4-9.8-7.3-10-15c-0.2-5.8,3.2-10.2,5.4-12.5c0.6-0.6,1.5-0.3,1.8,0.5
				c0.4,1.3,0.8,2.8,1.4,4.5c0.7,2.1,2.9,8.1,6,12c4.4,5.5,11.3,7.1,16,8c27.4,5.4,46,5,46,5c22-0.5,45.5,0.6,92-1
				c3-0.1,10.3-0.4,17-5c4.2-2.8,6.4-6,7-7c3.5-5.3,3.9-10.6,4-13C1540.5,1339.7,1540,1346.4,1535.5,1352.4z"></path>
		</g>
	</g>
</svg>