<?xml version="1.0" encoding="UTF-8" standalone="no"?>
<svg height="231.64819" viewBox="0 0 207.70001 163.80001" width="293.73218" xmlns="http://www.w3.org/2000/svg">
   <g transform="translate(-24.5 -19)">
      <circle cx="127" cy="79" fill="#de5833" r="60"/>
      <path d="m177.8 57.5c-2.8-6.6-6.8-12.5-11.8-17.5-5.1-5.1-11-9-17.5-11.8-6.8-2.9-14-4.3-21.5-4.3-7.4 0-14.7 1.5-21.5 4.3-6.6 2.7-12.5 6.7-17.5 11.8-5.1 5.1-9 11-11.8 17.5-2.9 6.8-4.3 14-4.3 21.5 0 7.5 1.5 14.7 4.3 21.5 2.8 6.6 6.8 12.5 11.8 17.5 5.1 5.1 11 9 17.5 11.8 6.8 2.9 14 4.3 21.5 4.3 7.4 0 14.7-1.5 21.5-4.3 6.5-2.8 12.4-6.8 17.5-11.8 5.1-5.1 9-11 11.8-17.5 2.9-6.8 4.3-14 4.3-21.5 0-7.5-1.4-14.7-4.3-21.5zm-38.8 71c-3.2-5.4-11.6-20.5-11.6-31.7 0-25.8 17.3-3.7 17.3-24.3 0-4.9-2.4-22.1-17.4-25.7-3.7-4.9-12.4-9.6-26.2-7.7 0 0 2.3.7 4.9 2 0 0-5 .7-5.2 4.1 0 0 9.9-.5 15.5 1.3-12.9 1.7-19.5 8.5-18.3 20.8 1.7 17.5 9.1 48.7 11.7 59.6-19.6-7-33.7-25.8-33.7-47.9 0-28.1 22.8-51 51-51 28.2 0 51 22.8 51 51-.1 24-16.7 44.1-39 49.5z" fill="#fff"/>
      <path clip-rule="evenodd" d="m124.2 87.3c0-6.6 9-8.7 12.4-8.7 9.2 0 22.2-5.9 25.4-5.8 3.3.1 5.4 1.4 5.4 2.9 0 2.2-18.4 10.5-25.5 9.8-6.8-.6-8.4.1-8.4 2.9 0 2.4 4.9 4.6 10.3 4.6 8.1 0 16-3.6 18.4-1.9 2.1 1.5-5.5 6.9-14.2 6.9-8.7 0-23.8-4.1-23.8-10.7z" fill="#fed30a" fill-rule="evenodd"/>
      <path d="m140.2 59.3c-2.4-3.1-6.7-3.2-8.2.4 2.3-1.8 5.1-2.2 8.2-.4z" fill="#2d4f8d"/>
      <path d="m113.5 59.4c-3.3-2-8.8-2.2-8.5 4.1 1.6-3.9 3.8-4.6 8.5-4.1z" fill="#2d4f8d"/>
      <path d="m138.2 65.2c-1.8 0-3.3 1.5-3.3 3.3 0 1.8 1.5 3.3 3.3 3.3 1.8 0 3.3-1.5 3.3-3.3 0-1.8-1.5-3.3-3.3-3.3zm1.2 3.1c-.5 0-1-.4-1-1 0-.5.4-1 1-1 .6 0 1 .4 1 1-.1.5-.5 1-1 1z" fill="#2d4f8d"/>
      <path d="m112.6 67c-2.1 0-3.8 1.7-3.8 3.8 0 2.1 1.7 3.8 3.8 3.8 2.1 0 3.8-1.7 3.8-3.8 0-2.1-1.7-3.8-3.8-3.8zm1.4 3.5c-.6 0-1.1-.5-1.1-1.1 0-.6.5-1.1 1.1-1.1.6 0 1.1.5 1.1 1.1 0 .6-.5 1.1-1.1 1.1z" fill="#2d4f8d"/>
      <path d="m104.3 50.8c-4.8 3.5-7 8.9-6.3 16.5 1.7 17.5 9.1 48.8 11.7 59.7.9.3 1.8.6 2.7.9-1.6-6.6-9.3-38.8-12.7-63.5-.9-6.6 1.7-10.5 4.6-13.6z" fill="#d5d7d8"/>
      <path d="m116.2 46.5c.4 0 .7-.1.7-.1-5.2-2.5-13.4-2.6-15.6-2.6-.2.4-.4.9-.4 1.4-.1.1 9.6-.5 15.3 1.3z" fill="#d5d7d8"/>
      <path d="m106.8 41.1c-1.6-1.1-2.9-1.8-3.7-2.2-.7.1-1.3.1-2 .2 0 0 2.3.7 4.9 2 0 0-.1 0-.2 0 .7 0 1 0 1 0z" fill="#d5d7d8"/>
      <path d="m147.1 107.6c-1.7-.4-8.3 4.3-10.8 6.1-.1-.5-.2-.9-.3-1.1-.3-1-6.7-.4-8.2 1.2-4-1.9-12-5.6-12.1-3.3-.3 3 0 15.5 1.6 16.4 1.2.7 8-3 11.4-4.9 0 0 0 0 .1 0 2.1.5 6 0 7.4-.9.2-.1.3-.3.4-.5 3.1 1.2 9.8 3.6 11.2 3.1 1.8-.5 1.4-15.6-.7-16.1z" fill="#67bd47"/>
      <path d="m128.8 122c-2.1-.4-1.4-2.5-1.4-7.4 0 0 0 0 0 0-.5.3-.9.7-.9 1.1 0 4.9-.8 7.1 1.4 7.4 2.1.5 6 0 7.6-.9.3-.2.4-.5.5-1-1.5.9-5.2 1.3-7.2.8z" fill="#43a347"/>
      <path d="m24.5 180.6v-24.6h8.9c8.5 0 12.4 6.2 12.4 12 0 6.3-3.8 12.6-12.4 12.6zm2.8-2.9h6.1c6.6 0 9.5-4.9 9.5-9.8 0-4.5-3-9.3-9.5-9.3h-6.1z" fill="#4c4c4c"/>
      <path d="m57 180.9c-4.6 0-7.5-3.1-7.5-8v-9.6h2.7v9.5c0 3.5 2 5.6 5.4 5.6 3.2 0 5.5-2.5 5.5-5.8v-9.3h2.7v17.3h-2.4l-.2-3-.4.5c-1.5 1.8-3.4 2.7-5.8 2.8z" fill="#4c4c4c"/>
      <path d="m78.7 180.9c-4.5 0-9-2.8-9-8.9 0-5.4 3.6-8.9 9-8.9 2.4 0 4.4.8 6.2 2.5l-1.7 1.7c-1.2-1.1-2.8-1.7-4.4-1.7-3.8 0-6.4 2.6-6.4 6.4 0 4.4 3.2 6.4 6.4 6.4 1.8 0 3.4-.6 4.6-1.8l1.7 1.7c-1.8 1.7-4 2.6-6.4 2.6z" fill="#4c4c4c"/>
      <polygon fill="#4c4c4c" points="91.1 180.6 88.5 180.6 88.5 156 91.1 156 91.1 170.9 98.5 163.3 102 163.3 93.8 171.4 103 180.5 103 180.6 99.6 180.6 91.1 172.1"/>
      <path d="m106.2 180.6v-24.6h8.9c8.5 0 12.4 6.2 12.4 12 0 6.3-3.8 12.6-12.4 12.6zm2.9-2.9h6.1c6.6 0 9.5-4.9 9.5-9.8 0-4.5-3-9.3-9.5-9.3h-6.1z" fill="#4c4c4c"/>
      <path d="m138.7 180.9c-4.6 0-7.5-3.1-7.5-8v-9.6h2.7v9.5c0 3.5 2 5.6 5.4 5.6 3.2 0 5.5-2.5 5.5-5.8v-9.3h2.7v17.3h-2.4l-.1-3-.4.5c-1.5 1.8-3.5 2.7-5.9 2.8z" fill="#4c4c4c"/>
      <path d="m160.4 180.9c-4.5 0-9-2.8-9-8.9 0-5.4 3.6-8.9 9-8.9 2.4 0 4.4.8 6.2 2.5l-1.7 1.7c-1.2-1.1-2.8-1.7-4.4-1.7-3.8 0-6.4 2.6-6.4 6.4 0 4.4 3.2 6.4 6.4 6.4 1.8 0 3.4-.6 4.6-1.8l1.7 1.7-.1.1v0c-1.7 1.7-3.8 2.5-6.3 2.5z" fill="#4c4c4c"/>
      <polygon fill="#4c4c4c" points="172.9 180.6 170.3 180.6 170.3 156 172.9 156 172.9 170.9 180.3 163.3 183.7 163.3 175.6 171.4 184.7 180.5 184.7 180.6 181.3 180.6 172.9 172.1"/>
      <path d="m198.6 181c-9.5 0-12.8-6.8-12.8-12.5 0-3.8 1.3-7.1 3.6-9.5 2.3-2.3 5.5-3.5 9.2-3.5 3.4 0 6.5 1.3 8.9 3.6l-1.6 1.9c-1.9-1.8-4.7-2.9-7.3-2.9-6.9 0-10 5.4-10 10.4 0 4.9 3.1 9.9 10.1 9.9 2.5 0 4.9-.9 6.8-2.5l.1-.1v-6.1h-7.7v-2.5h10.3v9.6c-2.7 2.9-5.8 4.2-9.6 4.2z" fill="#4c4c4c"/>
      <path d="m220.4 180.9c-5.2 0-8.9-3.7-8.9-8.9 0-5.2 3.8-9.1 8.9-9.1 5.3 0 9 3.7 9 9.1-.1 5.1-3.8 8.9-9 8.9zm0-15.6c-3.7 0-6.3 2.7-6.3 6.6 0 3.7 2.6 6.4 6.3 6.4 3.7 0 6.3-2.6 6.4-6.4-.1-3.8-2.7-6.6-6.4-6.6z" fill="#4c4c4c"/>
      <path d="m230.9 181.2v0c .2-.1.3-.2.3-.4 0-.2-.1-.3-.2-.4-.1-.1-.3-.1-.6-.1-.3 0-.5 0-.6.1v1.6h.4v-.7h.2c.2 0 .3.1.3.3.1.2.1.3.1.4h.4c0-.1-.1-.2-.1-.4 0-.2-.1-.3-.2-.4zm-.5-.1h-.2v-.5c0 0 .1 0 .2 0 .2 0 .3.1.3.2.1.2 0 .3-.3.3z" fill="#4c4c4c"/>
      <path d="m230.5 179.5c-.9 0-1.7.7-1.7 1.6 0 .9.7 1.7 1.7 1.7.9 0 1.7-.7 1.7-1.7 0-.9-.7-1.6-1.7-1.6zm0 3c-.7 0-1.3-.6-1.3-1.3 0-.7.5-1.3 1.3-1.3.7 0 1.3.6 1.3 1.3 0 .7-.6 1.3-1.3 1.3z" fill="#4c4c4c"/>
   </g>
</svg>
