<?xml version="1.0" encoding="UTF-8" standalone="no"?>
<!-- Created with Inkscape (http://www.inkscape.org/) -->

<svg
   xmlns:dc="http://purl.org/dc/elements/1.1/"
   xmlns:cc="http://creativecommons.org/ns#"
   xmlns:rdf="http://www.w3.org/1999/02/22-rdf-syntax-ns#"
   xmlns:svg="http://www.w3.org/2000/svg"
   xmlns="http://www.w3.org/2000/svg"
   version="1.1"
   width="200"
   height="82"
   id="svg3055">
  <metadata
     id="metadata3061">
    <rdf:RDF>
      <cc:Work
         rdf:about="">
        <dc:format>image/svg+xml</dc:format>
        <dc:type
           rdf:resource="http://purl.org/dc/dcmitype/StillImage" />
        <dc:title></dc:title>
      </cc:Work>
    </rdf:RDF>
  </metadata>
  <defs
     id="defs3059" />
  <g
     id="text3065"
     style="font-size:71.23843384px;font-style:normal;font-weight:normal;line-height:125%;letter-spacing:-13.54480076px;word-spacing:0px;fill:#FFFFFF;fill-opacity:1;stroke:none;font-family:Sans">
    <path
       d="m 38.6875,13.25 c -16.883492,0 -29.75,10.537862 -29.75,28.0625 0,17.239683 13.240177,27.375 29.625,27.375 7.667478,0 15.701574,-2.846288 21.375,-8.125 l 3.9375,-24.375 -26.15625,0 0,12.6875 8.8125,0 c -0.926099,3.276964 -4.843,4.6875 -7.90625,4.6875 -6.340214,0 -10.03125,-5.555965 -10.03125,-11.46875 0,-6.482691 3.831141,-12.46875 10.8125,-12.46875 3.134488,0 5.910245,1.449192 7.40625,4.15625 l 18.25,-6.71875 C 60.859437,17.872751 48.019725,13.25 38.6875,13.25 z m 25.1875,22.9375 3.96875,0 c -0.142476,8.762319 -0.159786,16.098617 -6.5,22.9375 -0.456349,0.496279 -0.912411,0.978018 -1.40625,1.4375 l -1.1875,7.25 18.875,0 2.28125,-22.9375 c 0.213715,-2.137151 0.357523,-4.331599 0.5,-6.46875 l 0.65625,0 c 0.142476,2.279627 0.617593,4.407872 1.1875,6.6875 l 7,22.71875 11.40625,0 7.75,-24.0625 c 0.56991,-1.70972 0.92505,-3.562791 1.28125,-5.34375 l 0.34375,0 2.65625,29.40625 7.96875,0 8.71875,-13.25 -6.625,-40.21875 -0.15625,-0.25 -19.75,0 -6.0625,21.09375 c -0.641145,2.279628 -0.987558,4.774134 -1.34375,7.125 l -0.5,0 -7.40625,-28.21875 -20.09375,0 L 63.875,36.1875 z M 122.75,14.34375 139.46875,39.25 129.375,54.5625 l 2.1875,13.25 11.34375,0 5.96875,-10.96875 c 0.64115,-1.211052 1.14381,-2.40521 1.5,-3.6875 l 0.5625,0 c 0.21371,1.139813 0.58634,2.212674 1.15625,3.28125 l 6.125,11.375 22.21875,0 -19.15625,-28.5625 16.8125,-25.15625 -22.03125,0 -3.6875,7.625 c -0.71239,1.424768 -1.36256,2.870256 -1.71875,4.4375 l -0.4375,0 c -0.42743,-1.496005 -0.84138,-3.012732 -1.625,-4.4375 l -4,-7.625 -21.875,0 0.0312,0.25 z"
       id="path3080"
       style="font-variant:normal;font-weight:900;font-stretch:normal;fill:#FFFFFF;fill-opacity:1;font-family:Futura Std" />
    <path
       d="m 183.48989,28.155674 c 4.14037,0 7.4603,-3.319934 7.4603,-7.460301 0,-4.121288 -3.31993,-7.441221 -7.4603,-7.441221 -4.15945,0 -7.4603,3.319933 -7.4603,7.441221 0,4.140367 3.30085,7.460301 7.4603,7.460301 m 0,-1.946165 c -3.24361,0 -5.51413,-2.19421 -5.51413,-5.514136 0,-3.319926 2.27052,-5.495056 5.51413,-5.495056 3.18637,0 5.51413,2.17513 5.51413,5.495056 0,3.319926 -2.32776,5.514136 -5.51413,5.514136 m 1.58365,-4.922655 c 0.99216,-0.0954 1.75536,-0.782283 1.75536,-2.117885 0,-1.831684 -0.99216,-2.385007 -2.65213,-2.385007 l -3.77785,0 0,7.803742 1.64089,0 0,-3.30085 1.25928,0 1.73628,3.30085 1.9271,0 -1.88893,-3.30085 m -3.03373,-1.488243 0,-1.526405 1.77444,0 c 0.82044,0 1.5264,0 1.5264,0.686882 0,0.839522 -0.70596,0.839523 -1.5264,0.839523 l -1.77444,0"
       id="path3086"
       style="font-variant:normal;font-weight:900;font-stretch:normal;fill:#FFFFFF;fill-opacity:1;font-family:Futura Std" />
  </g>
</svg>
