<?xml version="1.0" encoding="utf-8"?>
<!-- Generator: Adobe Illustrator 18.0.0, SVG Export Plug-In . SVG Version: 6.00 Build 0)  -->
<!DOCTYPE svg PUBLIC "-//W3C//DTD SVG 1.1//EN" "http://www.w3.org/Graphics/SVG/1.1/DTD/svg11.dtd">
<svg version="1.1"
	 id="svg2" xmlns:svg="http://www.w3.org/2000/svg" xmlns:rdf="http://www.w3.org/1999/02/22-rdf-syntax-ns#" xmlns:cc="http://creativecommons.org/ns#" xmlns:dc="http://purl.org/dc/elements/1.1/"
	 xmlns="http://www.w3.org/2000/svg" xmlns:xlink="http://www.w3.org/1999/xlink" x="0px" y="0px" viewBox="21.4 22.1 236.6 254.9"
	 enable-background="new 21.4 22.1 236.6 254.9" xml:space="preserve">
<g id="g3043">
	<path id="path8" fill="#1476C6" d="M156.1,261.2c-0.5,0.3-1,0.6-1.6,0.9c-1.6,0.7-3.2,0.9-4.6,0.9c-1.5,0-3.9-0.1-6.3-1.9
		c-3.4-2.4-4.9-6.5-4.9-10.1c0-7.4,6-11,10.9-11c1.7,0,3.5,0.4,4.9,1.3c2.4,1.6,3,3.6,3.3,4.7l-11.2,4.5l-3.7,0.3
		c1.2,6.1,5.3,9.6,9.8,9.6c2.4,0,4.2-0.9,5.8-1.7L156.1,261.2z M151.6,247c0.9-0.3,1.4-0.6,1.4-1.3c0-1.9-2.1-4.1-4.7-4.1
		c-1.9,0-5.5,1.5-5.5,6.6c0,0.8,0.1,1.7,0.1,2.5L151.6,247"/>
	<path id="path10" fill="#1476C6" d="M137.6,262.2h-8.4c1.1-1.4,1.3-1.6,1.3-2.5v-7.8c0-3.7,0.1-9,0.2-14c0-2.4,0.2-5.5,0.3-7.7
		h-3.7l3.6-1.7h6.8c-1.5,0.9-2,1.1-2.1,2.8c-0.4,3.7-0.4,9.5-0.4,16.3v11c0,1.9,0.3,2.2,1.9,2.3c0.8,0.1,1.6,0.2,2.4,0.2
		L137.6,262.2"/>
	<path id="path12" fill="#1476C6" d="M121.9,242.3c1.1,0.9,3.4,2.8,3.4,6.5c0,3.5-2,5.2-4,6.8c-0.6,0.6-1.3,1.3-1.3,2.3
		c0,1,0.7,1.6,1.2,2l1.7,1.3c2.1,1.8,4,3.4,4,6.7c0,4.5-4.3,9-12.6,9c-6.9,0-10.3-3.3-10.3-6.8c0-1.7,0.9-4.2,3.7-5.8
		c3-1.8,7-2.1,9.1-2.2c-0.7-0.9-1.4-1.8-1.4-3.2c0-0.8,0.2-1.3,0.5-1.9c-0.5,0-1.1,0.1-1.5,0.1c-5.1,0-7.9-3.8-7.9-7.5
		c0-2.2,1-4.6,3.1-6.4c2.7-2.2,6-2.6,8.5-2.6h9.8l-3.1,1.7L121.9,242.3L121.9,242.3z M118.5,263.5c-0.4,0-0.6,0-1.1,0
		c-0.4,0-3,0.1-5,0.8c-1.1,0.4-4.1,1.5-4.1,4.9c0,3.4,3.3,5.8,8.4,5.8c4.6,0,7-2.2,7-5.2C123.7,267.4,122.1,266.1,118.5,263.5
		 M119.9,254.5c1.1-1.1,1.2-2.6,1.2-3.5c0-3.4-2.1-8.8-6-8.8c-1.2,0-2.6,0.6-3.3,1.6c-0.8,1-1.1,2.3-1.1,3.5c0,3.2,1.9,8.5,6,8.5
		C117.8,255.8,119.1,255.2,119.9,254.5"/>
	<path id="path14" fill="#1476C6" d="M92.4,262.9c-7.6,0-11.6-5.9-11.6-11.3c0-6.3,5.1-11.6,12.4-11.6c7,0,11.4,5.5,11.4,11.3
		C104.5,256.9,100.1,262.9,92.4,262.9 M98.3,259c1.1-1.5,1.4-3.4,1.4-5.3c0-4.2-2-12.2-7.9-12.2c-1.6,0-3.1,0.6-4.3,1.6
		c-1.9,1.7-2.2,3.8-2.2,5.8c0,4.7,2.3,12.5,8.1,12.5C95.3,261.4,97.2,260.5,98.3,259"/>
	<path id="path16" fill="#1476C6" d="M67,262.9c-7.6,0-11.6-5.9-11.6-11.3c0-6.3,5.1-11.6,12.4-11.6c7,0,11.4,5.5,11.4,11.3
		C79.1,256.9,74.7,262.9,67,262.9 M72.9,259c1.1-1.5,1.4-3.4,1.4-5.3c0-4.2-2-12.2-7.9-12.2c-1.6,0-3.2,0.6-4.3,1.6
		c-1.9,1.7-2.2,3.8-2.2,5.8c0,4.7,2.3,12.5,8.1,12.5C69.9,261.4,71.8,260.5,72.9,259"/>
	<path id="path18" fill="#1476C6" d="M52.2,261.2l-6.4,1.5c-2.6,0.4-4.9,0.8-7.4,0.8c-12.4,0-17.1-9.1-17.1-16.2
		c0-8.7,6.7-16.7,18.1-16.7c2.4,0,4.7,0.4,6.8,0.9c3.4,0.9,4.9,2.1,5.9,2.8l-3.7,3.5l-1.6,0.4l1.1-1.8c-1.5-1.5-4.3-4.2-9.6-4.2
		c-7.1,0-12.4,5.4-12.4,13.2c0,8.4,6.1,16.3,15.8,16.3c2.9,0,4.3-0.6,5.7-1.1v-7.2l-6.8,0.4l3.6-1.9h9.5l-1.2,1.1
		c-0.3,0.3-0.4,0.4-0.4,0.7c0,0.4-0.1,1.7-0.1,2.1V261.2"/>
	<path id="path20" fill="#1476C6" d="M176.6,262.2h-3.4l-5-21.6h2.7L175,260l4.2-19.4h3.4L187,260l4-19.4h2.6l-4.9,21.6h-3.4
		L181,243L176.6,262.2"/>
	<path id="path22" fill="#1476C6" d="M209.4,247.2c0-3.5-1.6-4.9-5.1-4.9c-2.8,0-4.4,1.5-4.8,4L197,246c0.5-3.5,3.3-5.9,7.3-5.9
		c4.8,0,7.5,2.1,7.5,6.8v11c0,1.9,0.1,3.2,0.4,4.2h-2.5c-0.2-0.6-0.3-1.7-0.3-2.3c-1,1.5-3.4,2.8-5.7,2.8c-4,0-7.1-2.4-7.1-7.2
		c0-4.4,3.2-6.9,7.7-6.9c2.2,0,4,0.4,5.1,0.9L209.4,247.2L209.4,247.2z M209.4,251.9c-1.2-0.6-2.9-1.1-5.2-1.1c-3,0-5.2,1.5-5.2,4.7
		c0,3.3,2,5,4.8,5c2.5,0,4.7-1.8,5.6-3.7V251.9"/>
	<path id="path24" fill="#1476C6" d="M216.7,262.2h2.5v-30.8h-2.5V262.2z"/>
	<path id="path26" fill="#1476C6" d="M224.4,262.2h2.5v-30.8h-2.5V262.2z"/>
	<path id="path28" fill="#1476C6" d="M239,260.4c2.6,0,4.6-1.6,5-5.6l2.5,0.4c-0.6,5.2-3.6,7.6-7.5,7.6c-5.1,0-8.2-3.8-8.2-11.5
		c0-6.9,2.6-11.1,7.9-11.1c5.6,0,7.8,4.6,7.8,10.9v0.8h-13.2C233.4,257.8,235.6,260.4,239,260.4 M243.9,249.7L243.9,249.7
		c-0.1-4.1-1.7-7.2-5.2-7.2c-3.4,0-5.2,2.8-5.4,7.2L243.9,249.7"/>
	<path id="path30" fill="#1476C6" d="M258,262.1c-0.5,0.2-1.5,0.4-2.6,0.4c-3.2,0-4.2-1.6-4.2-4.7v-15h-2.8v-2.2h2.8v-7l2.5-1v8h4.3
		v2.2h-4.3v14.6c0,2.1,0.4,2.6,2.1,2.6c0.9,0,1.6-0.2,2.2-0.5V262.1"/>
</g>
<g id="g3025">
	<path id="path34" fill="#1476C6" d="M111.1,105.6C100.5,91,85.8,78.2,69.1,69.3c-2.5-1.4-5.4-2.1-8.3-2.1c-6.5,0-12.4,3.5-15.5,9.3
		c-4.6,8.5-1.3,19.2,7.2,23.7c25.7,13.8,42.3,40,44.3,70.4c0,0,0-0.1,0-0.1c-0.3-3.4,0.3-6.7,1.8-9.8c0.2-0.4,0.5-0.9,0.8-1.4
		c8-13.2,12.3-28.4,12.3-44C111.7,112,111.4,108.8,111.1,105.6"/>
	<path id="path36" fill="#47AE33" d="M212.9,72.6c-3.1-13.6-7.7-26.8-13.7-39.4c-3.2-6.7-10.1-11.1-17.5-11.1
		c-2.9,0-5.7,0.6-8.3,1.9c-9.7,4.6-13.8,16.2-9.2,25.8c9.8,20.8,14.7,42.7,14.7,65.5c0,22.8-4.9,44.7-14.5,65.1
		c-0.1,0.3-1.8,3.9-1.8,8.1c0,1.2,0.1,2.9,0.5,4.5c1.3,5.5,4.8,10.5,10.6,13.2c2.6,1.2,5.4,1.9,8.3,1.9c7.1,0,13.6-3.9,17-10.1
		c3.9-7.3,7.8-16.8,11.2-29.1c1.1-3.7,2-7.2,2.8-10.9c3.1-13.9,4.8-28.1,4.8-42.7C217.7,100.9,216,86.4,212.9,72.6"/>
	<path id="path38" fill="#ED114C" d="M131,52.3c-0.3-0.6-0.7-1.1-1.1-1.6c-1.3-1.7-2.8-3.1-4.6-4.2c-2.9-1.9-6.4-3-10-3
		c-3,0-4.5,0.4-6.6,1.2c-2.2,0.9-4.5,2.1-6.6,4.3c-2.1,2.2-3.3,4.4-4.2,6.8c-1.8,4.7-1.5,10.8,1.5,15.8
		c6.4,10.3,10.2,22.1,11.6,34.2c0.4,3.2,0.6,6.5,0.6,9.7c0,15.6-4.2,30.8-12.3,44c-0.3,0.5-0.5,0.9-0.8,1.4
		c-1.6,3.1-2.1,6.6-1.8,9.9c0.5,5.6,3.6,10.9,8.8,14.1c1.3,0.8,2.8,1.4,4.2,1.9c1.7,0.5,3.5,0.8,5.3,0.8c6.5,0,12.4-3.3,15.8-8.9
		c10.2-16.7,16.1-35.7,17.4-55.2c0.2-2.6,0.3-5.3,0.3-7.9C148.6,93,142.5,71.2,131,52.3"/>
	<path id="path40" fill="#FBBF16" d="M164.3,180.4c9.7-20.4,14.6-42.3,14.6-65.1c0-7.8-0.5-13.5-0.9-17.2
		c-12.7-20.3-31.1-38.5-52.7-51.7c0,0,0.5,0.3,0.5,0.4c1.5,1.1,2.7,2.2,4.1,3.9c0.3,0.4,0.8,1,1.1,1.6c11.5,19,17.5,40.7,17.5,63
		c0,2.7-0.1,5.3-0.3,7.9c9.2,17.5,14.2,37.4,14.2,58.3c0,1.7,0,4.3,0,6.3c0.1-2.2,0.6-4.5,1.4-6.5
		C164.1,181,164.2,180.7,164.3,180.4"/>
</g>
</svg>
