<svg xmlns:rdf="http://www.w3.org/1999/02/22-rdf-syntax-ns#" xmlns:svg="http://www.w3.org/2000/svg" xmlns="http://www.w3.org/2000/svg" xmlns:xlink="http://www.w3.org/1999/xlink" width="750" height="257.63" id="svg4472" version="1.1"><defs id="defs4474"><linearGradient id="linearGradient4561"><stop offset="0" id="stop4563" style="stop-color:#de5644;stop-opacity:1"/><stop id="stop4569" offset="0.5" style="stop-color:#da4531;stop-opacity:1"/><stop offset="1" id="stop4565" style="stop-color:#ce3a28;stop-opacity:1"/></linearGradient><linearGradient id="linearGradient4551"><stop offset="0" id="stop4553" style="stop-color:#0aa561;stop-opacity:1"/><stop id="stop4559" offset="0.5" style="stop-color:#009b58;stop-opacity:1"/><stop offset="1" id="stop4555" style="stop-color:#00914b;stop-opacity:1"/></linearGradient><linearGradient id="linearGradient4535"><stop offset="0" id="stop4537" style="stop-color:#1a6fef;stop-opacity:1"/><stop id="stop4547" offset="0.25" style="stop-color:#1e72ef;stop-opacity:1"/><stop id="stop4545" offset="0.5" style="stop-color:#166bec;stop-opacity:1"/><stop id="stop4543" offset="0.75" style="stop-color:#1267e9;stop-opacity:1"/><stop offset="1" id="stop4539" style="stop-color:#1063e5;stop-opacity:0.87"/></linearGradient><linearGradient id="linearGradient4525"><stop offset="0" id="stop4527" style="stop-color:#ffc01a;stop-opacity:1"/><stop id="stop4533" offset="0.5" style="stop-color:#ffba03;stop-opacity:1"/><stop offset="1" id="stop4529" style="stop-color:#ffb300;stop-opacity:1"/></linearGradient><linearGradient id="linearGradient4511"><stop offset="0" id="stop4513" style="stop-color:#de5744;stop-opacity:1"/><stop id="stop4523" offset="0.5" style="stop-color:#db4632;stop-opacity:1"/><stop offset="1" id="stop4515" style="stop-color:#d13d29;stop-opacity:1"/></linearGradient><linearGradient id="linearGradient4501"><stop offset="0" id="stop4503" style="stop-color:#196eef;stop-opacity:1"/><stop id="stop4509" offset="0.5" style="stop-color:#186dee;stop-opacity:1"/><stop offset="1" id="stop4505" style="stop-color:#1065e7;stop-opacity:1"/></linearGradient><linearGradient xlink:href="#linearGradient4501" id="linearGradient4507" x1="-4561.09" y1="2932" x2="-4561.09" y2="3070.15" gradientUnits="userSpaceOnUse" gradientTransform="matrix(1.35086,0,0,1.35086,1626.5564,-1095.5023)"/><linearGradient xlink:href="#linearGradient4511" id="linearGradient4517" x1="-4444.64" y1="2978.97" x2="-4444.64" y2="3068.3" gradientUnits="userSpaceOnUse" gradientTransform="matrix(1.35086,0,0,1.35086,1626.5564,-1095.5023)"/><linearGradient xlink:href="#linearGradient4525" id="linearGradient4531" x1="-4342.5" y1="2979.15" x2="-4342.5" y2="3068.11" gradientUnits="userSpaceOnUse" gradientTransform="matrix(1.35086,0,0,1.35086,1626.5564,-1095.5023)"/><linearGradient xlink:href="#linearGradient4535" id="linearGradient4541" x1="-4248.93" y1="2978.97" x2="-4248.93" y2="3122.4" gradientUnits="userSpaceOnUse" gradientTransform="matrix(1.35086,0,0,1.35086,1626.5564,-1095.5023)"/><linearGradient xlink:href="#linearGradient4551" id="linearGradient4557" x1="-4184.29" y1="2934.51" x2="-4184.29" y2="3065.79" gradientUnits="userSpaceOnUse" gradientTransform="matrix(1.35086,0,0,1.35086,1626.5564,-1095.5023)"/><linearGradient xlink:href="#linearGradient4561" id="linearGradient4567" x1="-4118.39" y1="2978.97" x2="-4118.39" y2="3068.11" gradientUnits="userSpaceOnUse" gradientTransform="matrix(1.35086,0,0,1.35086,1626.5564,-1095.5023)"/></defs><metadata id="metadata4477"/><g id="layer1" transform="translate(4636.4128,-2865.2086)"><path d="m-4520.08 2990.41 32.21 0 0 45.24c-10.05 3.23-22.74 5-35.93 5-53.46 0-84.88-45.78-84.88-90.49 0-43.85 28.42-74.61 68.07-74.61 25.09 0 39.69 8.5 52.75 20.34l0 14.76 24.49-24.49c-15.49-10.48-37.92-20.44-69.98-20.44-70.38 0-102.55 50.35-102.55 91.73 0 58.9 42.9 94.38 96.81 94.38 26.14 0 49.35-3.99 76.16-11.45l0-46.74c0-2.39 1.05-4.03 2.62-5.47l8.46-8.46-57.45 0z" id="path4423" fill="url(#linearGradient4507)"/><path d="m-4375.79 2928.93c-40.51 0-65.61 29.6-65.61 61.02 0 27.12 20.22 59.32 61.19 59.32 39.41 0 63.59-29.66 63.59-61.63 0-29.78-23.63-58.7-59.17-58.7zm-6.72 8.63c28.56 0 41.28 37.21 41.28 63.75 0 39.47-29.61 40.25-33.15 40.25-13.55 0-23.02-8.19-30.11-18.93-6.24-9.9-12.34-28.29-12.34-46.26 0-17.9 5.86-26.64 15.08-33.07 7.54-4.82 14.6-5.74 19.23-5.74z" id="path4425" fill="url(#linearGradient4517)"/><path d="m-4110.98 2928.92c-35.38 0-54.52 22.4-54.52 47.41 0 19.04 13.64 40.52 41.78 40.52l7.12 0c0 0-1.94 4.71-1.95 9.26 0 6.71 2.41 10.48 7.53 16.28-48.42 2.95-67.88 22.48-67.88 43.47 0 18.38 17.6 36.47 54.59 36.47 43.79 0 66.47-24.31 66.47-48.17 0-16.82-8.38-26.04-29.6-41.94-6.24-4.85-7.45-7.94-7.45-11.57 0-5.2 3.11-8.64 4.25-9.94 2.01-2.12 5.49-4.54 6.79-5.7 7.13-6.04 17.2-14.98 17.2-32.82 0-12.24-5.09-22.77-16.69-32.63l14.16 0 10.64-10.64-52.43 0zm-9.76 7.96c6.42 0 11.78 2.27 17.44 6.98 6.28 5.66 16.31 20.87 16.31 39.69 0 20.31-15.78 25.87-24.32 25.87-4.18 0-9.19-1.17-13.43-4.07-9.42-6.11-18.77-22.37-18.77-41.72 0-17.46 10.4-26.75 22.77-26.75zm14.01 113.22c2.7 0 4.64 0.22 4.64 0.22 0 0 6.37 4.55 10.82 7.95 10.36 8.19 16.82 14.45 16.82 25.6 0 15.33-14.22 27.35-37.25 27.35-25.28 0-44.6-11.77-44.6-30.99 0-15.92 13.24-29.62 49.57-30.13z" id="path4429" fill="url(#linearGradient4541)"/><path d="m-4050.88 3045.76 48.57 0 7.4-7.4-13.93-1.74c-3.75-0.46-5.98-3.7-5.98-6.84l0-146.71c0-2.89 1.34-4.37 2.32-5.31l8.76-8.76-41.42 0-10.78 10.78 16.1 0 0 151.97c0 2.16-0.68 3.63-2.14 5.14z" id="path4433" fill="url(#linearGradient4557)"/><path d="m-3936.5 2928.93c-27.12 0-55.93 20.67-55.93 57.78 0 30.65 20.67 62.56 59.29 62.56 9.63 0 17.56-1.24 24.99-4.65 7.97-3.67 15.64-9.63 21.24-17.12-10.57 5.33-19.19 8.83-30.64 8.83-21.76 0-42.74-15.7-50.08-44.56l76.87-31.07c-4.44-15.83-16.96-31.77-45.73-31.77zm-5.02 8.49c14.55 0 25.07 11.97 25.07 21.34 0 3.03-1.9 4.63-5.66 6.11l-47.25 19.11c0 0-1.28-5.95-1.28-12.38 0-26.97 19.5-34.18 29.12-34.18z" id="path4435" fill="url(#linearGradient4567)"/><path d="m-4238.33 2928.93c-40.51 0-65.61 29.6-65.61 61.02 0 27.12 20.22 59.32 61.19 59.32 39.41 0 63.59-29.66 63.59-61.63 0-29.78-23.63-58.7-59.17-58.7zm-6.72 8.63c28.56 0 41.28 37.21 41.28 63.75 0 39.47-29.61 40.25-33.15 40.25-13.55 0-23.02-8.19-30.11-18.93-6.24-9.9-12.34-28.29-12.34-46.26 0-17.9 5.86-26.64 15.08-33.07 7.54-4.82 14.6-5.74 19.23-5.74z" id="path4439" fill="url(#linearGradient4531)"/></g></svg>