<?xml version="1.0" encoding="UTF-8"?>
<svg width="104px" height="26px" viewBox="0 0 104 26" version="1.1" xmlns="http://www.w3.org/2000/svg" xmlns:xlink="http://www.w3.org/1999/xlink">
    <!-- Generator: sketchtool 48.1 (47250) - http://www.bohemiancoding.com/sketch -->
    <title>FCFCFF47-3C6C-474C-AA7B-631CD6DC5607</title>
    <desc>Created with sketchtool.</desc>
    <defs></defs>
    <g id="Home_02" stroke="none" stroke-width="1" fill="none" fill-rule="evenodd" transform="translate(-135.000000, -30.000000)">
        <g id="Top" transform="translate(-206.000000, -576.000000)">
            <g id="Header" transform="translate(341.000000, 606.000000)">
                <g id="logo">
                    <g id="Group-3">
                        <g id="Group-2" transform="translate(60.173947, 0.000000)">
                            <polygon id="х" fill="#FFFFFF" points="32.1667252 10.196 38.540203 0.512 42.6811631 0.512 34.3272261 12.608 43.6533885 26 39.2963783 26 32.0587001 15.164 24.929047 26 20.6440534 26 29.8981992 12.572 21.4362371 0.512 25.757239 0.512"></polygon>
                            <polyline id="х" fill="#00C29D" points="32.0587001 15.164 24.929047 26 20.6440534 26 29.8981992 12.572 21.4362371 0.512 25.757239 0.512 32.1667252 10.196 32.1667252 10.196"></polyline>
                            <rect id="Rectangle" fill="#FFFFFF" x="0.207314842" y="0" width="17.0039426" height="4"></rect>
                            <rect id="Rectangle-Copy" fill="#FFFFFF" x="0.207314842" y="11" width="17.0039426" height="4"></rect>
                            <rect id="Rectangle-Copy-2" fill="#FFFFFF" x="0.207314842" y="22" width="17.0039426" height="4"></rect>
                            <polygon id="Triangle-2" fill="#00C29D" transform="translate(33.136443, 12.644969) rotate(90.000000) translate(-33.136443, -12.644969) " points="33.0718895 11.5104208 35.7114849 13.779517 30.5614007 13.7158477"></polygon>
                        </g>
                        <path d="M27.1716494,26 L23.5767748,26 L23.5767748,0.2288 L27.1716494,0.2288 L27.1716494,26 Z M33.4172901,0.2288 L42.2410731,0.2288 C43.8872192,0.2288 45.5333406,0.47146424 47.1794867,0.9568 C48.8256328,1.44213576 50.3144043,2.20652812 51.645846,3.25 C52.9772877,4.29347188 54.0545289,5.6281252 54.8776019,7.254 C55.700675,8.8798748 56.1122053,10.8333219 56.1122053,13.1144 C56.1122053,15.3226777 55.700675,17.2336586 54.8776019,18.8474 C54.0545289,20.4611414 52.9772877,21.7957947 51.645846,22.8514 C50.3144043,23.9070053 48.8256328,24.6956641 47.1794867,25.2174 C45.5333406,25.7391359 43.8872192,26 42.2410731,26 L33.4172901,26 L33.4172901,0.2288 Z M37.0121646,22.8332 L41.5148358,22.8332 C43.0641498,22.8332 44.4984541,22.6148022 45.8177918,22.178 C47.1371294,21.7411978 48.2748898,21.1102708 49.231107,20.2852 C50.1873242,19.4601292 50.93171,18.4409394 51.4642867,17.2276 C51.9968634,16.0142606 52.2631477,14.6432076 52.2631477,13.1144 C52.2631477,11.512792 51.9968634,10.1053394 51.4642867,8.892 C50.93171,7.6786606 50.1873242,6.6655374 49.231107,5.8526 C48.2748898,5.0396626 47.1371294,4.42086879 45.8177918,3.9962 C44.4984541,3.57153121 43.0641498,3.3592 41.5148358,3.3592 L37.0121646,3.3592 L37.0121646,22.8332 Z" id="tidex" fill="#FFFFFF"></path>
                        <polygon id="Path" fill="#FFFFFF" points="13.2797676 0.2288 20.1634596 0.2288 20.1634596 3.3956 13.2797676 3.3956"></polygon>
                        <polygon id="Path" fill="#00C29D" points="11.9206663 26 8.32579177 26 8.32579177 3.3956 0.0829985472 3.3956 0.0829985472 0.2288 11.9206663 0.2288 11.9206663 3.3956"></polygon>
                    </g>
                </g>
            </g>
        </g>
    </g>
</svg>