<?xml version="1.0" encoding="utf-8"?>
<!-- Generator: Adobe Illustrator 17.0.0, SVG Export Plug-In . SVG Version: 6.00 Build 0)  -->
<!DOCTYPE svg PUBLIC "-//W3C//DTD SVG 1.1//EN" "http://www.w3.org/Graphics/SVG/1.1/DTD/svg11.dtd">
<svg version="1.1"
	 id="Layer_1" xmlns:inkscape="http://www.inkscape.org/namespaces/inkscape" xmlns:sodipodi="http://sodipodi.sourceforge.net/DTD/sodipodi-0.dtd" xmlns:svg="http://www.w3.org/2000/svg" xmlns:rdf="http://www.w3.org/1999/02/22-rdf-syntax-ns#" xmlns:cc="http://creativecommons.org/ns#" xmlns:dc="http://purl.org/dc/elements/1.1/" sodipodi:docname="Outlook_logo.svg" inkscape:version="0.48.2 r9819"
	 xmlns="http://www.w3.org/2000/svg" xmlns:xlink="http://www.w3.org/1999/xlink" x="0px" y="0px" width="521.438px"
	 height="104.313px" viewBox="0 0 521.438 104.313" enable-background="new 0 0 521.438 104.313" xml:space="preserve">
<sodipodi:namedview  borderopacity="1" id="namedview41" fit-margin-top="0" gridtolerance="10" objecttolerance="10" pagecolor="#ffffff" inkscape:cy="89.87632" inkscape:cx="91.559" showgrid="false" guidetolerance="10" inkscape:zoom="1" bordercolor="#666666" fit-margin-left="0" inkscape:current-layer="Layer_1" inkscape:window-maximized="1" inkscape:window-y="-8" inkscape:window-x="-8" fit-margin-bottom="0" fit-margin-right="0" inkscape:window-height="837" inkscape:pageshadow="2" inkscape:window-width="1600" inkscape:pageopacity="0">
	</sodipodi:namedview>
<path id="path3" inkscape:connector-curvature="0" fill="#0072C6" d="M64.567,22.116v20.404l7.131,4.49
	c0.188,0.055,0.596,0.059,0.784,0l30.689-20.69c0-2.449-2.284-4.204-3.573-4.204C99.596,22.116,64.567,22.116,64.567,22.116z"/>
<path id="path5" inkscape:connector-curvature="0" fill="#0072C6" d="M64.567,50.133l6.508,4.47c0.917,0.674,2.022,0,2.022,0
	c-1.101,0.674,30.077-20.036,30.077-20.036v37.502c0,4.082-2.613,5.795-5.552,5.795H64.563V50.133H64.567z"/>
<g id="g23" transform="matrix(3.9178712,0,0,3.9178712,-13.481395,-41.384474)">
	<path id="path25" inkscape:connector-curvature="0" fill="#0072C6" d="M11.321,20.958c-0.566,0-1.017,0.266-1.35,0.797
		s-0.5,1.234-0.5,2.109c0,0.888,0.167,1.59,0.5,2.106c0.333,0.517,0.77,0.774,1.31,0.774c0.557,0,0.999-0.251,1.325-0.753
		s0.49-1.199,0.49-2.09c0-0.929-0.158-1.652-0.475-2.169C12.304,21.216,11.871,20.958,11.321,20.958z"/>
	<path id="path27" inkscape:connector-curvature="0" fill="#0072C6" d="M3.441,13.563v20.375l15.5,3.25V10.563L3.441,13.563z
		 M13.813,27.195c-0.655,0.862-1.509,1.294-2.563,1.294c-1.027,0-1.863-0.418-2.51-1.253C8.094,26.4,7.77,25.312,7.77,23.97
		c0-1.417,0.328-2.563,0.985-3.438c0.657-0.875,1.527-1.313,2.61-1.313c1.023,0,1.851,0.418,2.482,1.256
		c0.632,0.838,0.948,1.942,0.948,3.313C14.796,25.197,14.468,26.333,13.813,27.195z"/>
</g>
<g>
	<g id="g7" transform="matrix(3.9178712,0,0,3.9178712,-13.481395,-41.384474)">
		<path id="path9" inkscape:connector-curvature="0" fill="#0072C6" d="M40.467,29.793c-1.906,0-3.432-0.628-4.579-1.884
			s-1.72-2.89-1.72-4.902c0-2.162,0.584-3.887,1.753-5.174c1.168-1.287,2.759-1.931,4.771-1.931c1.856,0,3.351,0.625,4.485,1.875
			c1.134,1.25,1.701,2.884,1.701,4.902c0,2.193-0.581,3.927-1.744,5.202C43.972,29.154,42.416,29.793,40.467,29.793z M40.579,17.326
			c-1.412,0-2.559,0.509-3.44,1.528c-0.881,1.019-1.322,2.356-1.322,4.012c0,1.656,0.429,2.989,1.289,3.999
			c0.859,1.009,1.979,1.513,3.36,1.513c1.475,0,2.637-0.481,3.487-1.443c0.849-0.961,1.275-2.309,1.275-4.04
			c0-1.774-0.413-3.146-1.238-4.115C43.166,17.81,42.028,17.326,40.579,17.326z"/>
		<path id="path11" inkscape:connector-curvature="0" fill="#0072C6" d="M56.597,29.568h-1.537v-1.519h-0.038
			c-0.638,1.162-1.625,1.744-2.962,1.744c-2.287,0-3.431-1.362-3.431-4.087v-5.737h1.528v5.493c0,2.025,0.775,3.037,2.325,3.037
			c0.75,0,1.367-0.276,1.851-0.829c0.484-0.553,0.727-1.276,0.727-2.171v-5.53h1.537L56.597,29.568L56.597,29.568z"/>
		<path id="path13" inkscape:connector-curvature="0" fill="#0072C6" d="M63.672,29.474c-0.363,0.201-0.841,0.3-1.434,0.3
			c-1.681,0-2.522-0.937-2.522-2.812v-5.68h-1.65v-1.312h1.65v-2.343l1.537-0.497v2.841h2.418v1.312h-2.418v5.408
			c0,0.644,0.109,1.103,0.328,1.378c0.219,0.276,0.581,0.413,1.087,0.413c0.387,0,0.722-0.106,1.003-0.319L63.672,29.474
			L63.672,29.474z"/>
	</g>
	<g id="g15" transform="matrix(3.9178712,0,0,3.9178712,-13.481395,-41.384474)">
		<path id="path17" inkscape:connector-curvature="0" fill="#0072C6" d="M110.291,29.127c-0.738,0.444-1.613,0.666-2.625,0.666
			c-1.369,0-2.473-0.444-3.314-1.335c-0.841-0.891-1.26-2.045-1.26-3.464c0-1.58,0.453-2.851,1.359-3.81
			c0.905-0.959,2.114-1.439,3.628-1.439c0.843,0,1.587,0.156,2.231,0.469v1.575c-0.712-0.5-1.475-0.75-2.287-0.75
			c-0.982,0-1.786,0.352-2.414,1.054c-0.628,0.703-0.941,1.626-0.941,2.77c0,1.125,0.295,2.013,0.885,2.662
			c0.59,0.651,1.384,0.975,2.377,0.975c0.837,0,1.624-0.277,2.362-0.834V29.127L110.291,29.127z"/>
		<path id="path19" inkscape:connector-curvature="0" fill="#0072C6" d="M116.147,29.793c-1.418,0-2.551-0.448-3.397-1.345
			c-0.847-0.897-1.271-2.086-1.271-3.567c0-1.612,0.441-2.871,1.322-3.777c0.881-0.906,2.071-1.359,3.571-1.359
			c1.432,0,2.548,0.441,3.352,1.322c0.802,0.881,1.204,2.103,1.204,3.665c0,1.532-0.433,2.758-1.298,3.68
			C118.763,29.332,117.603,29.793,116.147,29.793L116.147,29.793z M116.259,21.038c-0.987,0-1.768,0.336-2.343,1.008
			c-0.575,0.672-0.863,1.598-0.863,2.779c0,1.138,0.291,2.034,0.871,2.69s1.359,0.985,2.334,0.985c0.993,0,1.758-0.322,2.293-0.965
			c0.534-0.643,0.801-1.558,0.801-2.747c0-1.2-0.267-2.124-0.801-2.774C118.017,21.363,117.253,21.038,116.259,21.038z"/>
		<path id="path21" inkscape:connector-curvature="0" fill="#0072C6" d="M136.533,29.568h-1.537v-5.512
			c0-1.062-0.164-1.831-0.492-2.306c-0.328-0.474-0.88-0.712-1.654-0.712c-0.656,0-1.214,0.3-1.673,0.9
			c-0.459,0.6-0.689,1.318-0.689,2.156v5.474h-1.537V23.87c0-1.887-0.729-2.831-2.184-2.831c-0.675,0-1.231,0.283-1.669,0.848
			c-0.438,0.566-0.656,1.301-0.656,2.208v5.474h-1.537V19.97h1.537v1.519h0.038c0.681-1.162,1.674-1.744,2.981-1.744
			c0.656,0,1.228,0.183,1.715,0.549c0.487,0.365,0.821,0.845,1.003,1.439c0.712-1.325,1.774-1.987,3.187-1.987
			c2.112,0,3.168,1.303,3.168,3.909L136.533,29.568L136.533,29.568z"/>
	</g>
	<g id="g29" transform="matrix(3.9178712,0,0,3.9178712,-13.481395,-41.384474)">
		<path id="path31" inkscape:connector-curvature="0" fill="#0072C6" d="M67.233,29.568h-1.537V15.357h1.537L67.233,29.568
			L67.233,29.568z"/>
		<path id="path33" inkscape:connector-curvature="0" fill="#0072C6" d="M73.876,29.793c-1.419,0-2.551-0.448-3.398-1.345
			c-0.847-0.897-1.27-2.086-1.27-3.567c0-1.613,0.441-2.871,1.322-3.778c0.881-0.906,2.071-1.359,3.571-1.359
			c1.432,0,2.548,0.441,3.352,1.322c0.802,0.881,1.204,2.103,1.204,3.665c0,1.531-0.433,2.757-1.298,3.679
			C76.493,29.332,75.333,29.793,73.876,29.793L73.876,29.793z M73.989,21.037c-0.987,0-1.768,0.336-2.343,1.008
			c-0.575,0.672-0.863,1.598-0.863,2.78c0,1.137,0.291,2.034,0.871,2.69s1.359,0.985,2.334,0.985c0.993,0,1.758-0.322,2.293-0.965
			c0.534-0.643,0.801-1.558,0.801-2.747c0-1.2-0.267-2.125-0.801-2.775C75.747,21.362,74.982,21.037,73.989,21.037z"/>
		<path id="path35" inkscape:connector-curvature="0" fill="#0072C6" d="M84.646,29.793c-1.419,0-2.551-0.448-3.398-1.345
			c-0.847-0.897-1.27-2.086-1.27-3.567c0-1.613,0.441-2.871,1.322-3.778c0.881-0.906,2.071-1.359,3.571-1.359
			c1.431,0,2.548,0.441,3.351,1.322c0.803,0.881,1.205,2.103,1.205,3.665c0,1.531-0.433,2.757-1.299,3.679
			C87.262,29.333,86.101,29.793,84.646,29.793L84.646,29.793z M84.758,21.037c-0.987,0-1.769,0.336-2.343,1.008
			c-0.575,0.672-0.863,1.598-0.863,2.78c0,1.137,0.291,2.034,0.871,2.69c0.581,0.656,1.359,0.985,2.334,0.985
			c0.993,0,1.757-0.322,2.292-0.965c0.534-0.643,0.801-1.558,0.801-2.747c0-1.2-0.267-2.125-0.801-2.775
			C86.515,21.362,85.752,21.037,84.758,21.037L84.758,21.037z"/>
		<path id="path37" inkscape:connector-curvature="0" fill="#0072C6" d="M99.369,29.568h-2.156l-4.237-4.612h-0.038v4.612h-1.537
			V15.357h1.537v9.008h0.038l4.031-4.396h2.015L94.569,24.6L99.369,29.568z"/>
		<path id="path39" inkscape:connector-curvature="0" fill="#0072C6" d="M101.767,29.774c-0.287,0-0.533-0.103-0.735-0.309
			c-0.204-0.206-0.305-0.453-0.305-0.74c0-0.287,0.101-0.535,0.305-0.745c0.202-0.21,0.448-0.314,0.735-0.314
			c0.294,0,0.544,0.104,0.75,0.314c0.206,0.21,0.309,0.458,0.309,0.745c0,0.288-0.103,0.534-0.309,0.74
			C102.311,29.671,102.061,29.774,101.767,29.774z"/>
	</g>
</g>
</svg>
