<svg version="1.1" id="Layer_1" xmlns="http://www.w3.org/2000/svg" xmlns:xlink="http://www.w3.org/1999/xlink" x="0px" y="0px"
	 viewBox="0 0 1024 1024" style="enable-background:new 0 0 1024 1024;" xml:space="preserve">
<style type="text/css">
	.st0{clip-path:url(#XMLID_111_);}
	.st1{clip-path:url(#XMLID_112_);fill:url(#XMLID_113_);}
	.st2{clip-path:url(#XMLID_114_);fill:url(#XMLID_115_);}
	.st3{clip-path:url(#XMLID_116_);fill:#DBDBDB;}
	.st4{clip-path:url(#XMLID_116_);fill:#DB8283;}
	.st5{opacity:0.63;clip-path:url(#XMLID_116_);}
	.st6{clip-path:url(#XMLID_117_);}
	.st7{clip-path:url(#XMLID_118_);fill:url(#XMLID_119_);}
	.st8{opacity:0.55;clip-path:url(#XMLID_116_);}
	.st9{clip-path:url(#XMLID_120_);}
	.st10{clip-path:url(#XMLID_121_);fill:url(#XMLID_122_);}
</style>
<g id="XMLID_2_">
	<defs>
		<rect id="XMLID_3_" x="0.5" width="1023" height="1023"/>
	</defs>
	<clipPath id="XMLID_111_">
		<use xlink:href="#XMLID_3_"  style="overflow:visible;"/>
	</clipPath>
	<g id="XMLID_108_" class="st0">
		<defs>
			<path id="XMLID_109_" d="M512,0C229.5,0,0.5,229,0.5,511.5S229.5,1023,512,1023c88.5,0,171.7-22.5,244.3-62h208.2V750.1
				c37.7-71.2,59-152.4,59-238.6C1023.5,229,794.5,0,512,0z"/>
		</defs>
		<clipPath id="XMLID_112_">
			<use xlink:href="#XMLID_109_"  style="overflow:visible;"/>
		</clipPath>
		
			<linearGradient id="XMLID_113_" gradientUnits="userSpaceOnUse" x1="0.998" y1="1024.4995" x2="1.998" y2="1024.4995" gradientTransform="matrix(0 1023 1023 0 -1047551 -1021)">
			<stop  offset="0" style="stop-color:#FFFFFF"/>
			<stop  offset="5.769230e-03" style="stop-color:#FAFAFA"/>
			<stop  offset="1" style="stop-color:#D1D2D2"/>
		</linearGradient>
		<rect id="XMLID_110_" x="0.5" class="st1" width="1023" height="1023"/>
	</g>
	<g id="XMLID_105_" class="st0">
		<defs>
			<path id="XMLID_106_" d="M51.7,511.5c0,254.2,206.1,460.3,460.4,460.3c79.6,0,154.5-20.2,219.9-55.8h187.4V726.3
				c33.9-64.1,53.1-137.2,53.1-214.8c0-254.2-206.1-460.3-460.3-460.3S51.7,257.3,51.7,511.5"/>
		</defs>
		<clipPath id="XMLID_114_">
			<use xlink:href="#XMLID_106_"  style="overflow:visible;"/>
		</clipPath>
		
			<linearGradient id="XMLID_115_" gradientUnits="userSpaceOnUse" x1="0.9978" y1="1024.4995" x2="1.9978" y2="1024.4995" gradientTransform="matrix(0 920.7 920.7 0 -942744.6875 -867.55)">
			<stop  offset="0" style="stop-color:#BC51F2"/>
			<stop  offset="5.769230e-03" style="stop-color:#BC51F2"/>
			<stop  offset="1" style="stop-color:#5F42A6"/>
		</linearGradient>
		<rect id="XMLID_107_" x="51.6" y="51.2" class="st2" width="920.7" height="920.7"/>
	</g>
	<g id="XMLID_4_" class="st0">
		<defs>
			<rect id="XMLID_5_" x="0.5" width="1023" height="1023"/>
		</defs>
		<clipPath id="XMLID_116_">
			<use xlink:href="#XMLID_5_"  style="overflow:visible;"/>
		</clipPath>
		<path id="XMLID_104_" class="st3" d="M437.8,559.9c22.7-9.5,47.1-14.9,72.2-16.2v-62.8h-83.4C427.6,509.1,431.4,536,437.8,559.9"
			/>
		<path id="XMLID_103_" class="st3" d="M426.7,458.1h83.4v-63.3c-25.1-1.3-49.5-6.7-72.1-16.1C431.5,402.7,427.6,429.8,426.7,458.1"
			/>
		<path id="XMLID_102_" class="st3" d="M444.8,356.7c20.5,8.8,42.5,13.9,65.3,15.2v-94.9C483.5,283.9,460.1,314,444.8,356.7"/>
		<path id="XMLID_101_" class="st3" d="M416.8,368.4c-14.1-7.8-27.3-17.3-39.5-28.2c-28.5,31.7-46.6,72.7-49.3,117.9h75.8
			C404.7,425.6,409.2,395.3,416.8,368.4"/>
		<path id="XMLID_100_" class="st3" d="M457.5,286.5c-23.8,8.3-45.5,21.2-64.1,37.5c9.5,8.4,19.7,15.8,30.5,22
			C432.9,322.3,444.2,302.1,457.5,286.5"/>
		<path id="XMLID_99_" class="st3" d="M510.1,661.9v-95.3c-22.8,1.3-44.9,6.5-65.4,15.3C459.9,624.9,483.4,655,510.1,661.9"/>
		<path id="XMLID_98_" class="st3" d="M556.4,307.8l0.9-7.4l7.3-2.2c0.2-0.1,0.4-0.1,0.6-0.2c-8.6-9.3-19.5-17.6-32.2-21v95.1
			c9.3-0.5,18.4-1.8,27.4-3.6C553.7,333.9,556.3,308.4,556.4,307.8"/>
		<path id="XMLID_97_" class="st3" d="M393.2,614.8c18.6,16.5,40.4,29.4,64.3,37.7c-13.3-15.6-24.8-36-33.7-60
			C413,598.9,402.8,606.2,393.2,614.8"/>
		<path id="XMLID_96_" class="st3" d="M403.8,480.9H328c2.6,45.1,20.7,86,49,117.7c12.2-11,25.5-20.6,39.7-28.4
			C409.2,543.4,404.7,513.2,403.8,480.9"/>
		<path id="XMLID_95_" class="st3" d="M532.9,566.6v95.3c26.8-6.8,50.4-36.8,65.7-80C577.9,573.1,555.7,567.9,532.9,566.6"/>
		<path id="XMLID_94_" class="st4" d="M638.7,357.2c6.2,29.1,22.8,65.7,65.4,92.4c42.5-26.8,59.2-63.3,65.4-92.4
			c-24.1-9.5-46.1-20-65.4-31.6C684.7,337.2,662.8,347.8,638.7,357.2"/>
		<path id="XMLID_93_" class="st3" d="M565.7,390.8c-10.8,2.3-21.8,3.6-32.8,4.2v63.1h65.4C582.1,435.5,572,412.2,565.7,390.8"/>
		<path id="XMLID_90_" class="st4" d="M793.7,351.7c-5.5,36.4-24.5,86.9-83.9,121.1l-5.7,3.3l-5.7-3.3
			C639,438.6,620,388,614.5,351.6l-1.4-9.1l8.6-3.2c28.8-10.8,54.5-23,76.2-36.6l6-3.7l6,3.7c21.9,13.5,47.5,25.9,76.2,36.7l8.6,3.2
			L793.7,351.7z M829.5,317.8c-71.6-22.1-110-48.6-125.5-61.3c-15.5,12.7-53.8,39.2-125.5,61.3c-1.3,29.9,2.5,141.4,125.5,196.3
			C827,459.2,830.9,347.7,829.5,317.8"/>
		<path id="XMLID_89_" class="st3" d="M616.2,480.9h-83.4v62.8c25.2,1.3,49.6,6.7,72.3,16.2C611.5,536.1,615.4,509.3,616.2,480.9"/>
		<path id="XMLID_88_" class="st3" d="M638.1,500.5c-1.9,24.9-6.1,48.2-12.2,69.6c14.3,7.9,27.7,17.6,40.2,28.8
			c15.6-17.4,28-37.8,36.6-60.5l-3.1-1.4C675.2,526.8,655,514.2,638.1,500.5"/>
		<path id="XMLID_87_" class="st3" d="M584.4,653.1c24.3-8.3,46.4-21.4,65.5-38.1c-9.7-8.6-20.1-16.2-31.2-22.5
			C609.7,616.7,598.1,637.4,584.4,653.1"/>
		<g id="XMLID_81_" class="st5">
			<g id="XMLID_82_">
				<defs>
					<rect id="XMLID_83_" x="163" y="128.5" width="698" height="544"/>
				</defs>
				<clipPath id="XMLID_117_">
					<use xlink:href="#XMLID_83_"  style="overflow:visible;"/>
				</clipPath>
				<g id="XMLID_84_" class="st6">
					<defs>
						<path id="XMLID_85_" d="M512,135.5c-187.8,0-340,120-340,268v268h156.7v-268c0-79.7,82.2-144.5,183.3-144.5
							s183.3,64.8,183.3,144.5c0,3.5-0.2,268-0.2,268H852v-268C852,255.5,699.8,135.5,512,135.5"/>
					</defs>
					<clipPath id="XMLID_118_">
						<use xlink:href="#XMLID_85_"  style="overflow:visible;"/>
					</clipPath>
					
						<linearGradient id="XMLID_119_" gradientUnits="userSpaceOnUse" x1="0.9963" y1="1024.3647" x2="1.9963" y2="1024.3647" gradientTransform="matrix(0 536 536 0 -548547.5 -398.5)">
						<stop  offset="0" style="stop-color:#DABDF5"/>
						<stop  offset="5.769230e-03" style="stop-color:#DABDF5"/>
						<stop  offset="1" style="stop-color:#5F42A6"/>
					</linearGradient>
					<rect id="XMLID_86_" x="172" y="135.5" class="st7" width="680" height="536"/>
				</g>
			</g>
		</g>
		<g id="XMLID_6_" class="st8">
			<g id="XMLID_7_">
				<defs>
					<rect id="XMLID_8_" x="26.2" y="541.1" width="987.5" height="292.3"/>
				</defs>
				<clipPath id="XMLID_120_">
					<use xlink:href="#XMLID_8_"  style="overflow:visible;"/>
				</clipPath>
				<g id="XMLID_9_" class="st9">
					<defs>
						<path id="XMLID_10_" d="M635.7,792.1l-8.8-0.2c-16.8,1.3-41.5,2.4-69.1,2.9l80.1,2.1L635.7,792.1z M540.2,808.6l-186.8-4.9
							c11.3,1,22.9,1.9,34.7,2.6C437.7,809.3,487.3,810.5,540.2,808.6 M640.2,801.7l-377.9-9.9c11.5,2.1,23.5,4,35.8,5.7l300.6,7.9
							C612.3,804.4,626.1,803.2,640.2,801.7L640.2,801.7z M348.1,784.6L213.1,781c7.1,1.9,14.4,3.6,22,5.3l170.7,4.5
							C384.8,789.1,365.6,787,348.1,784.6 M286.9,773.5l-107.4-2.8c4.9,1.8,10.1,3.5,15.4,5.2l117.8,3.1
							C303.5,777.2,294.9,775.4,286.9,773.5 M250.7,763l-95.6-2.5c3.6,1.7,7.3,3.4,11.2,5l100.4,2.6
							C261.1,766.5,255.7,764.8,250.7,763 M137.4,750.5c2.6,1.7,5.3,3.3,8.1,5l91.9,2.4c-3.9-1.6-7.5-3.3-10.9-5L137.4,750.5z
							 M752.8,643.1l-223.3-5.8c-10.7,1.1-21.2,2.5-31.6,3.9l253.2,6.6c2.5-1.5,4.9-2.9,7.3-4.3
							C756.5,643.4,754.6,643.3,752.8,643.1 M573.1,633.7l128.2,3.4c-12.6-1.6-26.7-3.3-37.4-3.7
							C633.3,631.6,602.8,631.9,573.1,633.7 M307.8,731.2l126.4,3.3c9.3-1.2,18.8-2.6,28.2-4l-158.4-4.1
							C304.7,728.2,306.1,729.8,307.8,731.2 M400.6,738.4l-84.1-2.2c6.6,2.5,14.9,4.1,24.1,4.7C355.8,741.8,377,740.8,400.6,738.4
							 M302.7,721.6l184.8,4.8c7.9-1.3,15.6-2.7,23.1-4.1l-66.5-1.7c-12.8,1.3-22.4,1.7-28.1,1.4c-5.3-0.3-9.8-1-12.7-2.5l-99.8-2.6
							C302.9,718.5,302.7,720.1,302.7,721.6 M535,746.7l198.5,5.2c10.3-1.1,20.4-2.5,30.2-4l-230.6-6
							C532.8,743.6,533.4,745.2,535,746.7 M690.9,755.5l-142.6-3.7c7.5,1.6,18.1,2.8,32.6,3.7C618.4,757.8,655.6,757.7,690.9,755.5
							 M653.7,650c4.1,0.7,7.8,1.4,10.9,2.1c-1.4,0.9-2.8,1.8-4.3,2.8l75.6,2c2.5-1.5,5.1-3.1,7.6-4.6L653.7,650z M720.9,666
							c2.5-1.5,5-3.1,7.4-4.6l-75.1-2c-2.3,1.5-4.6,3-7.1,4.6L720.9,666z M706.1,675.2c2.5-1.5,4.9-3,7.4-4.6l-74.5-2
							c-2.4,1.5-4.9,3-7.4,4.6L706.1,675.2z M619.7,739.4c-1.2-1.2-1.2-2.8-0.1-4.8l-78.3-2.1c-2.1,1.6-3.8,3.1-5.2,4.6L619.7,739.4
							z M548.6,727.4c-0.3,0.2-0.6,0.4-0.9,0.6l75.8,2c1.5-1.4,3.3-2.9,5.5-4.6l-74.4-1.9L548.6,727.4z M568.4,714.3l-6.9,4.6
							l73.7,1.9c0.6-0.4,1.1-0.8,1.7-1.2c1.7-1.1,3.4-2.2,5.1-3.3L568.4,714.3z M521.4,708.3l47.4,1.2c2.3-0.6,4.6-1.2,6.7-1.8
							l2,0.5l-2.3,1.5l73.7,1.9c2.3-1.5,4.7-3.1,7-4.6l-114.4-3C534.7,705.6,528,707,521.4,708.3 M578.2,695.6
							c-6,1.5-11.9,2.9-17.8,4.3l102.6,2.7c2.4-1.5,4.7-3.1,7.1-4.6L578.2,695.6z M602.8,689.2c-2.6,0.7-5.2,1.4-7.8,2.1l82.2,2.2
							c2.4-1.5,4.8-3.1,7.1-4.6l-76.9-2C605.9,687.6,604.4,688.4,602.8,689.2 M624,677.8c-2.7,1.5-5.3,3.1-8,4.5l75.7,2
							c2.4-1.5,4.8-3.1,7.2-4.6L624,677.8z M531.9,718.1c6.9-1.4,13.4-2.8,19.5-4.2l-51.9-1.4c-8.8,1.6-17,2.9-24.7,4.1L531.9,718.1
							z M308.6,708c-1.2,1.4-2.1,2.8-2.9,4.1l93.8,2.5c-0.1-1.3,0.3-2.9,1.3-4.7l-91.7-2.4C308.9,707.7,308.7,707.9,308.6,708
							 M318.7,698.3c-2,1.6-3.7,3.1-5.3,4.6l90.4,2.4c0.1-0.1,0.1-0.1,0.2-0.2c1.3-1.5,2.7-2.9,4.3-4.4L318.7,698.3z M332,689.1
							c-2.5,1.5-4.9,3.1-7.1,4.6l88.7,2.3c1.9-1.5,4-3.1,6.1-4.6L332,689.1z M348.9,680.1c-3.1,1.5-6.1,3-8.9,4.5l86.6,2.3
							c2.5-1.5,5-3.1,7.6-4.6L348.9,680.1z M369.8,671.1c-3.9,1.5-7.5,3-11,4.5l83.9,2.2c3-1.5,6.1-3,9.2-4.5L369.8,671.1z
							 M395.8,662.3c-4.8,1.4-9.3,2.9-13.7,4.4l79.9,2.1c3.7-1.6,7.4-3,11.2-4.5L395.8,662.3z M428.5,653.6
							c-6,1.4-11.8,2.8-17.3,4.3l74.4,1.9c4.6-1.6,9.2-3.1,13.7-4.4L428.5,653.6z M456.3,647.9c-2.7,0.5-5.3,1-7.9,1.5l67,1.8
							c1.3-0.3,2.5-0.6,3.7-0.9c6.1-1.2,12.5-2.4,19-3.3l-66.8-1.7C466.4,646.1,461.3,647,456.3,647.9 M808.4,739.6l-66.1-1.7
							c-10,1.6-20.1,3-30.2,4l75.9,2C794.9,742.5,801.8,741.1,808.4,739.6 M782.1,729.4c-5.8,1.6-11.7,3-17.7,4.3l61.6,1.6
							c5.3-1.4,10.5-2.8,15.5-4.3L782.1,729.4z M809.7,720.6c-4.2,1.6-8.4,3-12.8,4.4l58.3,1.5c4.2-1.4,8.3-2.9,12.2-4.4
							L809.7,720.6z M830.6,711.7c-3.2,1.6-6.4,3.1-9.8,4.5l57.5,1.5c3.4-1.5,6.6-3,9.7-4.5L830.6,711.7z M846.7,702.6
							c-2.4,1.6-5,3.1-7.6,4.6l57.5,1.5c2.7-1.5,5.3-3,7.7-4.5L846.7,702.6z M859.2,693.4c-1.9,1.6-3.8,3.1-5.8,4.6l57.8,1.5
							c2.1-1.5,4-3,5.9-4.6L859.2,693.4z M868.6,684.2c-1.4,1.6-2.9,3.1-4.4,4.6l57.7,1.5c1.5-1.5,3-3.1,4.2-4.6L868.6,684.2z
							 M875.3,674.8c-0.8,1.5-1.8,3.1-3,4.7l57.3,1.5c1-1.6,1.9-3.1,2.7-4.7L875.3,674.8z M878.8,665.4c-0.3,1.6-0.8,3.1-1.3,4.7
							l56.7,1.5c0.5-1.6,0.9-3.2,1.1-4.7L878.8,665.4z M189.3,713.9l-80.2-2.1c0.1,1.6,0.4,3.2,0.7,4.8l80.7,2.1
							C190,717.1,189.6,715.5,189.3,713.9 M192.5,723.5l-81.4-2.1c0.6,1.6,1.3,3.2,2.1,4.8l82.2,2.2
							C194.3,726.7,193.4,725.1,192.5,723.5 M199.2,733.2l-83.1-2.2c1.1,1.6,2.5,3.3,3.8,4.9l84.1,2.2
							C202.3,736.4,200.7,734.8,199.2,733.2 M210.2,742.9l-85.5-2.2c1.8,1.7,3.7,3.3,5.8,4.9l87.1,2.3
							C215,746.3,212.5,744.6,210.2,742.9 M189.1,704.4l-79.2-2.1c-0.3,1.6-0.6,3.2-0.7,4.7l79.7,2.1
							C188.8,707.5,188.9,706,189.1,704.4 M191.5,694.9l-78.6-2.1c-0.7,1.6-1.3,3.1-1.8,4.7l78.9,2.1
							C190.4,698.1,190.9,696.5,191.5,694.9 M196.3,685.6l-78-2c-1.1,1.6-2,3.1-2.9,4.7l78.3,2C194.4,688.7,195.3,687.1,196.3,685.6
							 M203.5,676.2l-77.7-2c-1.2,1.4-2.5,2.7-3.6,4.1c-0.1,0.2-0.3,0.4-0.4,0.5l77.9,2c0.4-0.5,0.8-1,1.2-1.5
							C201.6,678.4,202.5,677.3,203.5,676.2 M212.8,667l-77.5-2c-1.8,1.5-3.4,3.1-5,4.6l77.6,2C209.4,670.1,211.1,668.5,212.8,667
							 M224.4,657.8l-77.3-2c-2.1,1.5-4.2,3-6.2,4.6l77.4,2C220.2,660.8,222.3,659.3,224.4,657.8 M238.5,648.7l-77.1-2
							c-2.5,1.5-5,3-7.4,4.6l77.2,2C233.5,651.7,235.9,650.2,238.5,648.7 M255.4,639.6l-77.2-2c-3,1.5-5.9,3-8.8,4.5l77.1,2
							C249.4,642.6,252.3,641.1,255.4,639.6 M275.7,630.6l-77.5-2c-3.6,1.5-7,3-10.4,4.5l77.3,2
							C268.5,633.6,272.1,632.1,275.7,630.6 M300.1,621.8l-78.3-2.1c-4.2,1.4-8.3,2.9-12.3,4.4l77.8,2
							C291.5,624.7,295.7,623.2,300.1,621.8 M329.8,613l-80.2-2.1c-4.9,1.4-9.8,2.9-14.6,4.4l79.1,2.1
							C319.2,615.9,324.5,614.4,329.8,613 M366.7,604.5l-83.9-2.2c-5.9,1.4-11.7,2.8-17.4,4.3l81.7,2.1
							C353.5,607.3,360.1,605.8,366.7,604.5 M415.4,596.3l-92.2-2.4c-7.2,1.3-14.2,2.7-21.2,4.2l87.2,2.3
							C397.7,598.9,406.4,597.5,415.4,596.3 M490.1,588.7l-116.2-3c-9.1,1.3-18.1,2.6-27,4l100.6,2.6
							C461.3,590.9,475.5,589.7,490.1,588.7 M494.6,574.6l243.2,6.4c-20.1-2.3-41.8-4.1-65-5.5C614.4,571.9,553.7,571.6,494.6,574.6
							 M641.4,587.9l170.8,4.5c-9.7-2-19.9-3.8-30.7-5.6L443.6,578c-12.9,1.1-25.6,2.3-38.2,3.8l167.4,4.4
							C595.2,586.2,618.1,586.8,641.4,587.9 M762.3,600.6L855,603c-6-1.8-12.4-3.6-19.1-5.3l-112.3-2.9
							C737.2,596.5,750.2,598.5,762.3,600.6 M810,611.4l74,1.9c-4.2-1.7-8.6-3.4-13.3-5.1l-81.4-2.1
							C796.7,607.7,803.6,609.5,810,611.4 M839.5,621.6l65.1,1.7c-2.9-1.7-6.1-3.4-9.4-5l-68.9-1.8
							C831.1,618.2,835.4,619.9,839.5,621.6 M858.8,631.6l60.3,1.6c-2-1.7-4.2-3.3-6.5-4.9l-62.4-1.6
							C853.3,628.3,856.1,629.9,858.8,631.6 M870.8,641.5l57.8,1.5c-1.2-1.6-2.6-3.3-4.2-4.9l-58.8-1.5
							C867.5,638.2,869.2,639.8,870.8,641.5 M877.3,651.1l56.7,1.5c-0.6-1.6-1.3-3.2-2.2-4.8l-57.1-1.5
							C875.7,647.9,876.6,649.5,877.3,651.1 M879.3,660.7l56.4,1.5c0-1.6-0.1-3.2-0.4-4.8l-56.4-1.5
							C879.2,657.5,879.3,659.1,879.3,660.7"/>
					</defs>
					<clipPath id="XMLID_121_">
						<use xlink:href="#XMLID_10_"  style="overflow:visible;"/>
					</clipPath>
					
						<linearGradient id="XMLID_122_" gradientUnits="userSpaceOnUse" x1="0.9926" y1="1025.0118" x2="1.9926" y2="1025.0118" gradientTransform="matrix(-202.616 262.8906 281.6185 7.5324 -287836.875 -7422.9932)">
						<stop  offset="0" style="stop-color:#D39EF5"/>
						<stop  offset="5.769230e-03" style="stop-color:#D39EF5"/>
						<stop  offset="1" style="stop-color:#5F42A6"/>
					</linearGradient>
					<polygon id="XMLID_80_" class="st10" points="1116.1,576.4 919,832.1 -71.3,805.6 125.8,549.9 					"/>
				</g>
			</g>
		</g>
	</g>
</g>
</svg>
