<?xml version="1.0" ?><svg style="enable-background:new 0 0 48 48;" version="1.1" viewBox="0 0 48 48" xml:space="preserve" xmlns="http://www.w3.org/2000/svg" xmlns:xlink="http://www.w3.org/1999/xlink">
<g id="Icons">
<g id="Icons_15_">
<g>
<path d="M23.55821,25.49296c0,0,1.4304,0.3251,4.1612-0.8452s2.7308-3.0559,2.7308-3.0559 c-1.4304,0.5852-2.6658-0.3251-2.6658-0.3251l1.1703-0.5851c2.2107-0.4552,4.6814-2.7308,5.1365-3.1209     s1.1053-1.6255-0.1951-1.1704c-1.3003,0.4552-2.7958,0.1301-2.7958,0.1301l0.7803-0.6502     c3.8361-2.3407,4.4862-4.6163,3.8361-5.0064c-0.6502-0.3901-2.1906,1-2.1906,1c-17.1212,10.4844-18.9766,24.6819-18.9766,24.6819     s-0.1193,0.7155,0.7751,0.6559C16.21891,37.14196,15.39211,31.57736,23.55821,25.49296z" style="fill:#ffffff;"/><g>
<path d="M12.41311,24.57796c-0.1934,0-0.3501-0.1563-0.3501-0.3497v-5.1884      c0-1.751,1.4243-3.1748,3.1753-3.1748h5.1591c0.1934,0,0.3501,0.1562,0.3501,0.3496c0,0.1933-0.1567,0.3496-0.3501,0.3496      h-5.1591c-1.3648,0-2.4751,1.1103-2.4751,2.4756v5.1884C12.76321,24.42166,12.60641,24.57796,12.41311,24.57796z" style="fill:#ffffff;"/></g><g>
<path d="M31.35451,35.40996h-5.4834c-0.1934,0-0.3501-0.1563-0.3501-0.3496      c0-0.1934,0.1567-0.3496,0.3501-0.3496h5.4834c1.3647,0,2.4751-1.1104,2.4751-2.4756v-5.1602      c0-0.1933,0.1567-0.3496,0.3501-0.3496c0.1933,0,0.3501,0.1563,0.3501,0.3496v5.1602      C34.52981,33.98616,33.10541,35.40996,31.35451,35.40996z" style="fill:#FFFFFF;"/></g></g></g></g></svg>