<?xml version="1.0" encoding="UTF-8" standalone="no"?>
<!-- Generator: Adobe Illustrator 12.0.1, SVG Export Plug-In . SVG Version: 6.00 Build 51448)  -->

<svg
   xmlns:dc="http://purl.org/dc/elements/1.1/"
   xmlns:cc="http://creativecommons.org/ns#"
   xmlns:rdf="http://www.w3.org/1999/02/22-rdf-syntax-ns#"
   xmlns:svg="http://www.w3.org/2000/svg"
   xmlns="http://www.w3.org/2000/svg"
   xmlns:sodipodi="http://sodipodi.sourceforge.net/DTD/sodipodi-0.dtd"
   xmlns:inkscape="http://www.inkscape.org/namespaces/inkscape"
   version="1.1"
   id="Layer_1"
   inkscape:output_extension="org.inkscape.output.svg.inkscape"
   sodipodi:version="0.32"
   inkscape:version="0.48.2 r9819"
   sodipodi:docname="yahoo.svg"
   width="800"
   height="151.6611328"
   viewBox="130.3515625 177.4335938 800 151.6611328"
   overflow="visible"
   enable-background="new 130.3515625 177.4335938 800 151.6611328"
   xml:space="preserve"><metadata
   id="metadata2296"><rdf:RDF><cc:Work
       rdf:about=""><dc:format>image/svg+xml</dc:format><dc:type
         rdf:resource="http://purl.org/dc/dcmitype/StillImage" /></cc:Work></rdf:RDF></metadata><defs
   id="defs2294" />
<sodipodi:namedview
   gridtolerance="10.0"
   bordercolor="#666666"
   inkscape:zoom="0.88990164"
   inkscape:cx="307.28927"
   inkscape:cy="98.192531"
   pagecolor="#ffffff"
   guidetolerance="10.0"
   borderopacity="1.0"
   id="base"
   objecttolerance="10.0"
   inkscape:window-x="-8"
   inkscape:window-y="-8"
   inkscape:current-layer="Layer_1"
   inkscape:window-width="1440"
   inkscape:pageshadow="2"
   inkscape:pageopacity="0.0"
   inkscape:window-height="838"
   showgrid="false"
   inkscape:window-maximized="1">
	</sodipodi:namedview>
<path
   id="path2217"
   fill="#592C71"
   d="M348.6074219,216.1992188c-3.9140625,0.3867188-20.2080078,4.0371094-25.6845703,5.2109375  c-5.8642578,1.5605469-59.4414063,42.953125-62.9609375,53.1171875c-0.7802734,3.5175781-1.1713867,8.9296875-1.1713867,14.015625  l-0.3925781,8.2148438c0,5.8613281,1.628418,15.3144531,2.4082031,20.3964844  c3.5224609,0.7851563,29.0151367,0.0996094,33.706543,0.8789063l-0.5771484,10.5136719  c-4.5839844-0.3339844-36.9555664-0.2558594-55.449707-0.2558594c-9.3881836,0-39.5673828,1.0351563-48.8398438,0.7558594  l1.7529297-9.9980469c5.0844727-0.3945313,26.1362305,0.9082031,30.7641602-3.9765625  c2.2988281-2.4238281,1.5664063-5.0214844,1.5664063-19.0976563v-6.6464844c0-3.1289063,0-8.9980469-0.784668-14.4746094  c-1.9541016-5.8671875-49.144043-64.7890625-61.2666016-74.171875c-3.5224609-1.171875-25.5800781-3.3779297-31.0541992-4.5537109  l-0.2724609-9.0068359c2.730957-1.3691406,27.2587891,0.3330078,51.0615234-0.5478516  c15.6435547-0.578125,51.3369141,0,55.7407227,0.5244141l-1.128418,7.9375  c-4.6914063,1.1748047-27.2924805,1.609375-33.159668,3.171875c15.2529297,22.6816406,39.3686523,51.8828125,47.1914063,63.2246094  c4.3041992-6.2558594,42.1098633-32.265625,43.2817383-41.2597656c-5.8681641-1.1777344-25.2915039-3.9726563-28.4213867-3.9726563  l-1.8579102-10.2402344c5.324707-0.8330078,33.3227539,0,47.2421875,0c12.0126953,0,37.6816406,0,44.9755859,0.5976563  L348.6074219,216.1992188"
   style="fill:#FFFFFF;fill-opacity:1" />
<path
   id="path2219"
   fill="#592C71"
   d="M364.9521484,245.7617188l-0.2441406-1.5537109  c-4.4365234,10.3544922-11.9707031,26.6240234-13.4482422,30.5654297l24.2753906-0.0107422  C372.5761719,267.1210938,367.1708984,252.1689453,364.9521484,245.7617188 M429.4199219,324.1689453  c-1.7216797-0.2490234-21.3183594-0.2460938-28.4638672-0.2460938c-4.1933594,0-25.5361328-0.1240234-29.2363281-0.1240234  l1.109375-9.1582031c4.9335938-0.2451172,14.1035156-2.2421875,18.296875-2.734375  c-2.7109375-6.1582031-11.6572266-25.7216797-13.6289063-29.4179688c-5.1767578,0-23.7939453,0.5830078-28.9707031,1.5683594  c-0.984375,1.7265625-8.0517578,8.6572266-9.2802734,18.0224609c3.4521484,0.7382813,10.0712891,2.1621094,14.0136719,2.6533203  l-1.4580078,9.359375c-4.1884766-0.2460938-20.9003906,0.2451172-24.84375,0  c-3.7011719,0-20.8735352,0.0410156-24.0791016,0.5332031l3.0527344-9.8925781  c3.9414063-0.4912109,13.0292969-3.3164063,16.4755859-4.0517578c5.1787109-7.3925781,29.1513672-54.2529297,31.125-58.6914063  c-3.2080078-0.7412109-8.6513672-3.3173828-12.1064453-3.8095703l-0.4736328-6.7714844  c4.1914063,0.25,25.0214844,0.875,27.234375,0.7646484c4.9560547-0.2421875,23.3525391-0.1513672,27.5449219-0.3935547  l-1.5537109,6.6503906c-3.6962891,0.2421875-9.7099609,2.0449219-13.1630859,2.7832031  c1.7255859,5.1757813,8.5898438,21.8623047,13.7666016,34.1855469c3.9443359,8.8769531,10.4902344,26.2675781,16.6513672,36.375  c4.1884766,0.7382813,13.8017578,3.5605469,18.2382813,3.8056641l0.2490234,2.4697266L429.4199219,324.1689453z"
   style="fill:#FFFFFF;fill-opacity:1" />
<path
   id="path2221"
   fill="#592C71"
   d="M573.8027344,298.8027344c-3.3994141-0.2617188-19.7568359-0.2382813-28.1210938,0  c-6.7080078,0.1894531-22.6435547-0.609375-30.2294922-0.2802734l-0.5791016-9.2939453  c2.6132813-0.2636719,18.9326172-1.3730469,22.0683594-1.9003906c1.0449219-4.9658203,0.5449219-12.0126953,0.5449219-18.0195313  l-0.4033203-10.9433594c-8.3671875,0-63.6796875,2.8779297-66.0341797,3.1347656l-4.0410156,0.5273438  c0,14.9091797,0.7841797,19.6201172,1.8310547,25.1113281c4.4482422,0.7792969,20.4033203,1.8261719,23.7998047,2.3535156  l-0.2060547,10.1289063c-3.9257813-0.2626953-28.4599609,0-36.0458984,0c-9.1503906,0-31.4072266-0.1972656-36.6386719,0.0644531  l0.7089844-10.4570313c4.1845703-0.2636719,20.0039063-1.8212891,23.4042969-2.3417969  c0.5234375-6.8076172,0.7841797-17.5234375,0.7841797-28.7714844v-13.8613281  c0-4.7070313-0.2607422-18.3066406-0.5244141-23.0175781c-3.4003906-0.515625-19.2197266-1.5761719-23.9267578-1.8369141  l-0.8349609-7.9189453c3.1376953,0.265625,24.9755859-0.3330078,36.4804688-0.3330078  c10.7236328,0,35.0380859,0.2119141,37.9150391-0.0527344l-0.8525391,8.3046875  c-4.96875,0.2607422-21.4462891,1.5683594-24.3222656,2.0908203c-0.7880859,3.9267578-1.5722656,7.328125-1.5722656,19.8789063  l-0.3857422,6.5429688c4.7070313,0,63.0527344-0.2294922,70.3193359-1.2646484v-9.0126953  c0-11.5058594,1.7861328-23.9462891,0.4804688-27.3505859c-2.8789063-0.7802734-18.4667969-2.9755859-23.4394531-3.2402344  l0.6972656-8.3486328c3.1396484,0.2636719,17.8339844,0.1748047,28.8154297,0.4375  c11.5078125,0,28.2265625,0.4726563,31.625-0.0498047l-0.7724609,6.8759766  c-3.3984375,0.2636719-18.5615234,4.0976563-18.5615234,4.0976563s-1.0351563,7.1660156-0.2744141,17.4736328  c0.6279297,8.5595703,0.8193359,25.3955078,0.8193359,25.3955078c0.4335938,18.7460938,1.5898438,33.8945313,0.5458984,34.6826172  c-1.2578125,0.9384766,12.0068359,1.7460938,15.6650391,2.2724609l1.4316406,2.484375L573.8027344,298.8027344"
   style="fill:#FFFFFF;fill-opacity:1" />
<path
   id="path2223"
   fill="#592C71"
   d="M687.6728516,257.2958984c0.9472656-26.4326172-19.7412109-33.46875-45.8759766-31.6748047  c-13.6748047,0.9394531-41.5029297,8.1689453-41.5029297,31.6748047c0,23.2304688,21.3466797,35.8105469,49.8300781,33.3261719  c22.0449219-1.9179688,33.6142578-10.0351563,36.4541016-21.3134766L687.6728516,257.2958984 M708.6982422,255.1113281  c1.2412109,31.9414063-27.9248047,47.7851563-65.8076172,47.7851563c-15.765625,0-34.9550781-3.0039063-51.3378906-12.8339844  c-12.78125-7.6699219-14.8974609-17.6181641-14.8974609-30.0615234c0-25.7216797,28.0009766-47.0439453,70.8681641-46.7666016  c16.3144531,0,32.0419922,2.4882813,44.7539063,12.4023438c11.34375,8.8466797,13.2597656,13.2402344,15.3271484,22.9199219  L708.6982422,255.1113281z"
   style="fill:#FFFFFF;fill-opacity:1" />
<path
   id="path2225"
   fill="#592C71"
   d="M888.1894531,308.9121094l-9.0742188-0.7783203l-0.0966797-19.6542969l11.4882813,1.4316406  l10.2958984,0.4775391l-2.8574219,19.2451172L888.1894531,308.9121094 M899.8779297,274.1943359l-16.9335938-1.6435547  c1.7763672-8.5625,0.2304688-74.2958984,0.0927734-81.3085938l-0.8720703-13.8085938  c4.7177734,0.9296875,4.0029297,0.4414063,23.9091797,2.5351563c12.1132813,1.2714844,13.6943359,1.8144531,17.6806641,1.9716797  l-5.203125,16.375C914.1123047,211.4121094,901.2441406,269.8193359,899.8779297,274.1943359z"
   style="fill:#FFFFFF;fill-opacity:1" />
<path
   id="path2227"
   fill="#592C71"
   d="M844.953125,246.375c1.8007813-28.7207031-25.8701172-39.1826172-55.7021484-37.1376953  c-15.6123047,1.0693359-44.7832031,10.3017578-44.7832031,37.1376953c0,26.5166016,24.4121094,39.8847656,56.9384766,37.0527344  c25.1582031-2.1923828,35.6318359-11.6572266,41.3652344-24.4902344  C842.7714844,258.9375,844.4111328,255.1113281,844.953125,246.375 M867.5214844,242.1328125  c2.2333984,29.9101563-32.2851563,54.7539063-75.5419922,54.7539063c-17.9931641,0-33.3115234-2.1816406-51.0615234-13.9208984  c-14.5976563-9.6572266-21.5712891-18.0244141-23.3925781-34.5009766  c-3.2285156-29.1826172,31.9667969-53.7060547,80.9042969-53.390625c18.6289063,0,36.578125,2.8339844,51.0986328,14.1572266  c12.9443359,10.0957031,15.2089844,19.6767578,17.5722656,30.7353516L867.5214844,242.1328125z"
   style="fill:#FFFFFF;fill-opacity:1" />
<path
   id="path2229"
   fill="#592C71"
   d="M918.7988281,299.5380859h1.7519531c1.5195313,0,2.9912109-0.0771484,2.9912109-1.8779297  c0-1.5488281-1.3447266-1.7304688-2.5009766-1.7304688h-2.2421875V299.5380859 M917.0976563,294.5351563h4.2255859  c2.6552734,0,3.9189453,1.0556641,3.9189453,3.1992188c0,2.0371094-1.2880859,2.890625-2.9638672,3.0673828l3.2255859,4.9541016  h-1.8320313l-3.0410156-4.8242188h-1.8320313v4.8242188h-1.7011719V294.5351563L917.0976563,294.5351563z M920.7548828,308.3613281  c4.3857422,0,7.8925781-3.5605469,7.8925781-8.203125s-3.5068359-8.203125-7.8925781-8.203125  c-4.4082031,0-7.8916016,3.5605469-7.8916016,8.203125S916.3466797,308.3613281,920.7548828,308.3613281z M920.7548828,290.5615234  c5.2109375,0,9.5966797,4.1289063,9.5966797,9.5966797c0,5.46875-4.3857422,9.5966797-9.5966797,9.5966797  c-5.2333984,0-9.5908203-4.1279297-9.5908203-9.5966797C911.1640625,294.6904297,915.5214844,290.5615234,920.7548828,290.5615234z"
   style="fill:#FFFFFF;fill-opacity:1" />
</svg>